<svg width="550" height="550" viewBox="0 0 550 550" fill="none" xmlns="http://www.w3.org/2000/svg">
<path d="M199.638 28.3424C158.039 18.5837 96.0204 6.5877 65.467 13.2677C65.467 13.2677 65.467 51.117 118.115 69.1224C117.772 69.689 117.442 70.2917 117.1 70.8704C136.823 55.7064 165.652 38.697 204.244 28.5797C202.704 28.501 201.158 28.425 199.638 28.3424Z" fill="#C38252"/>
<path d="M483.562 281.411C477.519 216.611 462.688 115.794 428.976 64.6594C429 64.6487 429.026 64.634 429.048 64.6233C408.455 50.2473 379.94 35.3274 343.024 26.7807C340.119 27.4434 337.288 28.1007 334.556 28.7461C287.252 31.1807 242.68 30.5327 204.244 28.5794C165.652 38.6967 136.823 55.7073 117.1 70.87C86.0935 123.603 72.1535 219.129 66.3468 281.411C65.2802 292.853 64.6975 304.238 64.6975 315.469C64.6975 376.174 80.7575 423.021 107.77 457.122C128.627 483.449 155.759 502.158 187.351 513.775C187.343 513.097 187.044 512.423 187.044 511.738V345.231C187.044 288.871 223.382 244.222 267.547 244.222H284.59C328.756 244.222 365.711 288.871 365.711 345.231V511.738C365.711 512.146 365.115 512.546 365.11 512.953C395.76 501.282 422.066 482.827 442.43 457.122C469.44 423.021 485.355 376.173 485.355 315.469C485.355 304.238 484.627 292.853 483.562 281.411Z" fill="#CEA589"/>
<path d="M470.442 13.2682C441.503 6.94015 384.332 17.3708 343.024 26.7815C379.94 35.3268 408.455 50.2468 429.048 64.6241C470.431 45.5015 470.442 13.2682 470.442 13.2682Z" fill="#C38252"/>
<path d="M365.711 345.232C365.711 288.87 328.755 244.222 284.59 244.222H267.546C223.382 244.222 187.044 288.87 187.044 345.232V511.738C187.044 512.424 187.343 513.096 187.35 513.776C213.955 523.558 243.658 528.317 274.822 528.317C306.86 528.317 337.87 523.302 365.043 512.953C365.048 512.545 365.711 512.146 365.711 511.738V345.232Z" fill="#DBB7A9"/>
<path d="M66.2223 280.522C65.237 291.499 64.689 302.422 64.689 313.201C64.689 373.906 80.749 420.753 107.758 454.851C113.489 462.085 119.722 468.73 126.389 474.826C245.885 349.851 103.27 292.725 66.2223 280.522Z" fill="#C38252"/>
<path d="M442.131 454.852C469.141 420.753 485.201 373.905 485.201 313.201C485.201 302.07 484.623 290.793 483.579 279.457C452.855 289.041 295.283 346.177 421.675 476.474C429.036 469.937 435.88 462.742 442.131 454.852Z" fill="#C38252"/>
<path d="M227.694 481.556H226.936C221.507 481.556 217.107 485.956 217.107 491.388C217.107 485.956 212.702 481.556 207.274 481.556H206.516C201.087 481.556 196.687 485.956 196.687 491.388C196.687 485.956 192.28 481.556 186.854 481.556H186.095C180.666 481.556 176.378 485.825 176.378 491.257V528.317C176.378 533.751 180.666 537.556 186.095 537.556H186.854C192.28 537.556 196.687 533.157 196.687 527.725C196.687 533.157 201.087 537.556 206.516 537.556H207.274C212.702 537.556 217.107 533.157 217.107 527.725C217.107 533.157 221.507 537.556 226.936 537.556H227.694C233.123 537.556 237.711 533.751 237.711 528.317V491.257C237.711 485.825 233.123 481.556 227.694 481.556Z" fill="#FCDB66"/>
<path d="M363.83 481.556H363.074C357.643 481.556 353.243 485.956 353.243 491.388C353.243 485.956 348.838 481.556 343.411 481.556H342.652C337.223 481.556 332.822 485.956 332.822 491.388C332.822 485.956 328.416 481.556 322.99 481.556H322.232C316.802 481.556 312.378 485.825 312.378 491.257V528.317C312.378 533.751 316.802 537.556 322.232 537.556H322.99C328.416 537.556 332.822 533.157 332.822 527.725C332.822 533.157 337.223 537.556 342.652 537.556H343.411C348.838 537.556 353.243 533.157 353.243 527.725C353.243 533.157 357.643 537.556 363.074 537.556H363.83C369.258 537.556 373.711 533.751 373.711 528.317V491.257C373.711 485.825 369.258 481.556 363.83 481.556Z" fill="#FCDB66"/>
<path d="M241.81 247.896C249.688 233.717 298.557 233.86 306.681 247.896C312.088 257.233 291.769 312.766 274.246 312.766C256.725 312.766 236.897 256.741 241.81 247.896Z" fill="#583A1E"/>
<path d="M268.408 204.616C268.408 240.177 239.583 269.001 204.02 269.001C168.462 269.001 139.636 240.177 139.636 204.616C139.636 169.057 168.462 140.229 204.02 140.229C239.583 140.229 268.408 169.057 268.408 204.616Z" fill="#FEFFFF"/>
<path d="M268.408 204.616C268.408 240.177 239.583 269.001 204.02 269.001C168.462 269.001 139.636 240.177 139.636 204.616C139.636 169.057 168.462 140.229 204.02 140.229C239.583 140.229 268.408 169.057 268.408 204.616Z" stroke="#BB6843" stroke-width="13.3333" stroke-miterlimit="10"/>
<path d="M210.933 196.687L216.588 170.489C212.649 168.991 208.39 168.135 203.922 168.135C184.193 168.135 168.198 184.129 168.198 203.859C168.198 223.591 184.193 239.585 203.922 239.585C223.654 239.585 239.649 223.591 239.649 203.859C239.649 201.689 239.424 199.573 239.05 197.507L210.933 196.687Z" fill="black"/>
<path d="M408.884 204.616C408.884 240.177 380.059 269.001 344.499 269.001C308.942 269.001 280.115 240.177 280.115 204.616C280.115 169.057 308.942 140.229 344.499 140.229C380.059 140.229 408.884 169.057 408.884 204.616Z" fill="#FEFFFF"/>
<path d="M408.884 204.616C408.884 240.177 380.059 269.001 344.499 269.001C308.942 269.001 280.115 240.177 280.115 204.616C280.115 169.057 308.942 140.229 344.499 140.229C380.059 140.229 408.884 169.057 408.884 204.616Z" stroke="#BB6843" stroke-width="13.3333" stroke-miterlimit="10"/>
<path d="M353.877 196.687L359.531 170.489C355.591 168.991 351.334 168.135 346.866 168.135C327.137 168.135 311.141 184.129 311.141 203.859C311.141 223.591 327.137 239.585 346.866 239.585C366.598 239.585 382.593 223.591 382.593 203.859C382.593 201.689 382.367 199.573 381.995 197.507L353.877 196.687Z" fill="black"/>
</svg>
