<svg width="550" height="550" viewBox="0 0 550 550" fill="none" xmlns="http://www.w3.org/2000/svg">
<path d="M483.332 269.473C474.466 174.38 429.902 75.1106 368.05 22.3332C354.368 59.7319 317.76 86.5065 274.728 86.5065C231.694 86.5065 195.082 59.7319 181.404 22.3332C119.553 75.1106 74.9865 174.38 66.1198 269.473C65.0531 280.916 64.4705 292.3 64.4705 303.532C64.4705 364.237 80.5291 411.083 107.542 445.184C145.958 493.677 206.548 516.38 274.728 516.38C342.905 516.38 403.493 493.677 441.912 445.184C468.924 411.083 484.98 364.236 484.98 303.532C484.98 292.3 484.4 280.916 483.332 269.473Z" fill="#D2B276"/>
<path d="M100.799 406.814C131.727 350.854 117.102 282.822 68.7766 249.731C60.526 261.847 52.8526 274.198 45.922 286.737C8.46864 354.502 -2.50736 416.705 6.60864 471.438C44.2126 467.15 80.1726 444.137 100.799 406.814Z" fill="#583A1E"/>
<path d="M448.652 406.814C417.725 350.854 432.351 282.822 480.676 249.731C488.925 261.847 496.6 274.198 503.531 286.737C540.983 354.502 551.959 416.705 542.843 471.438C505.239 467.15 469.281 444.137 448.652 406.814Z" fill="#583A1E"/>
<path d="M227.455 472.334H226.701C221.27 472.334 216.869 476.735 216.869 482.166C216.869 476.735 212.465 472.334 207.035 472.334H206.281C200.85 472.334 196.447 476.735 196.447 482.166C196.447 476.735 192.045 472.334 186.615 472.334H185.859C180.43 472.334 176.154 476.158 176.154 481.589V518.649C176.154 524.079 180.43 528.334 185.859 528.334H186.615C192.045 528.334 196.447 523.933 196.447 518.502C196.447 523.933 200.85 528.334 206.281 528.334H207.035C212.465 528.334 216.869 523.933 216.869 518.502C216.869 523.933 221.27 528.334 226.701 528.334H227.455C232.886 528.334 237.487 524.079 237.487 518.649V481.589C237.487 476.158 232.886 472.334 227.455 472.334Z" fill="#FCDB66"/>
<path d="M363.592 472.334H362.837C357.405 472.334 353.005 476.735 353.005 482.166C353.005 476.735 348.601 472.334 343.172 472.334H342.416C336.987 472.334 332.584 476.735 332.584 482.166C332.584 476.735 328.18 472.334 322.751 472.334H321.996C316.565 472.334 312.155 476.158 312.155 481.589V518.649C312.155 524.079 316.565 528.334 321.996 528.334H322.751C328.18 528.334 332.584 523.933 332.584 518.502C332.584 523.933 336.987 528.334 342.416 528.334H343.172C348.601 528.334 353.005 523.933 353.005 518.502C353.005 523.933 357.405 528.334 362.837 528.334H363.592C369.021 528.334 373.488 524.079 373.488 518.649V481.589C373.488 476.158 369.021 472.334 363.592 472.334Z" fill="#FCDB66"/>
<path d="M241.583 238.226C249.459 224.048 298.329 224.19 306.456 238.226C311.861 247.564 291.541 303.098 274.02 303.098C256.496 303.098 236.669 247.072 241.583 238.226Z" fill="#583A1E"/>
<path d="M268.181 194.946C268.181 230.506 239.354 259.333 203.794 259.333C168.235 259.333 139.409 230.506 139.409 194.946C139.409 159.389 168.235 130.562 203.794 130.562C239.354 130.562 268.181 159.389 268.181 194.946Z" fill="#FEFFFF"/>
<path d="M268.181 194.946C268.181 230.506 239.354 259.333 203.794 259.333C168.235 259.333 139.409 230.506 139.409 194.946C139.409 159.389 168.235 130.562 203.794 130.562C239.354 130.562 268.181 159.389 268.181 194.946Z" stroke="#F3ECBC" stroke-width="13.3333" stroke-miterlimit="10"/>
<path d="M210.705 187.019L216.361 160.819C212.421 159.321 208.164 158.464 203.697 158.464C183.966 158.464 167.97 174.46 167.97 194.191C167.97 213.921 183.966 229.916 203.697 229.916C223.426 229.916 239.422 213.921 239.422 194.191C239.422 192.019 239.198 189.901 238.825 187.836L210.705 187.019Z" fill="black"/>
<path d="M408.657 194.946C408.657 230.506 379.832 259.333 344.271 259.333C308.713 259.333 279.887 230.506 279.887 194.946C279.887 159.389 308.713 130.562 344.271 130.562C379.832 130.562 408.657 159.389 408.657 194.946Z" fill="#FEFFFF"/>
<path d="M408.657 194.946C408.657 230.506 379.832 259.333 344.271 259.333C308.713 259.333 279.887 230.506 279.887 194.946C279.887 159.389 308.713 130.562 344.271 130.562C379.832 130.562 408.657 159.389 408.657 194.946Z" stroke="#F3ECBC" stroke-width="13.3333" stroke-miterlimit="10"/>
<path d="M353.648 187.019L359.304 160.819C355.364 159.321 351.107 158.464 346.64 158.464C326.91 158.464 310.914 174.46 310.914 194.191C310.914 213.921 326.91 229.916 346.64 229.916C366.371 229.916 382.366 213.921 382.366 194.191C382.366 192.019 382.14 189.901 381.768 187.836L353.648 187.019Z" fill="black"/>
<path d="M233.865 360.401C233.865 374.185 222.692 385.358 208.906 385.358C195.122 385.358 183.948 374.185 183.948 360.401" fill="#583A1E"/>
<path d="M299.665 360.401C299.665 374.185 288.49 385.358 274.705 385.358C260.921 385.358 249.748 374.185 249.748 360.401" fill="#583A1E"/>
<path d="M365.463 360.401C365.463 374.185 354.289 385.358 340.506 385.358C326.721 385.358 315.546 374.185 315.546 360.401" fill="#583A1E"/>
<path d="M202.1 408.048C202.1 421.832 190.927 433.007 177.141 433.007C163.357 433.007 152.183 421.832 152.183 408.048" fill="#583A1E"/>
<path d="M267.9 408.048C267.9 421.832 256.725 433.007 242.941 433.007C229.157 433.007 217.982 421.832 217.982 408.048" fill="#583A1E"/>
<path d="M333.698 408.048C333.698 421.832 322.523 433.007 308.74 433.007C294.955 433.007 283.782 421.832 283.782 408.048" fill="#583A1E"/>
<path d="M397.228 408.048C397.228 421.832 386.056 433.007 372.27 433.007C358.486 433.007 347.312 421.832 347.312 408.048" fill="#583A1E"/>
</svg>
