<?xml version="1.0" encoding="UTF-8" standalone="no"?>
<svg xmlns:dc="http://purl.org/dc/elements/1.1/" xmlns:cc="http://creativecommons.org/ns#"
  xmlns:rdf="http://www.w3.org/1999/02/22-rdf-syntax-ns#" xmlns:svg="http://www.w3.org/2000/svg"
  xmlns="http://www.w3.org/2000/svg" viewBox="1300 712 575 600"
  xml:space="preserve" id="svg2" version="1.1">
  <metadata id="metadata8">
    <rdf:RDF>
      <cc:Work rdf:about="">
        <dc:format>image/svg+xml</dc:format>
        <dc:type rdf:resource="http://purl.org/dc/dcmitype/StillImage" />
      </cc:Work>
    </rdf:RDF>
  </metadata>
  <defs id="defs6">
    <clipPath id="clipPath20" clipPathUnits="userSpaceOnUse">
      <path id="path18" d="M 0,980 H 1400 V 0 H 0 Z" />
    </clipPath>
  </defs>
  <g transform="matrix(1.3333333,0,0,-1.3333333,0,1306.6667)" id="g10">
    <path id="path12" style="fill:transparent;fill-opacity:1;fill-rule:nonzero;stroke:none" d="M 0,0 H 1400 V 980 H 0 Z" />
    <g id="g14">
      <g clip-path="url(#clipPath20)" id="g16">
        <g transform="translate(857.3828,749.1455)" id="g22">
          <path id="path24" style="fill:#d2b276;fill-opacity:1;fill-rule:nonzero;stroke:none"
            d="m 0,0 c -6.649,71.32 -40.072,145.772 -86.461,185.355 -10.262,-28.049 -37.718,-48.13 -69.992,-48.13 -32.275,0 -59.734,20.081 -69.993,48.13 C -272.834,145.772 -306.259,71.32 -312.909,0 c -0.8,-8.582 -1.237,-17.12 -1.237,-25.544 0,-45.529 12.044,-80.663 32.304,-106.239 28.812,-36.37 74.254,-53.397 125.389,-53.397 51.133,0 96.574,17.027 125.388,53.397 20.259,25.576 32.301,60.711 32.301,106.239 C 1.236,-17.12 0.801,-8.582 0,0" />
        </g>
        <g transform="translate(570.4834,646.1401)" id="g26">
          <path id="path28" style="fill:#583a1e;fill-opacity:1;fill-rule:nonzero;stroke:none"
            d="M 0,0 C 23.196,41.97 12.227,92.994 -24.017,117.812 -30.205,108.725 -35.96,99.462 -41.158,90.058 -69.248,39.234 -77.48,-7.418 -70.643,-48.468 -42.44,-45.252 -15.47,-27.992 0,0" />
        </g>
        <g transform="translate(831.373,646.1401)" id="g30">
          <path id="path32" style="fill:#583a1e;fill-opacity:1;fill-rule:nonzero;stroke:none"
            d="M 0,0 C -23.195,41.97 -12.226,92.994 24.018,117.812 30.205,108.725 35.961,99.462 41.159,90.058 69.248,39.234 77.48,-7.418 70.643,-48.468 42.44,-45.252 15.472,-27.992 0,0" />
        </g>
        <g transform="translate(665.4756,597)" id="g34">
          <path id="path36" style="fill:#fcdb66;fill-opacity:1;fill-rule:nonzero;stroke:none"
            d="M 0,0 H -0.566 C -4.639,0 -7.94,-3.301 -7.94,-7.374 -7.94,-3.301 -11.243,0 -15.315,0 h -0.566 c -4.073,0 -7.375,-3.301 -7.375,-7.374 0,4.073 -3.302,7.374 -7.374,7.374 h -0.567 c -4.072,0 -7.279,-2.868 -7.279,-6.941 v -27.795 c 0,-4.073 3.207,-7.264 7.279,-7.264 h 0.567 c 4.072,0 7.374,3.301 7.374,7.374 0,-4.073 3.302,-7.374 7.375,-7.374 h 0.566 c 4.072,0 7.375,3.301 7.375,7.374 0,-4.073 3.301,-7.374 7.374,-7.374 L 0,-42 c 4.073,0 7.524,3.191 7.524,7.264 V -6.941 C 7.524,-2.868 4.073,0 0,0" />
        </g>
        <g transform="translate(767.5781,597)" id="g38">
          <path id="path40" style="fill:#fcdb66;fill-opacity:1;fill-rule:nonzero;stroke:none"
            d="M 0,0 H -0.566 C -4.64,0 -7.94,-3.301 -7.94,-7.374 -7.94,-3.301 -11.243,0 -15.315,0 h -0.567 c -4.072,0 -7.374,-3.301 -7.374,-7.374 0,4.073 -3.303,7.374 -7.375,7.374 h -0.566 c -4.073,0 -7.381,-2.868 -7.381,-6.941 v -27.795 c 0,-4.073 3.308,-7.264 7.381,-7.264 h 0.566 c 4.072,0 7.375,3.301 7.375,7.374 0,-4.073 3.302,-7.374 7.374,-7.374 h 0.567 c 4.072,0 7.375,3.301 7.375,7.374 0,-4.073 3.3,-7.374 7.374,-7.374 L 0,-42 c 4.072,0 7.422,3.191 7.422,7.264 V -6.941 C 7.422,-2.868 4.072,0 0,0" />
        </g>
        <g transform="translate(676.0708,772.5806)" id="g42">
          <path id="path44" style="fill:#583a1e;fill-opacity:1;fill-rule:nonzero;stroke:none"
            d="M 0,0 C 5.907,10.634 42.56,10.527 48.655,0 52.709,-7.003 37.469,-48.654 24.328,-48.654 11.185,-48.654 -3.685,-6.634 0,0" />
        </g>
        <g transform="translate(696.0195,805.041)" id="g46">
          <path id="path48" style="fill:#feffff;fill-opacity:1;fill-rule:nonzero;stroke:none"
            d="m 0,0 c 0,-26.67 -21.62,-48.29 -48.29,-48.29 -26.669,0 -48.289,21.62 -48.289,48.29 0,26.668 21.62,48.288 48.289,48.288 C -21.62,48.288 0,26.668 0,0" />
        </g>
        <g transform="translate(696.0195,805.041)" id="g50">
          <path id="path52"
            style="fill:none;stroke:#f3ecbc;stroke-width:10;stroke-linecap:butt;stroke-linejoin:miter;stroke-miterlimit:10;stroke-dasharray:none;stroke-opacity:1"
            d="m 0,0 c 0,-26.67 -21.62,-48.29 -48.29,-48.29 -26.669,0 -48.289,21.62 -48.289,48.29 0,26.668 21.62,48.288 48.289,48.288 C -21.62,48.288 0,26.668 0,0 Z" />
        </g>
        <g transform="translate(652.9126,810.9863)" id="g54">
          <path id="path56" style="fill:#000000;fill-opacity:1;fill-rule:nonzero;stroke:none"
            d="m 0,0 4.242,19.65 c -2.955,1.123 -6.148,1.766 -9.498,1.766 -14.798,0 -26.795,-11.997 -26.795,-26.795 0,-14.798 11.997,-26.794 26.795,-26.794 14.797,0 26.794,11.996 26.794,26.794 0,1.629 -0.168,3.217 -0.448,4.766 z" />
        </g>
        <g transform="translate(801.377,805.041)" id="g58">
          <path id="path60" style="fill:#feffff;fill-opacity:1;fill-rule:nonzero;stroke:none"
            d="m 0,0 c 0,-26.67 -21.619,-48.29 -48.29,-48.29 -26.668,0 -48.288,21.62 -48.288,48.29 0,26.668 21.62,48.288 48.288,48.288 C -21.619,48.288 0,26.668 0,0" />
        </g>
        <g transform="translate(801.377,805.041)" id="g62">
          <path id="path64"
            style="fill:none;stroke:#f3ecbc;stroke-width:10;stroke-linecap:butt;stroke-linejoin:miter;stroke-miterlimit:10;stroke-dasharray:none;stroke-opacity:1"
            d="m 0,0 c 0,-26.67 -21.619,-48.29 -48.29,-48.29 -26.668,0 -48.288,21.62 -48.288,48.29 0,26.668 21.62,48.288 48.288,48.288 C -21.619,48.288 0,26.668 0,0 Z" />
        </g>
        <g transform="translate(760.1201,810.9863)" id="g66">
          <path id="path68" style="fill:#000000;fill-opacity:1;fill-rule:nonzero;stroke:none"
            d="m 0,0 4.242,19.65 c -2.955,1.123 -6.148,1.766 -9.498,1.766 -14.798,0 -26.795,-11.997 -26.795,-26.795 0,-14.798 11.997,-26.794 26.795,-26.794 14.798,0 26.794,11.996 26.794,26.794 0,1.629 -0.169,3.217 -0.448,4.766 z" />
        </g>
        <g transform="translate(670.2827,680.9497)" id="g70">
          <path id="path72" style="fill:#583a1e;fill-opacity:1;fill-rule:nonzero;stroke:none"
            d="m 0,0 c 0,-10.338 -8.38,-18.718 -18.719,-18.718 -10.338,0 -18.719,8.38 -18.719,18.718" />
        </g>
        <g transform="translate(719.6328,680.9497)" id="g74">
          <path id="path76" style="fill:#583a1e;fill-opacity:1;fill-rule:nonzero;stroke:none"
            d="m 0,0 c 0,-10.338 -8.381,-18.718 -18.72,-18.718 -10.338,0 -18.718,8.38 -18.718,18.718" />
        </g>
        <g transform="translate(768.9814,680.9497)" id="g78">
          <path id="path80" style="fill:#583a1e;fill-opacity:1;fill-rule:nonzero;stroke:none"
            d="m 0,0 c 0,-10.338 -8.381,-18.718 -18.718,-18.718 -10.339,0 -18.72,8.38 -18.72,18.718" />
        </g>
        <g transform="translate(646.459,645.2144)" id="g82">
          <path id="path84" style="fill:#583a1e;fill-opacity:1;fill-rule:nonzero;stroke:none"
            d="m 0,0 c 0,-10.338 -8.38,-18.719 -18.719,-18.719 -10.338,0 -18.719,8.381 -18.719,18.719" />
        </g>
        <g transform="translate(695.8086,645.2144)" id="g86">
          <path id="path88" style="fill:#583a1e;fill-opacity:1;fill-rule:nonzero;stroke:none"
            d="m 0,0 c 0,-10.338 -8.381,-18.719 -18.719,-18.719 -10.338,0 -18.719,8.381 -18.719,18.719" />
        </g>
        <g transform="translate(745.1572,645.2144)" id="g90">
          <path id="path92" style="fill:#583a1e;fill-opacity:1;fill-rule:nonzero;stroke:none"
            d="m 0,0 c 0,-10.338 -8.381,-18.719 -18.718,-18.719 -10.339,0 -18.719,8.381 -18.719,18.719" />
        </g>
        <g transform="translate(792.8047,645.2144)" id="g94">
          <path id="path96" style="fill:#583a1e;fill-opacity:1;fill-rule:nonzero;stroke:none"
            d="m 0,0 c 0,-10.338 -8.379,-18.719 -18.718,-18.719 -10.338,0 -18.719,8.381 -18.719,18.719" />
        </g>
        <g transform="translate(373.4175,749.1455)" id="g98">
          <path id="path100" style="fill:#c4a7ab;fill-opacity:1;fill-rule:nonzero;stroke:none"
            d="m 0,0 c -6.651,71.32 -40.073,145.773 -86.461,185.355 -10.264,-28.048 -42.842,-13.744 -75.115,-13.744 -32.276,0 -54.61,-14.304 -64.87,13.744 C -272.835,145.773 -306.261,71.32 -312.91,0 c -0.8,-8.582 -1.236,-17.12 -1.236,-25.544 0,-45.529 12.043,-80.663 32.303,-106.239 28.812,-36.37 74.255,-53.397 125.389,-53.397 51.133,0 96.575,17.027 125.388,53.397 20.259,25.576 32.302,60.712 32.302,106.239 C 1.236,-17.12 0.799,-8.582 0,0" />
        </g>
        <g transform="translate(117.334,672.4907)" id="g102">
          <path id="path104" style="fill:#583a1e;fill-opacity:1;fill-rule:nonzero;stroke:none"
            d="m 0,0 c -4.163,16.721 -12.512,32.165 -21.31,46.93 -2.181,3.659 -31.272,47.837 -33.524,44.53 -6.188,-9.085 -11.943,-18.348 -17.141,-27.752 -28.09,-50.826 -36.322,-97.477 -29.485,-138.526 10.472,1.193 20.77,4.332 30.376,9.229 1.767,-5.909 3.918,-11.623 6.504,-17.128 10.081,4.114 19.415,10.185 27.52,17.844 4.977,-6.958 10.782,-13.179 17.733,-18.612 2.146,-1.677 17.17,30.054 18.026,32.872 3.901,12.843 5.06,26.646 3.328,39.956 C 1.557,-7.046 0.87,-3.495 0,0" />
        </g>
        <g transform="translate(315.9102,672.4907)" id="g106">
          <path id="path108" style="fill:#583a1e;fill-opacity:1;fill-rule:nonzero;stroke:none"
            d="m 0,0 c 4.163,16.721 12.512,32.165 21.31,46.93 2.181,3.659 31.272,47.837 33.525,44.53 6.187,-9.085 11.942,-18.348 17.141,-27.752 28.089,-50.826 36.322,-97.477 29.483,-138.526 -10.471,1.193 -20.77,4.332 -30.375,9.229 -1.768,-5.909 -3.918,-11.623 -6.504,-17.128 -10.08,4.114 -19.415,10.185 -27.52,17.844 -4.977,-6.958 -10.782,-13.179 -17.733,-18.612 -2.145,-1.677 -17.17,30.054 -18.026,32.872 -3.902,12.843 -5.06,26.646 -3.327,39.956 C -1.557,-7.046 -0.869,-3.495 0,0" />
        </g>
        <g transform="translate(181.5103,597)" id="g110">
          <path id="path112" style="fill:#fbdc74;fill-opacity:1;fill-rule:nonzero;stroke:none"
            d="M 0,0 H -0.568 C -4.64,0 -7.941,-3.3 -7.941,-7.374 -7.941,-3.3 -11.244,0 -15.315,0 h -0.569 c -4.072,0 -7.373,-3.3 -7.373,-7.374 C -23.257,-3.3 -26.56,0 -30.63,0 h -0.569 c -4.072,0 -6.311,-2.868 -6.311,-6.941 v -27.795 c 0,-4.074 2.239,-7.264 6.311,-7.264 h 0.569 c 4.07,0 7.373,3.3 7.373,7.374 0,-4.074 3.301,-7.374 7.373,-7.374 h 0.569 c 4.071,0 7.374,3.3 7.374,7.374 0,-4.074 3.301,-7.374 7.373,-7.374 L 0,-42 c 4.072,0 8.49,3.19 8.49,7.264 V -6.941 C 8.49,-2.868 4.072,0 0,0" />
        </g>
        <g transform="translate(283.6123,597)" id="g114">
          <path id="path116" style="fill:#fbdc74;fill-opacity:1;fill-rule:nonzero;stroke:none"
            d="M 0,0 H -0.568 C -4.64,0 -7.941,-3.3 -7.941,-7.374 -7.941,-3.3 -11.244,0 -15.315,0 h -0.568 c -4.072,0 -7.374,-3.3 -7.374,-7.374 0,4.074 -3.302,7.374 -7.373,7.374 h -0.569 c -4.071,0 -6.413,-2.868 -6.413,-6.941 v -27.795 c 0,-4.074 2.342,-7.264 6.413,-7.264 h 0.569 c 4.071,0 7.373,3.3 7.373,7.374 0,-4.074 3.302,-7.374 7.374,-7.374 h 0.568 c 4.071,0 7.374,3.3 7.374,7.374 0,-4.074 3.301,-7.374 7.373,-7.374 L 0,-42 c 4.072,0 8.388,3.19 8.388,7.264 V -6.941 C 8.388,-2.868 4.072,0 0,0" />
        </g>
        <g transform="translate(192.1045,772.5806)" id="g118">
          <path id="path120" style="fill:#583a1e;fill-opacity:1;fill-rule:nonzero;stroke:none"
            d="M 0,0 C 5.908,10.634 42.559,10.528 48.653,0 52.708,-7.003 37.469,-48.653 24.327,-48.653 11.186,-48.653 -3.685,-6.634 0,0" />
        </g>
        <g transform="translate(212.0532,805.041)" id="g122">
          <path id="path124" style="fill:#feffff;fill-opacity:1;fill-rule:nonzero;stroke:none"
            d="m 0,0 c 0,-26.67 -21.619,-48.29 -48.291,-48.29 -26.669,0 -48.288,21.62 -48.288,48.29 0,26.669 21.619,48.289 48.288,48.289 C -21.619,48.289 0,26.669 0,0" />
        </g>
        <g transform="translate(212.0532,805.041)" id="g126">
          <path id="path128"
            style="fill:none;stroke:#fbdc74;stroke-width:10;stroke-linecap:butt;stroke-linejoin:miter;stroke-miterlimit:10;stroke-dasharray:none;stroke-opacity:1"
            d="m 0,0 c 0,-26.67 -21.619,-48.29 -48.291,-48.29 -26.669,0 -48.288,21.62 -48.288,48.29 0,26.669 21.619,48.289 48.288,48.289 C -21.619,48.289 0,26.669 0,0 Z" />
        </g>
        <g transform="translate(168.9468,810.9868)" id="g130">
          <path id="path132" style="fill:#000000;fill-opacity:1;fill-rule:nonzero;stroke:none"
            d="m 0,0 4.241,19.649 c -2.955,1.124 -6.148,1.765 -9.499,1.765 -14.797,0 -26.793,-11.995 -26.793,-26.793 0,-14.799 11.996,-26.794 26.793,-26.794 14.799,0 26.795,11.995 26.795,26.794 0,1.628 -0.169,3.215 -0.448,4.764 z" />
        </g>
        <g transform="translate(317.4111,805.041)" id="g134">
          <path id="path136" style="fill:#feffff;fill-opacity:1;fill-rule:nonzero;stroke:none"
            d="m 0,0 c 0,-26.67 -21.621,-48.29 -48.29,-48.29 -26.668,0 -48.289,21.62 -48.289,48.29 0,26.669 21.621,48.289 48.289,48.289 C -21.621,48.289 0,26.669 0,0" />
        </g>
        <g transform="translate(317.4111,805.041)" id="g138">
          <path id="path140"
            style="fill:none;stroke:#fbdc74;stroke-width:10;stroke-linecap:butt;stroke-linejoin:miter;stroke-miterlimit:10;stroke-dasharray:none;stroke-opacity:1"
            d="m 0,0 c 0,-26.67 -21.621,-48.29 -48.29,-48.29 -26.668,0 -48.289,21.62 -48.289,48.29 0,26.669 21.621,48.289 48.289,48.289 C -21.621,48.289 0,26.669 0,0 Z" />
        </g>
        <g transform="translate(276.1543,810.9868)" id="g142">
          <path id="path144" style="fill:#000000;fill-opacity:1;fill-rule:nonzero;stroke:none"
            d="m 0,0 4.241,19.649 c -2.954,1.124 -6.149,1.765 -9.499,1.765 -14.797,0 -26.793,-11.995 -26.793,-26.793 0,-14.799 11.996,-26.794 26.793,-26.794 14.799,0 26.796,11.995 26.796,26.794 0,1.628 -0.17,3.215 -0.45,4.764 z" />
        </g>
        <g transform="translate(186.3164,680.9492)" id="g146">
          <path id="path148" style="fill:#583a1e;fill-opacity:1;fill-rule:nonzero;stroke:none"
            d="m 0,0 c 0,-10.336 -8.381,-18.719 -18.719,-18.719 -10.338,0 -18.719,8.383 -18.719,18.719" />
        </g>
        <g transform="translate(235.666,680.9492)" id="g150">
          <path id="path152" style="fill:#583a1e;fill-opacity:1;fill-rule:nonzero;stroke:none"
            d="m 0,0 c 0,-10.336 -8.381,-18.719 -18.719,-18.719 -10.338,0 -18.719,8.383 -18.719,18.719" />
        </g>
        <g transform="translate(285.0151,680.9492)" id="g154">
          <path id="path156" style="fill:#583a1e;fill-opacity:1;fill-rule:nonzero;stroke:none"
            d="m 0,0 c 0,-10.336 -8.38,-18.719 -18.718,-18.719 -10.339,0 -18.72,8.383 -18.72,18.719" />
        </g>
        <g transform="translate(162.4927,645.2134)" id="g158">
          <path id="path160" style="fill:#583a1e;fill-opacity:1;fill-rule:nonzero;stroke:none"
            d="m 0,0 c 0,-10.336 -8.381,-18.719 -18.719,-18.719 -10.338,0 -18.719,8.383 -18.719,18.719" />
        </g>
        <g transform="translate(211.8418,645.2134)" id="g162">
          <path id="path164" style="fill:#583a1e;fill-opacity:1;fill-rule:nonzero;stroke:none"
            d="m 0,0 c 0,-10.336 -8.38,-18.719 -18.719,-18.719 -10.338,0 -18.719,8.383 -18.719,18.719" />
        </g>
        <g transform="translate(261.1914,645.2134)" id="g166">
          <path id="path168" style="fill:#583a1e;fill-opacity:1;fill-rule:nonzero;stroke:none"
            d="m 0,0 c 0,-10.336 -8.38,-18.719 -18.719,-18.719 -10.338,0 -18.719,8.383 -18.719,18.719" />
        </g>
        <g transform="translate(308.8389,645.2134)" id="g170">
          <path id="path172" style="fill:#583a1e;fill-opacity:1;fill-rule:nonzero;stroke:none"
            d="m 0,0 c 0,-10.336 -8.38,-18.719 -18.718,-18.719 -10.339,0 -18.72,8.383 -18.72,18.719" />
        </g>
        <g transform="translate(60.0791,213.7754)" id="g174">
          <path id="path176" style="fill:#42667a;fill-opacity:1;fill-rule:nonzero;stroke:none"
            d="m 0,0 c -0.739,-8.233 -1.149,-16.425 -1.149,-24.509 0,-45.529 12.044,-80.664 32.302,-106.238 4.297,-5.425 8.972,-10.409 13.972,-14.981 C 134.747,-51.997 27.786,-9.152 0,0" />
        </g>
        <g transform="translate(342.0107,83.0283)" id="g178">
          <path id="path180" style="fill:#42667a;fill-opacity:1;fill-rule:nonzero;stroke:none"
            d="m 0,0 c 20.257,25.574 32.302,60.71 32.302,106.238 0,8.348 -0.433,16.806 -1.216,25.308 C 8.043,124.358 -110.136,81.506 -15.342,-16.217 -9.821,-11.314 -4.688,-5.918 0,0" />
        </g>
        <g transform="translate(373.0967,214.5742)" id="g182">
          <path id="path184" style="fill:#768799;fill-opacity:1;fill-rule:nonzero;stroke:none"
            d="m 0,0 c -0.008,0.08 -0.013,0.157 -0.02,0.235 -6.65,71.321 -40.073,145.774 -86.461,185.356 -10.264,-28.049 -37.72,-48.131 -69.993,-48.131 -32.276,0 -59.733,20.082 -69.992,48.131 -46.388,-39.582 -79.814,-114.035 -86.465,-185.356 -0.033,-0.345 -0.055,-0.689 -0.087,-1.034 27.787,-9.152 134.747,-51.997 45.125,-145.727 28.531,-26.08 67.911,-38.418 111.419,-38.418 42.812,0 81.632,11.947 110.046,37.181 C -141.222,-50.04 -23.042,-7.188 0,0" />
        </g>
        <g transform="translate(181.1831,63)" id="g186">
          <path id="path188" style="fill:#fcdb66;fill-opacity:1;fill-rule:nonzero;stroke:none"
            d="M 0,0 H -0.569 C -4.64,0 -7.94,-3.3 -7.94,-7.374 -7.94,-3.3 -11.244,0 -15.316,0 h -0.568 c -4.072,0 -7.371,-3.3 -7.371,-7.374 0,4.074 -3.305,7.374 -7.376,7.374 h -0.568 c -4.072,0 -7.984,-3.202 -7.984,-7.276 v -27.795 c 0,-4.075 3.912,-6.929 7.984,-6.929 h 0.568 c 4.071,0 7.376,3.299 7.376,7.373 0,-4.074 3.299,-7.373 7.371,-7.373 h 0.568 c 4.072,0 7.376,3.299 7.376,7.373 0,-4.074 3.3,-7.373 7.371,-7.373 H 0 c 4.071,0 6.817,2.854 6.817,6.929 V -7.276 C 6.817,-3.202 4.071,0 0,0" />
        </g>
        <g transform="translate(283.2852,63)" id="g190">
          <path id="path192" style="fill:#fcdb66;fill-opacity:1;fill-rule:nonzero;stroke:none"
            d="M 0,0 H -0.568 C -4.64,0 -7.94,-3.3 -7.94,-7.374 -7.94,-3.3 -11.244,0 -15.315,0 h -0.569 c -4.071,0 -7.372,-3.3 -7.372,-7.374 0,4.074 -3.303,7.374 -7.375,7.374 h -0.568 c -4.072,0 -8.086,-3.202 -8.086,-7.276 v -27.795 c 0,-4.075 4.014,-6.929 8.086,-6.929 h 0.568 c 4.072,0 7.375,3.299 7.375,7.373 0,-4.074 3.301,-7.373 7.372,-7.373 h 0.569 c 4.071,0 7.375,3.299 7.375,7.373 0,-4.074 3.3,-7.373 7.372,-7.373 H 0 c 4.071,0 6.715,2.854 6.715,6.929 V -7.276 C 6.715,-3.202 4.071,0 0,0" />
        </g>
        <g transform="translate(191.7705,238.2451)" id="g194">
          <path id="path196" style="fill:#583a1e;fill-opacity:1;fill-rule:nonzero;stroke:none"
            d="M 0,0 C 5.908,10.634 42.56,10.527 48.653,0 52.708,-7.003 37.469,-48.653 24.327,-48.653 11.186,-48.653 -3.685,-6.634 0,0" />
        </g>
        <g transform="translate(211.7188,270.7051)" id="g198">
          <path id="path200" style="fill:#feffff;fill-opacity:1;fill-rule:nonzero;stroke:none"
            d="m 0,0 c 0,-26.671 -21.619,-48.289 -48.291,-48.289 -26.669,0 -48.287,21.618 -48.287,48.289 0,26.669 21.618,48.29 48.287,48.29 C -21.619,48.29 0,26.669 0,0" />
        </g>
        <g transform="translate(211.7188,270.7051)" id="g202">
          <path id="path204"
            style="fill:none;stroke:#42667a;stroke-width:10;stroke-linecap:butt;stroke-linejoin:miter;stroke-miterlimit:10;stroke-dasharray:none;stroke-opacity:1"
            d="m 0,0 c 0,-26.671 -21.619,-48.289 -48.291,-48.289 -26.669,0 -48.287,21.618 -48.287,48.289 0,26.669 21.618,48.29 48.287,48.29 C -21.619,48.29 0,26.669 0,0 Z" />
        </g>
        <g transform="translate(168.6128,276.6514)" id="g206">
          <path id="path208" style="fill:#000000;fill-opacity:1;fill-rule:nonzero;stroke:none"
            d="m 0,0 4.241,19.649 c -2.954,1.123 -6.149,1.765 -9.499,1.765 -14.797,0 -26.794,-11.995 -26.794,-26.793 0,-14.799 11.997,-26.794 26.794,-26.794 14.799,0 26.795,11.995 26.795,26.794 0,1.628 -0.169,3.215 -0.449,4.764 z" />
        </g>
        <g transform="translate(317.0771,270.7051)" id="g210">
          <path id="path212" style="fill:#feffff;fill-opacity:1;fill-rule:nonzero;stroke:none"
            d="m 0,0 c 0,-26.671 -21.621,-48.289 -48.29,-48.289 -26.668,0 -48.289,21.618 -48.289,48.289 0,26.669 21.621,48.29 48.289,48.29 C -21.621,48.29 0,26.669 0,0" />
        </g>
        <g transform="translate(317.0771,270.7051)" id="g214">
          <path id="path216"
            style="fill:none;stroke:#42667a;stroke-width:10;stroke-linecap:butt;stroke-linejoin:miter;stroke-miterlimit:10;stroke-dasharray:none;stroke-opacity:1"
            d="m 0,0 c 0,-26.671 -21.621,-48.289 -48.29,-48.289 -26.668,0 -48.289,21.618 -48.289,48.289 0,26.669 21.621,48.29 48.289,48.29 C -21.621,48.29 0,26.669 0,0 Z" />
        </g>
        <g transform="translate(275.8208,276.6514)" id="g218">
          <path id="path220" style="fill:#000000;fill-opacity:1;fill-rule:nonzero;stroke:none"
            d="m 0,0 4.241,19.649 c -2.955,1.123 -6.149,1.765 -9.499,1.765 -14.797,0 -26.794,-11.995 -26.794,-26.793 0,-14.799 11.997,-26.794 26.794,-26.794 14.798,0 26.795,11.995 26.795,26.794 0,1.628 -0.17,3.215 -0.449,4.764 z" />
        </g>
        <g transform="translate(345.9424,384.0811)" id="g222">
          <path id="path224" style="fill:#b0becc;fill-opacity:1;fill-rule:nonzero;stroke:none"
            d="m 0,0 c -4.458,-8.122 -12.688,-14.258 -21.876,-18.857 4.533,16.805 -11.874,42.184 -11.874,42.184 0,-29.495 -32.829,-54.93 -32.829,-54.93 C 4.539,-84.447 0,0 0,0" />
        </g>
        <g transform="translate(82.0254,384.0811)" id="g226">
          <path id="path228" style="fill:#b0becc;fill-opacity:1;fill-rule:nonzero;stroke:none"
            d="m 0,0 c 4.459,-8.122 12.688,-14.258 21.876,-18.857 -4.533,16.805 11.874,42.184 11.874,42.184 0,-29.495 32.829,-54.93 32.829,-54.93 C -4.539,-84.447 0,0 0,0" />
        </g>
        <g transform="translate(216.6133,160.0947)" id="g230">
          <path id="path232" style="fill:#b0becc;fill-opacity:1;fill-rule:nonzero;stroke:none"
            d="M 0,0 C 1.761,-6.097 2.675,-12.196 3.333,-18.294 3.958,-24.391 4.247,-30.489 4.252,-36.586 4.259,-42.685 3.968,-48.783 3.345,-54.88 2.69,-60.978 1.773,-67.077 0,-73.174 c -1.773,6.097 -2.691,12.196 -3.345,18.294 -0.624,6.097 -0.915,12.195 -0.908,18.294 0.005,6.097 0.294,12.195 0.92,18.292 C -2.676,-12.196 -1.762,-6.097 0,0" />
        </g>
        <g transform="translate(180.8774,160.0947)" id="g234">
          <path id="path236" style="fill:#b0becc;fill-opacity:1;fill-rule:nonzero;stroke:none"
            d="M 0,0 C 1.761,-6.097 2.675,-12.196 3.333,-18.294 3.958,-24.391 4.247,-30.489 4.252,-36.586 4.259,-42.685 3.968,-48.783 3.345,-54.88 2.69,-60.978 1.773,-67.077 0,-73.174 c -1.773,6.097 -2.691,12.196 -3.345,18.294 -0.624,6.097 -0.914,12.195 -0.907,18.294 0.004,6.097 0.293,12.195 0.918,18.292 C -2.676,-12.196 -1.762,-6.097 0,0" />
        </g>
        <g transform="translate(252.3491,160.0947)" id="g238">
          <path id="path240" style="fill:#b0becc;fill-opacity:1;fill-rule:nonzero;stroke:none"
            d="M 0,0 C 1.761,-6.097 2.675,-12.196 3.333,-18.294 3.958,-24.391 4.247,-30.489 4.252,-36.586 4.259,-42.685 3.968,-48.783 3.345,-54.88 2.69,-60.978 1.772,-67.077 0,-73.174 c -1.773,6.097 -2.691,12.196 -3.345,18.294 -0.624,6.097 -0.915,12.195 -0.908,18.294 0.005,6.097 0.294,12.195 0.919,18.292 C -2.676,-12.196 -1.762,-6.097 0,0" />
        </g>
        <g transform="translate(644.4448,402.9102)" id="g242">
          <path id="path244" style="fill:#c38252;fill-opacity:1;fill-rule:nonzero;stroke:none"
            d="m 0,0 c -31.199,7.319 -77.713,16.316 -100.628,11.306 0,0 0,-28.387 39.486,-41.891 -0.257,-0.425 -0.505,-0.877 -0.761,-1.311 14.792,11.373 36.414,24.13 65.358,31.718 C 2.3,-0.119 1.14,-0.062 0,0" />
        </g>
        <g transform="translate(857.3877,213.1084)" id="g246">
          <path id="path248" style="fill:#cea589;fill-opacity:1;fill-rule:nonzero;stroke:none"
            d="m 0,0 c -4.532,48.6 -15.655,124.213 -40.939,162.564 0.018,0.008 0.037,0.019 0.054,0.027 -15.445,10.782 -36.831,21.972 -64.518,28.382 -2.179,-0.497 -4.302,-0.99 -6.351,-1.474 -35.478,-1.826 -68.907,-1.34 -97.734,0.125 -28.944,-7.588 -50.566,-20.346 -65.358,-31.718 -23.255,-39.55 -33.71,-111.194 -38.065,-157.906 -0.8,-8.581 -1.237,-17.12 -1.237,-25.543 0,-45.529 12.045,-80.664 32.304,-106.24 15.643,-19.745 35.992,-33.777 59.686,-42.49 -0.006,0.509 -0.23,1.014 -0.23,1.528 v 124.88 c 0,42.27 27.253,75.757 60.377,75.757 h 12.782 c 33.125,0 60.841,-33.487 60.841,-75.757 v -124.88 c 0,-0.306 -0.447,-0.606 -0.451,-0.911 22.988,8.753 42.717,22.594 57.99,41.873 20.258,25.576 32.194,60.712 32.194,106.24 C 1.345,-17.12 0.799,-8.581 0,0" />
        </g>
        <g transform="translate(847.5479,414.2158)" id="g250">
          <path id="path252" style="fill:#c38252;fill-opacity:1;fill-rule:nonzero;stroke:none"
            d="m 0,0 c -21.704,4.746 -64.582,-3.077 -95.563,-10.135 27.687,-6.409 49.073,-17.599 64.518,-28.382 C -0.008,-24.175 0,0 0,0" />
        </g>
        <g transform="translate(769,165.2432)" id="g254">
          <path id="path256" style="fill:#dbb7a9;fill-opacity:1;fill-rule:nonzero;stroke:none"
            d="M 0,0 C 0,42.271 -27.717,75.757 -60.841,75.757 H -73.624 C -106.747,75.757 -134,42.271 -134,0 v -124.88 c 0,-0.514 0.224,-1.018 0.229,-1.528 19.954,-7.337 42.231,-10.906 65.604,-10.906 24.029,0 47.286,3.761 67.666,11.523 0.004,0.306 0.501,0.605 0.501,0.911 z" />
        </g>
        <g transform="translate(544.3833,213.7754)" id="g258">
          <path id="path260" style="fill:#c38252;fill-opacity:1;fill-rule:nonzero;stroke:none"
            d="m 0,0 c -0.739,-8.233 -1.15,-16.425 -1.15,-24.509 0,-45.529 12.045,-80.664 32.302,-106.238 4.298,-5.425 8.973,-10.409 13.973,-14.981 C 134.747,-51.997 27.786,-9.152 0,0" />
        </g>
        <g transform="translate(826.3145,83.0283)" id="g262">
          <path id="path264" style="fill:#c38252;fill-opacity:1;fill-rule:nonzero;stroke:none"
            d="m 0,0 c 20.258,25.574 32.303,60.71 32.303,106.238 0,8.348 -0.434,16.806 -1.217,25.308 C 8.043,124.358 -110.136,81.506 -15.342,-16.217 -9.821,-11.314 -4.688,-5.918 0,0" />
        </g>
        <g transform="translate(665.4868,63)" id="g266">
          <path id="path268" style="fill:#fcdb66;fill-opacity:1;fill-rule:nonzero;stroke:none"
            d="M 0,0 H -0.568 C -4.64,0 -7.94,-3.3 -7.94,-7.374 -7.94,-3.3 -11.244,0 -15.315,0 h -0.568 c -4.072,0 -7.372,-3.3 -7.372,-7.374 C -23.255,-3.3 -26.56,0 -30.63,0 h -0.569 c -4.072,0 -7.288,-3.202 -7.288,-7.276 v -27.795 c 0,-4.075 3.216,-6.929 7.288,-6.929 h 0.569 c 4.07,0 7.375,3.299 7.375,7.373 0,-4.074 3.3,-7.373 7.372,-7.373 h 0.568 c 4.071,0 7.375,3.299 7.375,7.373 0,-4.074 3.3,-7.373 7.372,-7.373 H 0 c 4.072,0 7.513,2.854 7.513,6.929 V -7.276 C 7.513,-3.202 4.072,0 0,0" />
        </g>
        <g transform="translate(767.5889,63)" id="g270">
          <path id="path272" style="fill:#fcdb66;fill-opacity:1;fill-rule:nonzero;stroke:none"
            d="M 0,0 H -0.567 C -4.64,0 -7.94,-3.3 -7.94,-7.374 -7.94,-3.3 -11.244,0 -15.314,0 h -0.569 c -4.072,0 -7.373,-3.3 -7.373,-7.374 C -23.256,-3.3 -26.56,0 -30.63,0 h -0.568 c -4.073,0 -7.391,-3.202 -7.391,-7.276 v -27.795 c 0,-4.075 3.318,-6.929 7.391,-6.929 h 0.568 c 4.07,0 7.374,3.299 7.374,7.373 0,-4.074 3.301,-7.373 7.373,-7.373 h 0.569 c 4.07,0 7.374,3.299 7.374,7.373 0,-4.074 3.3,-7.373 7.373,-7.373 H 0 c 4.071,0 7.411,2.854 7.411,6.929 V -7.276 C 7.411,-3.202 4.071,0 0,0" />
        </g>
        <g transform="translate(676.0742,238.2451)" id="g274">
          <path id="path276" style="fill:#583a1e;fill-opacity:1;fill-rule:nonzero;stroke:none"
            d="M 0,0 C 5.908,10.634 42.56,10.527 48.653,0 52.708,-7.003 37.469,-48.653 24.327,-48.653 11.186,-48.653 -3.685,-6.634 0,0" />
        </g>
        <g transform="translate(696.0229,270.7051)" id="g278">
          <path id="path280" style="fill:#feffff;fill-opacity:1;fill-rule:nonzero;stroke:none"
            d="m 0,0 c 0,-26.671 -21.619,-48.289 -48.291,-48.289 -26.669,0 -48.288,21.618 -48.288,48.289 0,26.669 21.619,48.29 48.288,48.29 C -21.619,48.29 0,26.669 0,0" />
        </g>
        <g transform="translate(696.0229,270.7051)" id="g282">
          <path id="path284"
            style="fill:none;stroke:#bb6843;stroke-width:10;stroke-linecap:butt;stroke-linejoin:miter;stroke-miterlimit:10;stroke-dasharray:none;stroke-opacity:1"
            d="m 0,0 c 0,-26.671 -21.619,-48.289 -48.291,-48.289 -26.669,0 -48.288,21.618 -48.288,48.289 0,26.669 21.619,48.29 48.288,48.29 C -21.619,48.29 0,26.669 0,0 Z" />
        </g>
        <g transform="translate(652.9165,276.6514)" id="g286">
          <path id="path288" style="fill:#000000;fill-opacity:1;fill-rule:nonzero;stroke:none"
            d="m 0,0 4.241,19.649 c -2.954,1.123 -6.148,1.765 -9.499,1.765 -14.797,0 -26.793,-11.995 -26.793,-26.793 0,-14.799 11.996,-26.794 26.793,-26.794 14.799,0 26.795,11.995 26.795,26.794 0,1.628 -0.169,3.215 -0.449,4.764 z" />
        </g>
        <g transform="translate(801.3799,270.7051)" id="g290">
          <path id="path292" style="fill:#feffff;fill-opacity:1;fill-rule:nonzero;stroke:none"
            d="m 0,0 c 0,-26.671 -21.619,-48.289 -48.289,-48.289 -26.668,0 -48.288,21.618 -48.288,48.289 0,26.669 21.62,48.29 48.288,48.29 C -21.619,48.29 0,26.669 0,0" />
        </g>
        <g transform="translate(801.3799,270.7051)" id="g294">
          <path id="path296"
            style="fill:none;stroke:#bb6843;stroke-width:10;stroke-linecap:butt;stroke-linejoin:miter;stroke-miterlimit:10;stroke-dasharray:none;stroke-opacity:1"
            d="m 0,0 c 0,-26.671 -21.619,-48.289 -48.289,-48.289 -26.668,0 -48.288,21.618 -48.288,48.289 0,26.669 21.62,48.29 48.288,48.29 C -21.619,48.29 0,26.669 0,0 Z" />
        </g>
        <g transform="translate(760.124,276.6514)" id="g298">
          <path id="path300" style="fill:#000000;fill-opacity:1;fill-rule:nonzero;stroke:none"
            d="m 0,0 4.241,19.649 c -2.955,1.123 -6.148,1.765 -9.499,1.765 -14.797,0 -26.794,-11.995 -26.794,-26.793 0,-14.799 11.997,-26.794 26.794,-26.794 14.799,0 26.795,11.995 26.795,26.794 0,1.628 -0.169,3.215 -0.448,4.764 z" />
        </g>
        <g transform="translate(1341.8633,752.5488)" id="g302">
          <path id="path304" style="fill:#9c7463;fill-opacity:1;fill-rule:nonzero;stroke:none"
            d="m 0,0 c -4.533,48.6 -15.654,124.213 -40.94,162.564 0.019,0.009 0.036,0.019 0.056,0.027 -15.445,10.782 -36.833,20.271 -64.519,26.68 -2.18,-0.497 -4.304,0.712 -6.351,0.229 -35.48,-1.827 -68.906,-1.34 -97.734,0.124 -28.945,-7.588 -50.567,-20.346 -65.358,-31.718 C -298.103,118.356 -308.557,46.712 -312.912,0 c -0.799,-8.582 -1.236,-17.12 -1.236,-25.543 0,-45.53 12.044,-80.664 32.303,-106.239 15.643,-19.746 36.255,-33.777 59.95,-42.491 -0.005,0.51 0.032,1.015 0.032,1.528 v 124.879 c 0,42.271 26.728,77.317 59.852,77.317 h 12.782 c 33.125,0 60.366,-35.046 60.366,-77.317 v -124.879 c 0,-0.305 -0.211,-0.606 -0.213,-0.91 22.986,8.752 42.835,22.594 58.106,41.873 20.261,25.575 32.254,60.711 32.254,106.239 C 1.284,-17.12 0.798,-8.582 0,0" />
        </g>
        <g transform="translate(1253,704.6831)" id="g306">
          <path id="path308" style="fill:#ba8e7f;fill-opacity:1;fill-rule:nonzero;stroke:none"
            d="M 0,0 C 0,42.271 -27.241,77.317 -60.365,77.317 H -73.147 C -106.271,77.317 -133,42.271 -133,0 v -124.879 c 0,-0.514 -0.037,-1.018 -0.031,-1.529 19.949,-7.337 42.098,-10.906 65.47,-10.906 24.031,0 46.982,3.762 67.363,11.524 0.003,0.305 0.198,0.605 0.198,0.911 z" />
        </g>
        <g transform="translate(1054.959,646.1411)" id="g310">
          <path id="path312" style="fill:#583a1e;fill-opacity:1;fill-rule:nonzero;stroke:none"
            d="M 0,0 C 23.195,41.969 12.226,92.992 -24.018,117.81 -30.205,108.724 -35.961,99.461 -41.159,90.057 -69.248,39.232 -77.48,-7.419 -70.644,-48.469 -42.44,-45.253 -15.472,-27.992 0,0" />
        </g>
        <g transform="translate(1315.8496,646.1411)" id="g314">
          <path id="path316" style="fill:#583a1e;fill-opacity:1;fill-rule:nonzero;stroke:none"
            d="M 0,0 C -23.196,41.969 -12.229,92.992 24.017,117.81 30.205,108.724 35.958,99.461 41.156,90.057 69.248,39.232 77.48,-7.419 70.641,-48.469 42.439,-45.253 15.468,-27.992 0,0" />
        </g>
        <g transform="translate(1149.9492,597)" id="g318">
          <path id="path320" style="fill:#fcdb66;fill-opacity:1;fill-rule:nonzero;stroke:none"
            d="M 0,0 H -0.564 C -4.637,0 -7.94,-3.3 -7.94,-7.374 -7.94,-3.3 -11.241,0 -15.314,0 h -0.566 c -4.073,0 -7.375,-3.3 -7.375,-7.374 0,4.074 -3.302,7.374 -7.374,7.374 h -0.566 c -4.073,0 -6.754,-2.868 -6.754,-6.941 v -27.795 c 0,-4.074 2.681,-7.264 6.754,-7.264 h 0.566 c 4.072,0 7.374,3.3 7.374,7.374 0,-4.074 3.302,-7.374 7.375,-7.374 h 0.566 c 4.073,0 7.374,3.3 7.374,7.374 0,-4.074 3.303,-7.374 7.376,-7.374 L 0,-42 c 4.074,0 8.051,3.19 8.051,7.264 V -6.941 C 8.051,-2.868 4.074,0 0,0" />
        </g>
        <g transform="translate(1252.0508,597)" id="g322">
          <path id="path324" style="fill:#fcdb66;fill-opacity:1;fill-rule:nonzero;stroke:none"
            d="M 0,0 H -0.563 C -4.636,0 -7.939,-3.3 -7.939,-7.374 -7.939,-3.3 -11.24,0 -15.314,0 h -0.565 c -4.072,0 -7.376,-3.3 -7.376,-7.374 0,4.074 -3.301,7.374 -7.376,7.374 h -0.563 c -4.073,0 -6.857,-2.868 -6.857,-6.941 v -27.795 c 0,-4.074 2.784,-7.264 6.857,-7.264 h 0.563 c 4.075,0 7.376,3.3 7.376,7.374 0,-4.074 3.304,-7.374 7.376,-7.374 h 0.565 c 4.074,0 7.375,3.3 7.375,7.374 0,-4.074 3.303,-7.374 7.376,-7.374 L 0,-42 c 4.075,0 7.949,3.19 7.949,7.264 V -6.941 C 7.949,-2.868 4.075,0 0,0" />
        </g>
        <g transform="translate(1161.5557,772.5806)" id="g326">
          <path id="path328" style="fill:#583a1e;fill-opacity:1;fill-rule:nonzero;stroke:none"
            d="M 0,0 C 5.906,10.634 42.56,10.528 48.655,0 52.71,-7.003 37.471,-48.653 24.329,-48.653 11.184,-48.653 -3.686,-6.634 0,0" />
        </g>
        <g transform="translate(1181.5039,805.041)" id="g330">
          <path id="path332" style="fill:#feffff;fill-opacity:1;fill-rule:nonzero;stroke:none"
            d="m 0,0 c 0,-26.67 -21.62,-48.29 -48.289,-48.29 -26.67,0 -48.289,21.62 -48.289,48.29 0,26.669 21.619,48.289 48.289,48.289 C -21.62,48.289 0,26.669 0,0" />
        </g>
        <g transform="translate(1181.5039,805.041)" id="g334">
          <path id="path336"
            style="fill:none;stroke:#6d4727;stroke-width:10;stroke-linecap:butt;stroke-linejoin:miter;stroke-miterlimit:10;stroke-dasharray:none;stroke-opacity:1"
            d="m 0,0 c 0,-26.67 -21.62,-48.29 -48.289,-48.29 -26.67,0 -48.289,21.62 -48.289,48.29 0,26.669 21.619,48.289 48.289,48.289 C -21.62,48.289 0,26.669 0,0 Z" />
        </g>
        <g transform="translate(1138.3965,810.9868)" id="g338">
          <path id="path340" style="fill:#000000;fill-opacity:1;fill-rule:nonzero;stroke:none"
            d="m 0,0 4.245,19.649 c -2.955,1.124 -6.15,1.765 -9.499,1.765 -14.799,0 -26.796,-11.995 -26.796,-26.793 0,-14.799 11.997,-26.794 26.796,-26.794 14.797,0 26.794,11.995 26.794,26.794 0,1.628 -0.17,3.215 -0.448,4.764 z" />
        </g>
        <g transform="translate(1286.8633,805.041)" id="g342">
          <path id="path344" style="fill:#feffff;fill-opacity:1;fill-rule:nonzero;stroke:none"
            d="m 0,0 c 0,-26.67 -21.62,-48.29 -48.293,-48.29 -26.668,0 -48.285,21.62 -48.285,48.29 0,26.669 21.617,48.289 48.285,48.289 C -21.62,48.289 0,26.669 0,0" />
        </g>
        <g transform="translate(1286.8633,805.041)" id="g346">
          <path id="path348"
            style="fill:none;stroke:#6d4727;stroke-width:10;stroke-linecap:butt;stroke-linejoin:miter;stroke-miterlimit:10;stroke-dasharray:none;stroke-opacity:1"
            d="m 0,0 c 0,-26.67 -21.62,-48.29 -48.293,-48.29 -26.668,0 -48.285,21.62 -48.285,48.29 0,26.669 21.617,48.289 48.285,48.289 C -21.62,48.289 0,26.669 0,0 Z" />
        </g>
        <g transform="translate(1245.6035,810.9868)" id="g350">
          <path id="path352" style="fill:#000000;fill-opacity:1;fill-rule:nonzero;stroke:none"
            d="m 0,0 4.245,19.649 c -2.955,1.124 -6.149,1.765 -9.499,1.765 -14.797,0 -26.796,-11.995 -26.796,-26.793 0,-14.799 11.999,-26.794 26.796,-26.794 14.797,0 26.794,11.995 26.794,26.794 0,1.628 -0.169,3.215 -0.448,4.764 z" />
        </g>
        <g transform="translate(1207.375,941.2422)" id="g354">
          <path id="path356" style="fill:#583a1e;fill-opacity:1;fill-rule:nonzero;stroke:none"
            d="m 0,0 c 0,0 27.695,7.307 66.107,-6.476 32.522,-11.671 88.825,4.595 103.375,13.783 0,0 5.461,-44.475 -32.926,-31.393 0,0 22.972,-21.441 10.721,-27.567 -12.254,-6.127 -29.101,13.783 -29.101,13.783 0,0 17.611,-27.61 -15.316,-14.955 C 69.937,-40.168 0,0 0,0" />
        </g>
        <g transform="translate(1164.4102,941.2422)" id="g358">
          <path id="path360" style="fill:#583a1e;fill-opacity:1;fill-rule:nonzero;stroke:none"
            d="m 0,0 c 0,0 -27.695,7.307 -66.104,-6.476 -32.522,-11.671 -88.825,4.595 -103.375,13.783 0,0 -5.463,-44.475 32.927,-31.393 0,0 -22.975,-21.441 -10.722,-27.567 12.253,-6.127 29.1,13.783 29.1,13.783 0,0 -17.612,-27.61 15.316,-14.955 C -69.933,-40.168 0,0 0,0" />
        </g>
        <g transform="translate(1341.8799,214.5742)" id="g362">
          <path id="path364" style="fill:#d8a7a0;fill-opacity:1;fill-rule:nonzero;stroke:none"
            d="m 0,0 c -0.011,0.08 -0.014,0.157 -0.02,0.235 -6.415,68.792 -37.744,116.661 -81.583,157.179 -7.637,12.793 -38.153,15.283 -74.662,15.283 -35.623,0 -65.561,-2.363 -74.086,-14.364 -44.361,-40.346 -76.119,-88.785 -82.582,-158.098 -0.033,-0.345 -0.055,-0.689 -0.087,-1.034 27.787,-9.152 134.749,-51.997 45.127,-145.727 28.53,-26.08 67.91,-38.418 111.418,-38.418 42.813,0 81.633,11.947 110.047,37.181 C -141.222,-50.04 -23.043,-7.188 0,0" />
        </g>
        <g transform="translate(1028.8604,213.7754)" id="g366">
          <path id="path368" style="fill:#d8a7a0;fill-opacity:1;fill-rule:nonzero;stroke:none"
            d="m 0,0 c -0.739,-8.233 -1.149,-16.425 -1.149,-24.509 0,-45.529 12.044,-80.664 32.302,-106.238 4.298,-5.425 8.972,-10.409 13.974,-14.981 C 134.749,-51.997 27.786,-9.152 0,0" />
        </g>
        <g transform="translate(1310.793,83.0283)" id="g370">
          <path id="path372" style="fill:#d8a7a0;fill-opacity:1;fill-rule:nonzero;stroke:none"
            d="m 0,0 c 20.258,25.574 32.303,60.71 32.303,106.238 0,8.348 -0.435,16.806 -1.216,25.308 C 8.044,124.358 -110.135,81.506 -15.341,-16.217 -9.82,-11.314 -4.688,-5.918 0,0" />
        </g>
        <g transform="translate(1149.9658,63)" id="g374">
          <path id="path376" style="fill:#fcdb66;fill-opacity:1;fill-rule:nonzero;stroke:none"
            d="M 0,0 H -0.568 C -4.64,0 -7.94,-3.3 -7.94,-7.374 -7.94,-3.3 -11.244,0 -15.315,0 h -0.569 c -4.071,0 -7.372,-3.3 -7.372,-7.374 0,4.074 -3.305,7.374 -7.376,7.374 H -31.2 c -4.071,0 -8.766,-3.202 -8.766,-7.276 v -27.795 c 0,-4.075 4.695,-6.929 8.766,-6.929 h 0.568 c 4.071,0 7.376,3.299 7.376,7.373 0,-4.074 3.301,-7.373 7.372,-7.373 h 0.569 c 4.071,0 7.375,3.299 7.375,7.373 0,-4.074 3.3,-7.373 7.372,-7.373 H 0 c 4.072,0 6.034,2.854 6.034,6.929 V -7.276 C 6.034,-3.202 4.072,0 0,0" />
        </g>
        <g transform="translate(1252.0684,63)" id="g378">
          <path id="path380" style="fill:#fcdb66;fill-opacity:1;fill-rule:nonzero;stroke:none"
            d="M 0,0 H -0.568 C -4.641,0 -7.939,-3.3 -7.939,-7.374 -7.939,-3.3 -11.244,0 -15.315,0 h -0.569 c -4.071,0 -7.372,-3.3 -7.372,-7.374 0,4.074 -3.304,7.374 -7.375,7.374 h -0.568 c -4.072,0 -8.869,-3.202 -8.869,-7.276 v -27.795 c 0,-4.075 4.797,-6.929 8.869,-6.929 h 0.568 c 4.071,0 7.375,3.299 7.375,7.373 0,-4.074 3.301,-7.373 7.372,-7.373 h 0.569 c 4.071,0 7.376,3.299 7.376,7.373 0,-4.074 3.298,-7.373 7.371,-7.373 H 0 c 4.071,0 5.932,2.854 5.932,6.929 V -7.276 C 5.932,-3.202 4.071,0 0,0" />
        </g>
        <g transform="translate(1160.5518,238.2451)" id="g382">
          <path id="path384" style="fill:#583a1e;fill-opacity:1;fill-rule:nonzero;stroke:none"
            d="M 0,0 C 5.909,10.634 42.559,10.527 48.654,0 52.71,-7.003 37.471,-48.653 24.329,-48.653 11.188,-48.653 -3.683,-6.634 0,0" />
        </g>
        <g transform="translate(1180.5,270.7051)" id="g386">
          <path id="path388" style="fill:#feffff;fill-opacity:1;fill-rule:nonzero;stroke:none"
            d="m 0,0 c 0,-26.671 -21.616,-48.289 -48.29,-48.289 -26.668,0 -48.289,21.618 -48.289,48.289 0,26.669 21.621,48.29 48.289,48.29 C -21.616,48.29 0,26.669 0,0" />
        </g>
        <g transform="translate(1180.5,270.7051)" id="g390">
          <path id="path392"
            style="fill:none;stroke:#937980;stroke-width:10;stroke-linecap:butt;stroke-linejoin:miter;stroke-miterlimit:10;stroke-dasharray:none;stroke-opacity:1"
            d="m 0,0 c 0,-26.671 -21.616,-48.289 -48.29,-48.289 -26.668,0 -48.289,21.618 -48.289,48.289 0,26.669 21.621,48.29 48.289,48.29 C -21.616,48.29 0,26.669 0,0 Z" />
        </g>
        <g transform="translate(1137.3965,276.6514)" id="g394">
          <path id="path396" style="fill:#000000;fill-opacity:1;fill-rule:nonzero;stroke:none"
            d="m 0,0 4.24,19.649 c -2.955,1.123 -6.148,1.765 -9.5,1.765 -14.797,0 -26.794,-11.995 -26.794,-26.793 0,-14.799 11.997,-26.794 26.794,-26.794 14.798,0 26.797,11.995 26.797,26.794 0,1.628 -0.17,3.215 -0.449,4.764 z" />
        </g>
        <g transform="translate(1285.8594,270.7051)" id="g398">
          <path id="path400" style="fill:#feffff;fill-opacity:1;fill-rule:nonzero;stroke:none"
            d="m 0,0 c 0,-26.671 -21.619,-48.289 -48.289,-48.289 -26.668,0 -48.289,21.618 -48.289,48.289 0,26.669 21.621,48.29 48.289,48.29 C -21.619,48.29 0,26.669 0,0" />
        </g>
        <g transform="translate(1285.8594,270.7051)" id="g402">
          <path id="path404"
            style="fill:none;stroke:#937980;stroke-width:10;stroke-linecap:butt;stroke-linejoin:miter;stroke-miterlimit:10;stroke-dasharray:none;stroke-opacity:1"
            d="m 0,0 c 0,-26.671 -21.619,-48.289 -48.289,-48.289 -26.668,0 -48.289,21.618 -48.289,48.289 0,26.669 21.621,48.29 48.289,48.29 C -21.619,48.29 0,26.669 0,0 Z" />
        </g>
        <g transform="translate(1244.6035,276.6514)" id="g406">
          <path id="path408" style="fill:#000000;fill-opacity:1;fill-rule:nonzero;stroke:none"
            d="m 0,0 4.24,19.649 c -2.955,1.123 -6.148,1.765 -9.499,1.765 -14.797,0 -26.794,-11.995 -26.794,-26.793 0,-14.799 11.997,-26.794 26.794,-26.794 14.797,0 26.796,11.995 26.796,26.794 0,1.628 -0.17,3.215 -0.448,4.764 z" />
        </g>
        <g transform="translate(1086.1152,136.4531)" id="g410">
          <path id="path412" style="fill:#895f6b;fill-opacity:1;fill-rule:nonzero;stroke:none"
            d="m 0,0 c -4.162,16.722 -12.512,32.165 -21.311,46.93 -2.181,3.66 -31.27,47.838 -33.523,44.53 -6.187,-9.085 -11.943,-18.348 -17.142,-27.752 -28.088,-50.825 -36.321,-97.477 -29.484,-138.526 10.473,1.193 20.771,4.333 30.376,9.23 1.768,-5.91 3.918,-11.623 6.504,-17.129 10.081,4.114 19.415,10.185 27.52,17.844 4.976,-6.957 10.783,-13.18 17.732,-18.611 2.147,-1.678 17.171,30.054 18.027,32.872 3.901,12.842 5.06,26.645 3.327,39.956 C 1.558,-7.046 0.871,-3.494 0,0" />
        </g>
        <g transform="translate(1284.6934,136.4531)" id="g414">
          <path id="path416" style="fill:#895f6b;fill-opacity:1;fill-rule:nonzero;stroke:none"
            d="m 0,0 c 4.16,16.722 12.51,32.165 21.308,46.93 2.184,3.66 31.271,47.838 33.525,44.53 6.189,-9.085 11.942,-18.348 17.14,-27.752 28.091,-50.825 36.324,-97.477 29.484,-138.526 -10.469,1.193 -20.769,4.333 -30.375,9.23 -1.768,-5.91 -3.918,-11.623 -6.504,-17.129 -10.08,4.114 -19.413,10.185 -27.519,17.844 C 32.083,-71.83 26.277,-78.053 19.326,-83.484 17.18,-85.162 2.157,-53.43 1.299,-50.612 -2.603,-37.77 -3.759,-23.967 -2.028,-10.656 -1.56,-7.046 -0.871,-3.494 0,0" />
        </g>
        <g transform="translate(1185.3965,158.3926)" id="g418">
          <path id="path420" style="fill:#937980;fill-opacity:1;fill-rule:nonzero;stroke:none"
            d="M 0,0 C 1.761,-6.098 2.676,-12.196 3.333,-18.293 3.958,-24.39 4.247,-30.489 4.251,-36.587 4.257,-42.684 3.969,-48.782 3.343,-54.879 2.688,-60.978 1.771,-67.076 0,-73.173 c -1.775,6.097 -2.692,12.195 -3.348,18.294 -0.621,6.097 -0.914,12.195 -0.907,18.292 0.007,6.098 0.296,12.197 0.921,18.294 C -2.677,-12.196 -1.762,-6.098 0,0" />
        </g>
        <g transform="translate(1149.6602,158.3926)" id="g422">
          <path id="path424" style="fill:#937980;fill-opacity:1;fill-rule:nonzero;stroke:none"
            d="M 0,0 C 1.762,-6.098 2.675,-12.196 3.334,-18.293 3.959,-24.39 4.248,-30.489 4.251,-36.587 4.258,-42.684 3.968,-48.782 3.343,-54.879 2.688,-60.978 1.771,-67.076 0,-73.173 c -1.775,6.097 -2.691,12.195 -3.348,18.294 -0.621,6.097 -0.914,12.195 -0.906,18.292 0.006,6.098 0.296,12.197 0.921,18.294 C -2.676,-12.196 -1.762,-6.098 0,0" />
        </g>
        <g transform="translate(1221.1318,158.3926)" id="g426">
          <path id="path428" style="fill:#937980;fill-opacity:1;fill-rule:nonzero;stroke:none"
            d="M 0,0 C 1.762,-6.098 2.675,-12.196 3.334,-18.293 3.958,-24.39 4.248,-30.489 4.251,-36.587 4.257,-42.684 3.968,-48.782 3.343,-54.879 2.688,-60.978 1.771,-67.076 0,-73.173 c -1.774,6.097 -2.691,12.195 -3.348,18.294 -0.621,6.097 -0.913,12.195 -0.906,18.292 0.006,6.098 0.296,12.197 0.92,18.294 C -2.676,-12.196 -1.762,-6.098 0,0" />
        </g>
        <g transform="translate(1230.4873,354.3369)" id="g430">
          <path id="path432" style="fill:#d8a7a0;fill-opacity:1;fill-rule:nonzero;stroke:none"
            d="M 0,0 C 0,0 31.651,71.239 51.222,71.967 70.791,72.692 65.666,-29.077 33.769,-23.262" />
        </g>
        <g transform="translate(1141.7598,354.3369)" id="g434">
          <path id="path436" style="fill:#d8a7a0;fill-opacity:1;fill-rule:nonzero;stroke:none"
            d="M 0,0 C 0,0 -31.652,71.239 -51.222,71.967 -70.791,72.692 -65.668,-29.077 -33.77,-23.262" />
        </g>
      </g>
    </g>
  </g>
</svg>