<svg width="550" height="550" viewBox="0 0 550 550" fill="none" xmlns="http://www.w3.org/2000/svg">
<path d="M483.488 286.645C483.473 286.538 483.469 286.436 483.461 286.332C474.908 194.609 433.136 130.784 374.684 76.7595C364.501 59.7022 323.813 56.3822 275.135 56.3822C227.637 56.3822 187.72 59.5329 176.353 75.5342C117.205 129.329 74.8612 193.914 66.2439 286.332C66.1999 286.792 66.1706 287.25 66.1279 287.71C103.177 299.913 245.793 357.04 126.297 482.013C164.337 516.786 216.844 533.237 274.855 533.237C331.939 533.237 383.699 517.308 421.584 483.662C295.192 353.365 452.764 296.229 483.488 286.645Z" fill="#D8A7A0"/>
<path d="M66.1287 287.71C65.1433 298.687 64.5967 309.61 64.5967 320.389C64.5967 381.094 80.6553 427.941 107.666 462.039C113.397 469.273 119.629 475.918 126.298 482.014C245.794 357.039 103.177 299.913 66.1287 287.71Z" fill="#D8A7A0"/>
<path d="M442.039 462.039C469.049 427.941 485.109 381.093 485.109 320.389C485.109 309.258 484.529 297.981 483.488 286.645C452.764 296.229 295.192 353.365 421.584 483.662C428.945 477.125 435.788 469.93 442.039 462.039Z" fill="#D8A7A0"/>
<path d="M227.602 488.744H226.845C221.416 488.744 217.016 493.144 217.016 498.576C217.016 493.144 212.61 488.744 207.182 488.744H206.424C200.996 488.744 196.594 493.144 196.594 498.576C196.594 493.144 192.188 488.744 186.76 488.744H186.002C180.574 488.744 174.314 493.013 174.314 498.445V535.505C174.314 540.938 180.574 544.744 186.002 544.744H186.76C192.188 544.744 196.594 540.345 196.594 534.913C196.594 540.345 200.996 544.744 206.424 544.744H207.182C212.61 544.744 217.016 540.345 217.016 534.913C217.016 540.345 221.416 544.744 226.845 544.744H227.602C233.032 544.744 235.648 540.938 235.648 535.505V498.445C235.648 493.013 233.032 488.744 227.602 488.744Z" fill="#FCDB66"/>
<path d="M363.739 488.744H362.982C357.551 488.744 353.154 493.144 353.154 498.576C353.154 493.144 348.747 488.744 343.319 488.744H342.561C337.133 488.744 332.731 493.144 332.731 498.576C332.731 493.144 328.326 488.744 322.898 488.744H322.141C316.711 488.744 310.315 493.013 310.315 498.445V535.505C310.315 540.938 316.711 544.744 322.141 544.744H322.898C328.326 544.744 332.731 540.345 332.731 534.913C332.731 540.345 337.133 544.744 342.561 544.744H343.319C348.747 544.744 353.154 540.345 353.154 534.913C353.154 540.345 357.551 544.744 362.982 544.744H363.739C369.167 544.744 371.649 540.938 371.649 535.505V498.445C371.649 493.013 369.167 488.744 363.739 488.744Z" fill="#FCDB66"/>
<path d="M241.717 255.084C249.596 240.905 298.462 241.048 306.589 255.084C311.997 264.421 291.678 319.954 274.156 319.954C256.634 319.954 236.806 263.929 241.717 255.084Z" fill="#583A1E"/>
<path d="M268.315 211.804C268.315 247.365 239.494 276.189 203.928 276.189C168.371 276.189 139.543 247.365 139.543 211.804C139.543 176.245 168.371 147.417 203.928 147.417C239.494 147.417 268.315 176.245 268.315 211.804Z" fill="#FEFFFF"/>
<path d="M268.315 211.804C268.315 247.365 239.494 276.189 203.928 276.189C168.371 276.189 139.543 247.365 139.543 211.804C139.543 176.245 168.371 147.417 203.928 147.417C239.494 147.417 268.315 176.245 268.315 211.804Z" stroke="#937980" stroke-width="13.3333" stroke-miterlimit="10"/>
<path d="M210.843 203.875L216.496 177.677C212.556 176.179 208.299 175.323 203.83 175.323C184.1 175.323 168.104 191.317 168.104 211.047C168.104 230.779 184.1 246.773 203.83 246.773C223.56 246.773 239.559 230.779 239.559 211.047C239.559 208.877 239.332 206.761 238.96 204.695L210.843 203.875Z" fill="black"/>
<path d="M408.794 211.804C408.794 247.365 379.969 276.189 344.409 276.189C308.851 276.189 280.023 247.365 280.023 211.804C280.023 176.245 308.851 147.417 344.409 147.417C379.969 147.417 408.794 176.245 408.794 211.804Z" fill="#FEFFFF"/>
<path d="M408.794 211.804C408.794 247.365 379.969 276.189 344.409 276.189C308.851 276.189 280.023 247.365 280.023 211.804C280.023 176.245 308.851 147.417 344.409 147.417C379.969 147.417 408.794 176.245 408.794 211.804Z" stroke="#937980" stroke-width="13.3333" stroke-miterlimit="10"/>
<path d="M353.786 203.875L359.439 177.677C355.499 176.179 351.242 175.323 346.774 175.323C327.045 175.323 311.049 191.317 311.049 211.047C311.049 230.779 327.045 246.773 346.774 246.773C366.503 246.773 382.502 230.779 382.502 211.047C382.502 208.877 382.275 206.761 381.905 204.695L353.786 203.875Z" fill="black"/>
<path d="M142.468 390.806C136.919 368.51 125.786 347.92 114.054 328.233C111.146 323.353 72.3603 264.449 69.3563 268.86C61.107 280.973 53.4323 293.324 46.5003 305.862C9.04968 373.629 -1.92766 435.832 7.18834 490.564C21.1523 488.973 34.883 484.786 47.6897 478.257C50.047 486.137 52.9137 493.754 56.3617 501.096C69.803 495.61 82.2483 487.516 93.055 477.304C99.6897 486.58 107.432 494.877 116.698 502.118C119.56 504.356 139.592 462.046 140.734 458.289C145.935 441.166 147.48 422.762 145.17 405.014C144.546 400.201 143.63 395.465 142.468 390.806Z" fill="#895F6B"/>
<path d="M407.239 390.806C412.786 368.51 423.919 347.92 435.65 328.233C438.562 323.353 477.345 264.449 480.35 268.86C488.602 280.973 496.273 293.324 503.203 305.862C540.658 373.629 551.635 435.832 542.515 490.564C528.557 488.973 514.823 484.786 502.015 478.257C499.658 486.137 496.791 493.754 493.343 501.096C479.903 495.61 467.459 487.516 456.651 477.304C450.017 486.58 442.275 494.877 433.007 502.118C430.146 504.356 410.115 462.046 408.971 458.289C403.769 441.166 402.227 422.762 404.535 405.014C405.159 400.201 406.078 395.465 407.239 390.806Z" fill="#895F6B"/>
<path d="M274.843 361.554C277.191 369.684 278.411 377.815 279.287 385.944C280.121 394.074 280.506 402.206 280.511 410.336C280.519 418.466 280.135 426.596 279.301 434.726C278.427 442.858 277.205 450.988 274.843 459.118C272.477 450.988 271.254 442.858 270.379 434.726C269.551 426.596 269.161 418.466 269.17 410.336C269.179 402.206 269.565 394.074 270.398 385.944C271.274 377.815 272.494 369.684 274.843 361.554Z" fill="#937980"/>
<path d="M227.195 361.554C229.544 369.684 230.761 377.815 231.64 385.944C232.473 394.074 232.859 402.206 232.863 410.336C232.872 418.466 232.485 426.596 231.652 434.726C230.779 442.858 229.556 450.988 227.195 459.118C224.828 450.988 223.607 442.858 222.731 434.726C221.903 426.596 221.512 418.466 221.523 410.336C221.531 402.206 221.917 394.074 222.751 385.944C223.627 377.815 224.845 369.684 227.195 361.554Z" fill="#937980"/>
<path d="M322.491 361.554C324.84 369.684 326.057 377.815 326.936 385.944C327.768 394.074 328.155 402.206 328.159 410.336C328.167 418.466 327.781 426.596 326.948 434.726C326.075 442.858 324.852 450.988 322.491 459.118C320.125 450.988 318.903 442.858 318.027 434.726C317.199 426.596 316.809 418.466 316.819 410.336C316.827 402.206 317.213 394.074 318.045 385.944C318.923 377.815 320.141 369.684 322.491 361.554Z" fill="#937980"/>
<path d="M334.964 100.295C334.964 100.295 377.166 5.30921 403.26 4.33855C429.352 3.37188 422.519 139.064 379.99 131.311" fill="#D8A7A0"/>
<path d="M216.661 100.295C216.661 100.295 174.458 5.30921 148.365 4.33855C122.273 3.37188 129.103 139.064 171.634 131.311" fill="#D8A7A0"/>
</svg>
