<svg width="550" height="550" viewBox="0 0 550 550" fill="none" xmlns="http://www.w3.org/2000/svg">
<path d="M483.622 269.473C474.754 174.38 430.191 75.1092 368.34 22.3332C354.655 59.7306 311.218 40.6586 268.187 40.6586C225.152 40.6586 195.374 59.7306 181.694 22.3332C119.842 75.1092 75.2738 174.38 66.4085 269.473C65.3418 280.916 64.7605 292.3 64.7605 303.532C64.7605 364.237 80.8178 411.083 107.831 445.184C146.247 493.677 206.838 516.38 275.016 516.38C343.194 516.38 403.783 493.677 442.2 445.184C469.212 411.083 485.27 364.235 485.27 303.532C485.27 292.3 484.687 280.916 483.622 269.473Z" fill="#C4A7AB"/>
<path d="M142.177 371.68C136.627 349.385 125.495 328.793 113.764 309.106C110.856 304.228 72.0679 245.324 69.0652 249.733C60.8145 261.846 53.1412 274.197 46.2105 286.736C8.75722 354.504 -2.21878 416.705 6.89722 471.437C20.8599 469.846 34.5905 465.661 47.3985 459.132C49.7545 467.01 52.6225 474.629 56.0705 481.969C69.5119 476.484 81.9572 468.389 92.7639 458.177C99.3999 467.454 107.14 475.749 116.408 482.993C119.269 485.229 139.301 442.921 140.443 439.164C145.644 422.04 147.189 403.636 144.88 385.889C144.253 381.074 143.337 376.34 142.177 371.68Z" fill="#583A1E"/>
<path d="M406.945 371.68C412.496 349.385 423.628 328.793 435.359 309.106C438.267 304.228 477.055 245.324 480.059 249.733C488.308 261.846 495.981 274.197 502.913 286.736C540.365 354.504 551.343 416.705 542.224 471.437C528.263 469.846 514.531 465.661 501.724 459.132C499.367 467.01 496.5 474.629 493.052 481.969C479.612 476.484 467.165 468.389 456.359 458.177C449.723 467.454 441.983 475.749 432.715 482.993C429.855 485.229 409.821 442.921 408.68 439.164C403.477 422.04 401.933 403.636 404.244 385.889C404.869 381.074 405.787 376.34 406.945 371.68Z" fill="#583A1E"/>
<path d="M227.746 472.334H226.988C221.559 472.334 217.158 476.734 217.158 482.166C217.158 476.734 212.754 472.334 207.326 472.334H206.567C201.138 472.334 196.736 476.734 196.736 482.166C196.736 476.734 192.332 472.334 186.906 472.334H186.147C180.718 472.334 177.732 476.158 177.732 481.589V518.649C177.732 524.081 180.718 528.334 186.147 528.334H186.906C192.332 528.334 196.736 523.934 196.736 518.502C196.736 523.934 201.138 528.334 206.567 528.334H207.326C212.754 528.334 217.158 523.934 217.158 518.502C217.158 523.934 221.559 528.334 226.988 528.334H227.746C233.175 528.334 239.066 524.081 239.066 518.649V481.589C239.066 476.158 233.175 472.334 227.746 472.334Z" fill="#FBDC74"/>
<path d="M363.882 472.334H363.124C357.695 472.334 353.294 476.734 353.294 482.166C353.294 476.734 348.89 472.334 343.462 472.334H342.704C337.275 472.334 332.872 476.734 332.872 482.166C332.872 476.734 328.47 472.334 323.042 472.334H322.283C316.855 472.334 313.732 476.158 313.732 481.589V518.649C313.732 524.081 316.855 528.334 322.283 528.334H323.042C328.47 528.334 332.872 523.934 332.872 518.502C332.872 523.934 337.275 528.334 342.704 528.334H343.462C348.89 528.334 353.294 523.934 353.294 518.502C353.294 523.934 357.695 528.334 363.124 528.334H363.882C369.311 528.334 375.066 524.081 375.066 518.649V481.589C375.066 476.158 369.311 472.334 363.882 472.334Z" fill="#FBDC74"/>
<path d="M241.871 238.227C249.749 224.048 298.617 224.189 306.742 238.227C312.149 247.564 291.83 303.097 274.307 303.097C256.786 303.097 236.958 247.072 241.871 238.227Z" fill="#583A1E"/>
<path d="M268.47 194.946C268.47 230.506 239.644 259.333 204.082 259.333C168.523 259.333 139.698 230.506 139.698 194.946C139.698 159.387 168.523 130.561 204.082 130.561C239.644 130.561 268.47 159.387 268.47 194.946Z" fill="#FEFFFF"/>
<path d="M268.47 194.946C268.47 230.506 239.644 259.333 204.082 259.333C168.523 259.333 139.698 230.506 139.698 194.946C139.698 159.387 168.523 130.561 204.082 130.561C239.644 130.561 268.47 159.387 268.47 194.946Z" stroke="#FBDC74" stroke-width="13.3333" stroke-miterlimit="10"/>
<path d="M210.994 187.018L216.649 160.82C212.709 159.321 208.452 158.466 203.984 158.466C184.254 158.466 168.26 174.46 168.26 194.19C168.26 213.922 184.254 229.916 203.984 229.916C223.716 229.916 239.71 213.922 239.71 194.19C239.71 192.02 239.485 189.904 239.113 187.838L210.994 187.018Z" fill="black"/>
<path d="M408.947 194.946C408.947 230.506 380.119 259.333 344.56 259.333C309.003 259.333 280.175 230.506 280.175 194.946C280.175 159.387 309.003 130.561 344.56 130.561C380.119 130.561 408.947 159.387 408.947 194.946Z" fill="#FEFFFF"/>
<path d="M408.947 194.946C408.947 230.506 380.119 259.333 344.56 259.333C309.003 259.333 280.175 230.506 280.175 194.946C280.175 159.387 309.003 130.561 344.56 130.561C380.119 130.561 408.947 159.387 408.947 194.946Z" stroke="#FBDC74" stroke-width="13.3333" stroke-miterlimit="10"/>
<path d="M353.938 187.018L359.592 160.82C355.654 159.321 351.394 158.466 346.927 158.466C327.198 158.466 311.203 174.46 311.203 194.19C311.203 213.922 327.198 229.916 346.927 229.916C366.659 229.916 382.655 213.922 382.655 194.19C382.655 192.02 382.428 189.904 382.055 187.838L353.938 187.018Z" fill="black"/>
<path d="M234.154 360.402C234.154 374.183 222.979 385.36 209.195 385.36C195.411 385.36 184.236 374.183 184.236 360.402" fill="#583A1E"/>
<path d="M299.953 360.402C299.953 374.183 288.779 385.36 274.995 385.36C261.211 385.36 250.036 374.183 250.036 360.402" fill="#583A1E"/>
<path d="M365.752 360.402C365.752 374.183 354.579 385.36 340.795 385.36C327.009 385.36 315.835 374.183 315.835 360.402" fill="#583A1E"/>
<path d="M202.389 408.049C202.389 421.831 191.214 433.008 177.43 433.008C163.646 433.008 152.471 421.831 152.471 408.049" fill="#583A1E"/>
<path d="M268.188 408.049C268.188 421.831 257.014 433.008 243.229 433.008C229.445 433.008 218.27 421.831 218.27 408.049" fill="#583A1E"/>
<path d="M333.987 408.049C333.987 421.831 322.814 433.008 309.028 433.008C295.244 433.008 284.07 421.831 284.07 408.049" fill="#583A1E"/>
<path d="M397.517 408.049C397.517 421.831 386.344 433.008 372.56 433.008C358.774 433.008 347.6 421.831 347.6 408.049" fill="#583A1E"/>
</svg>
