<svg width="550" height="550" viewBox="0 0 550 550" fill="none" xmlns="http://www.w3.org/2000/svg">
<path d="M65.9585 275.51C64.9732 286.488 64.4265 297.41 64.4265 308.189C64.4265 368.894 80.4852 415.741 107.496 449.84C113.225 457.073 119.459 463.718 126.125 469.814C245.621 344.84 103.007 287.713 65.9585 275.51Z" fill="#42667A"/>
<path d="M441.867 449.84C468.876 415.741 484.936 368.893 484.936 308.189C484.936 297.058 484.359 285.781 483.315 274.445C452.591 284.029 295.019 341.165 421.411 471.462C428.772 464.925 435.616 457.73 441.867 449.84Z" fill="#42667A"/>
<path d="M483.315 274.445C483.305 274.339 483.298 274.236 483.289 274.132C474.422 179.037 429.858 79.7666 368.007 26.9906C354.322 64.3892 317.714 91.1652 274.683 91.1652C231.649 91.1652 195.039 64.3892 181.361 26.9906C119.51 79.7666 74.942 179.037 66.074 274.132C66.03 274.592 66.0007 275.051 65.958 275.511C103.007 287.713 245.621 344.84 126.125 469.813C164.166 504.587 216.673 521.037 274.683 521.037C331.766 521.037 383.526 505.108 421.411 471.463C295.019 341.165 452.593 284.029 483.315 274.445Z" fill="#768799"/>
<path d="M227.431 476.544H226.672C221.244 476.544 216.844 480.944 216.844 486.376C216.844 480.944 212.439 476.544 207.009 476.544H206.252C200.823 476.544 196.424 480.944 196.424 486.376C196.424 480.944 192.017 476.544 186.589 476.544H185.832C180.403 476.544 175.187 480.813 175.187 486.245V523.305C175.187 528.739 180.403 532.544 185.832 532.544H186.589C192.017 532.544 196.424 528.145 196.424 522.713C196.424 528.145 200.823 532.544 206.252 532.544H207.009C212.439 532.544 216.844 528.145 216.844 522.713C216.844 528.145 221.244 532.544 226.672 532.544H227.431C232.859 532.544 236.52 528.739 236.52 523.305V486.245C236.52 480.813 232.859 476.544 227.431 476.544Z" fill="#FCDB66"/>
<path d="M363.567 476.544H362.809C357.38 476.544 352.98 480.944 352.98 486.376C352.98 480.944 348.575 476.544 343.147 476.544H342.388C336.96 476.544 332.559 480.944 332.559 486.376C332.559 480.944 328.155 476.544 322.725 476.544H321.968C316.539 476.544 311.187 480.813 311.187 486.245V523.305C311.187 528.739 316.539 532.544 321.968 532.544H322.725C328.155 532.544 332.559 528.145 332.559 522.713C332.559 528.145 336.96 532.544 342.388 532.544H343.147C348.575 532.544 352.98 528.145 352.98 522.713C352.98 528.145 357.38 532.544 362.809 532.544H363.567C368.995 532.544 372.52 528.739 372.52 523.305V486.245C372.52 480.813 368.995 476.544 363.567 476.544Z" fill="#FCDB66"/>
<path d="M241.547 242.884C249.424 228.705 298.294 228.848 306.418 242.884C311.824 252.221 291.506 307.755 273.983 307.755C256.462 307.755 236.634 251.729 241.547 242.884Z" fill="#583A1E"/>
<path d="M268.145 199.604C268.145 235.165 239.319 263.989 203.757 263.989C168.198 263.989 139.374 235.165 139.374 199.604C139.374 164.045 168.198 135.217 203.757 135.217C239.319 135.217 268.145 164.045 268.145 199.604Z" fill="#FEFFFF"/>
<path d="M268.145 199.604C268.145 235.165 239.319 263.989 203.757 263.989C168.198 263.989 139.374 235.165 139.374 199.604C139.374 164.045 168.198 135.217 203.757 135.217C239.319 135.217 268.145 164.045 268.145 199.604Z" stroke="#42667A" stroke-width="13.3333" stroke-miterlimit="10"/>
<path d="M210.67 191.676L216.325 165.477C212.386 163.98 208.126 163.124 203.659 163.124C183.93 163.124 167.934 179.117 167.934 198.848C167.934 218.58 183.93 234.573 203.659 234.573C223.391 234.573 239.386 218.58 239.386 198.848C239.386 196.677 239.161 194.561 238.787 192.496L210.67 191.676Z" fill="black"/>
<path d="M408.622 199.604C408.622 235.165 379.794 263.989 344.236 263.989C308.678 263.989 279.85 235.165 279.85 199.604C279.85 164.045 308.678 135.217 344.236 135.217C379.794 135.217 408.622 164.045 408.622 199.604Z" fill="#FEFFFF"/>
<path d="M408.622 199.604C408.622 235.165 379.794 263.989 344.236 263.989C308.678 263.989 279.85 235.165 279.85 199.604C279.85 164.045 308.678 135.217 344.236 135.217C379.794 135.217 408.622 164.045 408.622 199.604Z" stroke="#42667A" stroke-width="13.3333" stroke-miterlimit="10"/>
<path d="M353.614 191.676L359.269 165.477C355.329 163.98 351.07 163.124 346.603 163.124C326.874 163.124 310.878 179.117 310.878 198.848C310.878 218.58 326.874 234.573 346.603 234.573C366.334 234.573 382.33 218.58 382.33 198.848C382.33 196.677 382.103 194.561 381.731 192.496L353.614 191.676Z" fill="black"/>
<path d="M447.109 48.436C441.165 59.2653 430.192 67.4467 417.941 73.5787C423.985 51.172 402.109 17.3333 402.109 17.3333C402.109 56.66 358.337 90.5733 358.337 90.5733C453.161 161.032 447.109 48.436 447.109 48.436Z" fill="#B0BECC"/>
<path d="M95.2201 48.436C101.165 59.2653 112.137 67.4467 124.388 73.5787C118.344 51.172 140.22 17.3333 140.22 17.3333C140.22 56.66 183.992 90.5733 183.992 90.5733C89.1681 161.032 95.2201 48.436 95.2201 48.436Z" fill="#B0BECC"/>
<path d="M274.671 347.084C277.019 355.214 278.237 363.346 279.115 371.476C279.948 379.606 280.333 387.736 280.34 395.866C280.349 403.998 279.961 412.128 279.131 420.258C278.257 428.388 277.035 436.52 274.671 444.65C272.307 436.52 271.083 428.388 270.211 420.258C269.379 412.128 268.991 403.998 269 395.866C269.007 387.736 269.392 379.606 270.227 371.476C271.103 363.346 272.321 355.214 274.671 347.084Z" fill="#B0BECC"/>
<path d="M227.023 347.084C229.371 355.214 230.589 363.346 231.467 371.476C232.3 379.606 232.685 387.736 232.692 395.866C232.701 403.998 232.313 412.128 231.483 420.258C230.609 428.388 229.387 436.52 227.023 444.65C224.659 436.52 223.435 428.388 222.563 420.258C221.731 412.128 221.344 403.998 221.353 395.866C221.359 387.736 221.744 379.606 222.577 371.476C223.455 363.346 224.673 355.214 227.023 347.084Z" fill="#B0BECC"/>
<path d="M322.318 347.084C324.666 355.214 325.885 363.346 326.762 371.476C327.596 379.606 327.981 387.736 327.988 395.866C327.997 403.998 327.609 412.128 326.778 420.258C325.905 428.388 324.681 436.52 322.318 444.65C319.954 436.52 318.73 428.388 317.858 420.258C317.026 412.128 316.638 403.998 316.648 395.866C316.654 387.736 317.04 379.606 317.873 371.476C318.75 363.346 319.969 355.214 322.318 347.084Z" fill="#B0BECC"/>
</svg>
