<svg width="550" height="550" viewBox="0 0 550 550" fill="none" xmlns="http://www.w3.org/2000/svg">
<path d="M483.372 274.667C477.328 209.867 462.5 109.05 428.785 57.9152C428.81 57.9032 428.833 57.8898 428.86 57.8791C408.266 43.5031 379.749 30.8511 342.834 22.3058C339.928 22.9685 337.096 21.3565 334.366 22.0005C287.06 24.4365 242.492 23.7872 204.054 21.8352C165.461 31.9525 136.632 48.9631 116.91 64.1258C85.9011 116.859 71.9625 212.384 66.1558 274.667C65.0905 286.11 64.5078 297.494 64.5078 308.724C64.5078 369.431 80.5665 416.276 107.578 450.376C128.436 476.704 155.918 495.412 187.512 507.031C187.505 506.351 187.554 505.678 187.554 504.994V338.488C187.554 282.127 223.192 235.399 267.357 235.399H284.4C328.566 235.399 364.888 282.127 364.888 338.488V504.994C364.888 505.4 364.606 505.802 364.604 506.207C395.252 494.538 421.717 476.082 442.078 450.376C469.093 416.276 485.084 369.428 485.084 308.724C485.084 297.494 484.436 286.11 483.372 274.667Z" fill="#9C7463"/>
<path d="M364.887 338.488C364.887 282.127 328.566 235.399 284.401 235.399H267.358C223.193 235.399 187.554 282.127 187.554 338.488V504.993C187.554 505.679 187.505 506.351 187.513 507.032C214.111 516.815 243.643 521.573 274.806 521.573C306.847 521.573 337.449 516.557 364.623 506.208C364.627 505.801 364.887 505.401 364.887 504.993V338.488Z" fill="#BA8E7F"/>
<path d="M100.833 416.544C131.76 360.585 117.134 292.555 68.8089 259.464C60.5596 271.579 52.8849 283.929 45.9542 296.468C8.50225 364.235 -2.47375 426.436 6.64092 481.169C44.2463 476.881 80.2036 453.867 100.833 416.544Z" fill="#583A1E"/>
<path d="M448.687 416.544C417.759 360.585 432.382 292.555 480.71 259.464C488.961 271.579 496.631 283.929 503.562 296.468C541.018 364.235 551.994 426.436 542.875 481.169C505.273 476.881 469.311 453.867 448.687 416.544Z" fill="#583A1E"/>
<path d="M227.486 482.066H226.734C221.304 482.066 216.9 486.466 216.9 491.898C216.9 486.466 212.498 482.066 207.068 482.066H206.313C200.882 482.066 196.48 486.466 196.48 491.898C196.48 486.466 192.077 482.066 186.648 482.066H185.893C180.462 482.066 176.888 485.89 176.888 491.32V528.38C176.888 533.812 180.462 538.066 185.893 538.066H186.648C192.077 538.066 196.48 533.666 196.48 528.234C196.48 533.666 200.882 538.066 206.313 538.066H207.068C212.498 538.066 216.9 533.666 216.9 528.234C216.9 533.666 221.304 538.066 226.734 538.066H227.486C232.918 538.066 238.221 533.812 238.221 528.38V491.32C238.221 485.89 232.918 482.066 227.486 482.066Z" fill="#FCDB66"/>
<path d="M363.622 482.066H362.871C357.441 482.066 353.037 486.466 353.037 491.898C353.037 486.466 348.635 482.066 343.203 482.066H342.45C337.021 482.066 332.615 486.466 332.615 491.898C332.615 486.466 328.214 482.066 322.781 482.066H322.03C316.599 482.066 312.887 485.89 312.887 491.32V528.38C312.887 533.812 316.599 538.066 322.03 538.066H322.781C328.214 538.066 332.615 533.666 332.615 528.234C332.615 533.666 337.021 538.066 342.45 538.066H343.203C348.635 538.066 353.037 533.666 353.037 528.234C353.037 533.666 357.441 538.066 362.871 538.066H363.622C369.055 538.066 374.221 533.812 374.221 528.38V491.32C374.221 485.89 369.055 482.066 363.622 482.066Z" fill="#FCDB66"/>
<path d="M242.962 247.958C250.836 233.779 299.708 233.921 307.835 247.958C313.242 257.295 292.923 312.829 275.4 312.829C257.874 312.829 238.047 256.803 242.962 247.958Z" fill="#583A1E"/>
<path d="M269.56 204.677C269.56 240.237 240.733 269.064 205.174 269.064C169.614 269.064 140.789 240.237 140.789 204.677C140.789 169.119 169.614 140.292 205.174 140.292C240.733 140.292 269.56 169.119 269.56 204.677Z" fill="#FEFFFF"/>
<path d="M269.56 204.677C269.56 240.237 240.733 269.064 205.174 269.064C169.614 269.064 140.789 240.237 140.789 204.677C140.789 169.119 169.614 140.292 205.174 140.292C240.733 140.292 269.56 169.119 269.56 204.677Z" stroke="#6D4727" stroke-width="13.3333" stroke-miterlimit="10"/>
<path d="M212.083 196.75L217.743 170.551C213.803 169.052 209.543 168.198 205.078 168.198C185.346 168.198 169.35 184.191 169.35 203.922C169.35 223.654 185.346 239.647 205.078 239.647C224.807 239.647 240.803 223.654 240.803 203.922C240.803 201.751 240.576 199.635 240.206 197.57L212.083 196.75Z" fill="black"/>
<path d="M410.038 204.677C410.038 240.237 381.212 269.064 345.648 269.064C310.09 269.064 281.268 240.237 281.268 204.677C281.268 169.119 310.09 140.292 345.648 140.292C381.212 140.292 410.038 169.119 410.038 204.677Z" fill="#FEFFFF"/>
<path d="M410.038 204.677C410.038 240.237 381.212 269.064 345.648 269.064C310.09 269.064 281.268 240.237 281.268 204.677C281.268 169.119 310.09 140.292 345.648 140.292C381.212 140.292 410.038 169.119 410.038 204.677Z" stroke="#6D4727" stroke-width="13.3333" stroke-miterlimit="10"/>
<path d="M355.025 196.75L360.685 170.551C356.745 169.052 352.487 168.198 348.02 168.198C328.291 168.198 312.292 184.191 312.292 203.922C312.292 223.654 328.291 239.647 348.02 239.647C367.749 239.647 383.745 223.654 383.745 203.922C383.745 201.751 383.52 199.635 383.148 197.57L355.025 196.75Z" fill="black"/>
<path d="M304.054 23.0759C304.054 23.0759 340.981 13.3333 392.197 31.7106C435.56 47.2719 510.63 25.5839 530.03 13.3333C530.03 13.3333 537.312 72.6333 486.129 55.1906C486.129 55.1906 516.758 83.7786 500.424 91.9466C484.085 100.116 461.622 73.5693 461.622 73.5693C461.622 73.5693 485.104 110.383 441.201 93.5093C397.304 76.6333 304.054 23.0759 304.054 23.0759Z" fill="#583A1E"/>
<path d="M246.768 23.0759C246.768 23.0759 209.841 13.3333 158.629 31.7106C115.267 47.2719 40.196 25.5839 20.796 13.3333C20.796 13.3333 13.512 72.6333 64.6987 55.1906C64.6987 55.1906 34.0653 83.7786 50.4027 91.9466C66.74 100.116 89.2027 73.5693 89.2027 73.5693C89.2027 73.5693 65.72 110.383 109.624 93.5093C153.524 76.6333 246.768 23.0759 246.768 23.0759Z" fill="#583A1E"/>
</svg>
