<svg viewBox="0 0 521 436" fill="none" xmlns="http://www.w3.org/2000/svg">
    <path
        d="M187.498 24.024C184.321 24.6394 181.016 25.265 178.792 26.2735C174.795 28.0821 175.348 30.759 178.55 32.7556C181.753 34.7522 187.116 36.1949 192.537 37.4701C223.973 44.865 262.591 48.4171 300.312 47.3778C308.691 47.1488 317.323 46.6599 324.344 45.0394C340.298 41.3573 342.186 33.5453 342.445 26.8411C342.647 21.5864 342.75 16.1505 336.861 11.3197C332.651 7.86328 321.454 1.54535 310.374 0.434238C298.295 -0.779438 281.612 3.53509 271.541 5.52826C242.708 11.2274 216.474 18.4035 187.498 24.024Z"
        fill="#FEF7C7" />
    <path
        d="M139.3 401.491C106.907 409.772 71.5045 405.655 41.8765 390.168C26.5759 382.168 11.6674 369.262 10.0759 352.076C8.30888 332.989 23.4911 316.62 39.2563 305.707C55.0207 294.798 73.212 285.765 83.2425 269.427C89.2059 259.717 91.6639 248.309 93.7319 237.103C95.5028 227.507 97.0493 217.535 94.6135 208.086C91.946 197.74 84.8344 189.223 79.5658 179.927C64.748 153.781 65.2387 119.65 80.8022 93.9401C96.3664 68.2264 126.383 51.9599 156.428 52.9511C169.387 53.3814 182.038 56.7507 194.783 59.1327C239.82 67.5579 286.472 63.62 331.179 53.5735C347.47 49.9122 363.742 45.4248 380.44 44.91C408.856 44.0302 437.283 55.2255 458.113 74.5732C478.943 93.9171 492.113 121.075 495.349 149.313C499.426 184.888 484.1 225.697 450.63 238.465C437.449 243.495 420.597 245.372 414.594 258.141C409.644 268.668 415.139 280.883 420.416 291.245C432.752 315.481 444.447 340.452 449.416 367.187C452.21 382.209 452.41 399.071 443.148 411.225C437.706 418.366 429.57 423.023 421.15 426.158C395.194 435.823 366.482 432.428 338.908 429.84C278.375 424.168 217.42 423.057 156.725 426.524C148.327 427.006 139.587 427.518 131.817 424.298C124.047 421.078 117.631 412.869 119.423 404.653"
        fill="#FEF7C7" />
    <path
        d="M81.8283 402.927C81.8283 402.927 140.169 338.359 175.97 354.044C211.772 369.733 270.357 405.036 300.518 390.089C357.685 361.757 359.453 384.427 420.08 424.978H76.7371"
        fill="#FCD573" />
    <path
        d="M443.547 335.658L444.471 335.008C451.517 330.085 456.581 327.162 456.635 327.131L459.257 325.62L451.528 346.123L443.547 335.658Z"
        fill="#3F5CB3" />
    <path
        d="M461.336 323.173L456.088 326.192C455.882 326.312 450.934 329.17 443.849 334.12L441.997 335.416L443.365 337.214L449.476 345.225L451.851 348.339L453.23 344.674L459.2 328.838L461.336 323.173ZM457.171 328.072L451.201 343.908L445.09 335.898C452.179 330.944 457.171 328.072 457.171 328.072Z"
        fill="white" />
    <path
        d="M437.847 339.818L438.973 338.973C440.494 337.842 442.086 336.69 443.713 335.541L444.569 334.939L451.642 344.205L452.083 344.649L451.841 345.305L450.203 349.641L437.847 339.818Z"
        fill="#3F5CB3" />
    <path
        d="M444.798 333.449L443.085 334.656C441.448 335.808 439.849 336.97 438.325 338.105L436.068 339.788L438.272 341.541L448.362 349.565L450.691 351.418L451.744 348.632L452.852 345.688L453.354 344.362L452.446 343.48L446.062 335.111L444.798 333.449ZM444.339 336.427L450.819 344.923H450.822L449.711 347.866L439.621 339.846C441.266 338.622 442.843 337.48 444.339 336.427Z"
        fill="white" />
    <path
        d="M431.845 344.536L432.561 343.955C434.365 342.495 436.264 341.011 438.213 339.548L438.883 339.042L450.667 348.413L444.078 365.88L431.845 344.536Z"
        fill="#3F5CB3" />
    <path
        d="M438.896 337.672L437.557 338.681C435.6 340.154 433.689 341.648 431.874 343.115L430.439 344.277L431.359 345.877L441.99 364.424L444.281 368.414L445.904 364.11L451.399 349.535L451.96 348.055L450.721 347.074L440.214 338.718L438.896 337.672ZM438.861 340.414L449.371 348.77L443.876 363.344L433.238 344.8C435.16 343.248 437.042 341.785 438.861 340.414Z"
        fill="white" />
    <path
        d="M418.791 356.311L419.647 355.464C423.298 351.832 427.397 348.161 431.83 344.544L432.823 343.737L444.652 364.366L440.907 374.297L418.791 356.311Z"
        fill="#3F5CB3" />
    <path
        d="M433.126 342.086L431.144 343.703C426.688 347.34 422.559 351.039 418.883 354.694L417.171 356.393L419.044 357.915L439.052 374.188L441.389 376.089L442.454 373.272L445.487 365.224L445.845 364.267L445.339 363.382L434.399 344.304L433.126 342.086ZM432.519 345.385L443.455 364.462L440.422 372.506L420.411 356.233C424.365 352.301 428.502 348.657 432.519 345.385Z"
        fill="white" />
    <path
        d="M412.422 363.251L412.875 362.721C414.724 360.567 416.777 358.348 418.988 356.123L419.682 355.422L441.374 373.07L430.519 401.856L412.422 363.251Z"
        fill="#3F5CB3" />
    <path
        d="M419.603 353.962L418.215 355.357C415.993 357.6 413.917 359.839 412.051 362.014L411.142 363.08L411.732 364.349L428.445 399.99L430.626 404.643L432.439 399.836L442.11 374.181L442.662 372.721L441.449 371.733L421.127 355.203L419.603 353.962ZM419.76 356.885L440.079 373.415L430.409 399.07L413.7 363.426C415.633 361.173 417.67 358.991 419.76 356.885Z"
        fill="white" />
    <path
        d="M397.255 392.475L397.372 391.815C398.933 382.862 403.922 373.333 412.212 363.497L413.301 362.201L431.134 400.226L426.053 413.713L397.255 392.475Z"
        fill="#3F5CB3" />
    <path
        d="M413.565 360.205L411.379 362.8C402.969 372.783 397.897 382.482 396.302 391.631L396.072 392.951L397.153 393.747L424.254 413.733L426.563 415.436L427.572 412.756L431.988 401.036L432.311 400.181L431.923 399.351L415.006 363.275L413.565 360.205ZM413.04 364.198L429.957 400.27L425.544 411.99L398.44 392C400.138 382.246 405.831 372.752 413.04 364.198Z"
        fill="white" />
    <path
        d="M417.906 431.487C402.054 420.421 395.091 407.426 397.205 392.865L397.465 391.073L426.51 412.496L419.048 432.287L417.906 431.487Z"
        fill="#3F5CB3" />
    <path
        d="M396.651 389.125L396.131 392.708C393.953 407.709 401.069 421.057 417.283 432.376L419.571 433.973L420.556 431.361L427.235 413.648L427.813 412.11L426.493 411.135L399.565 391.275L396.651 389.125ZM398.279 393.022L425.204 412.882L418.524 430.599C401.418 418.653 396.446 405.641 398.279 393.022Z"
        fill="white" />
    <path
        d="M458.775 325.453L459.751 328.311C459.769 328.366 461.629 333.823 463.684 342.247L463.956 343.344L451.046 345.946L458.775 325.453Z"
        fill="#284686" />
    <path
        d="M458.828 322.239L456.695 327.894L450.725 343.73L449.344 347.395L453.185 346.619L463.061 344.633L465.278 344.185L464.74 341.99C462.68 333.556 460.797 328.014 460.779 327.959L458.828 322.239ZM458.726 328.66C458.784 328.831 460.612 334.24 462.632 342.506L452.753 344.492L458.726 328.66Z"
        fill="white" />
    <path
        d="M449.725 349.464L451.571 344.564L463.665 342.13L463.905 343.146C464.355 345.009 464.788 346.93 465.199 348.855L465.49 350.233L449.725 349.464Z"
        fill="#284686" />
    <path
        d="M464.472 340.862L462.425 341.275L451.943 343.381L450.766 343.617L450.344 344.742L449.233 347.689L448.183 350.475L451.156 350.619L464.031 351.248L466.844 351.384L466.261 348.632C465.853 346.701 465.416 344.769 464.964 342.892L464.472 340.862ZM462.855 343.402C463.281 345.18 463.714 347.077 464.141 349.08L451.262 348.451L452.373 345.508L462.855 343.402Z"
        fill="white" />
    <path
        d="M450.19 348.233L465.227 348.968L465.398 349.792C465.909 352.253 466.346 354.554 466.736 356.831L466.889 357.74L443.603 365.699L450.19 348.233Z"
        fill="#284686" />
    <path
        d="M449.451 347.111L448.896 348.591L443.398 363.162L441.776 367.47L446.132 365.979L466.366 359.066L468.115 358.468L467.805 356.645C467.414 354.362 466.976 352.047 466.461 349.569L466.122 347.928L464.442 347.846L451.032 347.189L449.451 347.111ZM450.926 349.353L464.336 350.01C464.796 352.239 465.253 354.584 465.665 357.012L445.431 363.928L450.926 349.353Z"
        fill="white" />
    <path
        d="M440.427 374.121L444.05 364.5L444.357 364.12L444.657 364.014L466.676 356.493L466.885 357.755C467.832 363.406 468.486 368.869 468.837 373.994L468.918 375.194L440.427 374.121Z"
        fill="#284686" />
    <path
        d="M467.537 355.053L465.116 355.877L444.306 362.988L443.818 363.156L443.456 363.528L443.141 363.853L442.976 364.28L439.943 372.328L438.884 375.149L441.892 375.262L467.672 376.233L470.083 376.325L469.918 373.918C469.57 368.759 468.911 363.258 467.958 357.573L467.537 355.053ZM465.823 357.932C466.672 363.036 467.379 368.506 467.753 374.065L441.976 373.094L445.009 365.043H445.012L465.823 357.932Z"
        fill="white" />
    <path
        d="M440.9 372.885L468.839 373.938L468.898 374.919C469.088 378.044 469.169 381.07 469.139 383.914L469.132 384.615L430.044 401.678L440.9 372.885Z"
        fill="#284686" />
    <path
        d="M440.158 371.774L439.605 373.234L429.935 398.889L428.122 403.699L432.834 401.644L468.922 385.89L470.204 385.326L470.223 383.924C470.256 381.053 470.175 377.999 469.981 374.854L469.864 372.892L467.9 372.817L441.719 371.832L440.158 371.774ZM441.639 373.999L467.819 374.984C467.995 377.948 468.087 380.933 468.054 383.9L431.965 399.654L441.639 373.999Z"
        fill="white" />
    <path
        d="M425.571 413.532L430.654 400.048L469.152 383.241L469.119 384.937C468.855 397.792 466.317 408.243 461.577 416L461.226 416.571L425.571 413.532Z"
        fill="#284686" />
    <path
        d="M470.272 381.57L467.165 382.927L430.64 398.872L429.8 399.238L429.478 400.093L425.063 411.809L424.048 414.489L426.909 414.736L460.463 417.597L461.8 417.71L462.504 416.565C467.341 408.643 469.935 398.007 470.199 384.958L470.272 381.57ZM468.033 384.913C467.803 396.1 465.809 406.989 460.65 415.436L427.089 412.575L431.508 400.858L468.033 384.913Z"
        fill="white" />
    <path
        d="M428.082 432.732C425.505 432.732 422.77 432.575 419.955 432.26L418.571 432.106L426.026 412.318L461.994 415.381L461.007 416.899C454.174 427.405 443.096 432.732 428.082 432.732Z"
        fill="#284686" />
    <path
        d="M425.306 411.169L424.726 412.704L418.052 430.417L417.066 433.029L419.839 433.336C422.695 433.654 425.469 433.818 428.086 433.818C443.489 433.818 454.872 428.324 461.919 417.49L463.895 414.454L460.284 414.147L426.944 411.305L425.306 411.169ZM426.759 413.47L460.099 416.307C454.093 425.541 444.073 431.647 428.086 431.647C425.567 431.647 422.906 431.497 420.082 431.183L426.759 413.47Z"
        fill="white" />
    <path
        d="M506.307 335.898C506.307 335.898 506.02 315.956 515.174 318.428C524.333 320.899 506.307 335.898 506.307 335.898Z"
        fill="#F3612F" />
    <path
        d="M498.92 340.059C498.92 340.059 489.141 330.65 495.601 326.592C502.057 322.534 498.92 340.059 498.92 340.059Z"
        fill="#F3612F" />
    <path
        d="M491.305 352.957C491.305 352.957 481.526 343.552 487.984 339.49C494.443 335.432 491.305 352.957 491.305 352.957Z"
        fill="#F3612F" />
    <path d="M485.18 367.38C485.18 367.38 475.399 357.976 481.858 353.917C488.317 349.856 485.18 367.38 485.18 367.38Z"
        fill="#F3612F" />
    <path
        d="M505.785 344.298C505.785 344.298 517.124 332.735 520.115 338.544C523.106 344.353 505.785 344.298 505.785 344.298Z"
        fill="#F3612F" />
    <path
        d="M499.091 356.202C499.091 356.202 510.428 344.636 513.42 350.445C516.412 356.253 499.091 356.202 499.091 356.202Z"
        fill="#F3612F" />
    <path
        d="M489.618 369.146C489.618 369.146 500.955 357.58 503.95 363.388C506.941 369.197 489.618 369.146 489.618 369.146Z"
        fill="#F3612F" />
    <path
        d="M477.119 379.784C477.119 379.784 467.34 370.379 473.796 366.317C480.256 362.259 477.119 379.784 477.119 379.784Z"
        fill="#F3612F" />
    <path
        d="M469.498 392.684C469.498 392.684 459.716 383.279 466.176 379.221C472.636 375.159 469.498 392.684 469.498 392.684Z"
        fill="#F3612F" />
    <path
        d="M463.371 407.107C463.371 407.107 453.591 397.702 460.05 393.644C466.509 389.586 463.371 407.107 463.371 407.107Z"
        fill="#F3612F" />
    <path
        d="M483.982 384.027C483.982 384.027 495.323 372.461 498.314 378.27C501.305 384.078 483.982 384.027 483.982 384.027Z"
        fill="#F3612F" />
    <path
        d="M477.283 395.928C477.283 395.928 488.625 384.362 491.615 390.171C494.604 395.979 477.283 395.928 477.283 395.928Z"
        fill="#F3612F" />
    <path
        d="M467.814 408.872C467.814 408.872 479.151 397.306 482.144 403.115C485.134 408.923 467.814 408.872 467.814 408.872Z"
        fill="#F3612F" />
    <path d="M454.797 426.435L510.32 328.435L510.966 328.801L455.443 426.8L454.797 426.435Z" fill="#F3612F" />
    <path
        d="M499.94 347.573L497.002 333.077L497.734 332.943L500.491 346.475L513.733 340.629L514.059 341.296L499.94 347.573Z"
        fill="#F3612F" />
    <path
        d="M492.776 360.297L488.9 346.089L489.617 345.908L493.257 359.162L504.439 352.944L504.811 353.587L492.776 360.297Z"
        fill="#F3612F" />
    <path
        d="M486.216 371.969L483.08 361.534L483.788 361.316L486.622 370.782L496.766 365.162L497.191 365.771L486.216 371.969Z"
        fill="#F3612F" />
    <path
        d="M478.225 385.805L474.708 372.821L475.429 372.643L478.767 384.909L491.23 381.463L491.405 382.185L478.225 385.805Z"
        fill="#F3612F" />
    <path
        d="M471.493 397.792L467.399 388.11L468.068 387.795L471.905 396.92L482.269 394.164L482.452 394.885L471.493 397.792Z"
        fill="#F3612F" />
    <path
        d="M463.782 411.375L461.692 401.412L462.425 401.279L464.339 410.305L470.367 407.546L470.679 408.219L463.782 411.375Z"
        fill="#F3612F" />
    <path
        d="M5.88684 296.27L6.10435 295.043C8.41688 281.976 10.7516 273.261 10.7749 273.176L11.6439 269.952L24.7089 298.807L5.88684 296.27Z"
        fill="#D54920" />
    <path
        d="M11.3569 266.414L9.61895 272.862C9.52354 273.217 7.24759 281.713 4.92548 294.834L4.49115 297.289L6.96305 297.621L22.4076 299.706L26.6904 300.281L24.9083 296.345L14.1117 272.499L11.3569 266.414ZM11.9308 273.487L22.7274 297.333L7.28282 295.251C9.61313 282.086 11.9308 273.487 11.9308 273.487Z"
        fill="white" />
    <path
        d="M4.432 305.378C4.85265 302.486 5.33178 299.484 5.85605 296.451L6.0527 295.316L23.4976 297.662H24.1901L24.5126 298.366L27.1942 304.298L4.20868 306.913L4.432 305.378Z"
        fill="#D54920" />
    <path
        d="M5.06951 293.976L4.67657 296.25C4.14991 299.296 3.66907 302.308 3.24774 305.203L2.80042 308.28L5.88755 307.928L25.6979 305.672L28.9612 305.299L27.6079 302.308L25.6032 297.874L24.9667 296.465H23.5779L7.35502 294.284L5.06951 293.976ZM7.0356 296.656L23.4175 298.858H23.422L25.4267 303.292L5.61669 305.549C6.07222 302.417 6.55408 299.439 7.0356 296.656Z"
        fill="white" />
    <path
        d="M2.76141 318.831L2.86811 317.819C3.24259 314.263 3.69847 310.568 4.22308 306.838L4.35201 305.918L26.7742 303.364L38.1136 328.417L2.76141 318.831Z"
        fill="#D54920" />
    <path
        d="M27.505 302.075L25.7718 302.274L5.13716 304.626L3.29555 304.834L3.03769 306.67C2.51171 310.41 2.05413 314.12 1.67794 317.692L1.46454 319.72L3.432 320.253L35.3495 328.909L40.2505 330.236L38.1572 325.61L28.2238 303.665L27.505 302.075ZM26.043 304.653L35.9764 326.598L4.05853 317.942C4.45797 314.15 4.91795 310.492 5.40802 307.002L26.043 304.653Z"
        fill="white" />
    <path
        d="M1.33869 344.469C1.36263 336.52 1.82603 328.038 2.71589 319.255L2.85815 317.85L37.5979 327.268L44.0013 341.416L1.33459 345.798L1.33869 344.469Z"
        fill="#D54920" />
    <path
        d="M1.80929 316.328L1.5251 319.135C0.631138 327.956 0.165692 336.479 0.141752 344.465L0.133545 347.125L2.78021 346.851L42.4702 342.773L45.7768 342.434L44.4065 339.409L38.921 327.289L38.4559 326.263L37.3666 325.966L4.53325 317.067L1.80929 316.328ZM3.90672 319.374L36.7401 328.277L42.2253 340.393L2.53568 344.472C2.56167 335.853 3.09962 327.34 3.90672 319.374Z"
        fill="white" />
    <path
        d="M1.93038 360.544L1.87155 359.774C1.53606 355.408 1.35686 350.742 1.33873 345.908L1.33429 344.824L43.581 340.485L62.5946 382.482L1.93038 360.544Z"
        fill="#D54920" />
    <path
        d="M44.3158 339.207L42.6011 339.385L2.29082 343.521L0.133545 343.743L0.141752 345.911C0.159878 350.776 0.340446 355.47 0.677989 359.863L0.796325 361.405L2.25046 361.931L59.52 382.643L64.8544 384.571L62.5155 379.405L45.0268 340.779L44.3158 339.207ZM42.846 341.764L60.3343 380.393L3.06473 359.682C2.71351 355.104 2.55278 350.489 2.53568 345.904L42.846 341.764Z"
        fill="white" />
    <path
        d="M16.6581 408.301C8.61623 396.875 3.68269 381.077 1.99394 361.347L1.83423 359.48L62.0367 381.248L70.8867 400.793L17.0839 408.906L16.6581 408.301Z"
        fill="#D54920" />
    <path
        d="M0.482361 357.72L0.801098 361.446C2.50797 381.391 7.51402 397.388 15.6794 408.991L16.5309 410.202L17.9943 409.979L69.5011 402.212L72.6292 401.74L71.3249 398.858L63.3357 381.214L62.9188 380.294L61.9687 379.952L4.00042 358.992L0.482361 357.72ZM3.18648 361.245L61.1548 382.202L69.144 399.843L17.6373 407.614C8.8235 395.091 4.66182 378.482 3.18648 361.245Z"
        fill="white" />
    <path
        d="M63.6691 430.773C43.5926 430.773 28.0981 423.658 17.6154 409.624L16.4198 408.021L70.4685 399.87L83.5537 428.773L82.0376 429.043C75.5655 430.192 69.3854 430.773 63.6691 430.773Z"
        fill="#D54920" />
    <path
        d="M71.1853 398.554L69.3943 398.824L18.2173 406.54L14.2649 407.135L16.6564 410.338C27.3771 424.694 43.1944 431.969 63.6694 431.969C69.4558 431.969 75.706 431.381 82.2469 430.222L85.279 429.682L84.0092 426.878L71.9322 400.202L71.1853 398.554ZM69.7513 401.19L81.8283 427.863C75.2734 429.029 69.2318 429.576 63.6694 429.576C42.2694 429.576 27.9431 421.449 18.5746 408.906L69.7513 401.19Z"
        fill="white" />
    <path
        d="M11.8083 269.887L14.8021 271.357C14.8822 271.398 22.9268 275.364 34.3148 282.277L35.3811 282.923L24.8669 298.735L11.8083 269.887Z"
        fill="#F3612F" />
    <path
        d="M9.34332 267.344L12.0929 273.419L22.8854 297.261L24.6675 301.196L27.0601 297.6L35.6875 284.622L37.0681 282.547L34.9358 281.251C23.4843 274.304 15.4099 270.321 15.3295 270.284L9.34332 267.344ZM14.2741 272.431C14.5214 272.554 22.4412 276.472 33.6937 283.299L25.0666 296.273L14.2741 272.431Z"
        fill="white" />
    <path
        d="M24.3926 297.692L34.5545 282.421L35.5377 283.019C38.065 284.564 40.6381 286.188 43.1859 287.843L44.4879 288.691L27.3532 304.226L24.3926 297.692Z"
        fill="#F3612F" />
    <path
        d="M34.196 280.797L32.9197 282.715L23.7633 296.475L23.0284 297.58L23.5759 298.79L25.5851 303.224L26.9407 306.212L29.374 304.007L44.1414 290.619L46.4427 288.533L43.8384 286.841C41.2848 285.179 38.7021 283.552 36.1621 282L34.196 280.797ZM34.9132 284.041C37.3259 285.515 39.8775 287.121 42.5334 288.848L27.7656 302.236L25.7564 297.802L34.9132 284.041Z"
        fill="white" />
    <path
        d="M26.9322 303.292L43.6479 288.14L44.4225 288.65C47.6756 290.783 50.668 292.82 53.5708 294.879L54.4021 295.467L38.2719 328.345L26.9322 303.292Z"
        fill="#F3612F" />
    <path
        d="M43.5307 286.633L42.1579 287.877L26.7742 301.819L25.4822 302.991L26.201 304.578L36.1345 326.526L38.2281 331.152L40.4647 326.595L55.0283 296.906L55.9257 295.077L54.2629 293.901C51.3475 291.836 48.3435 289.792 45.0795 287.648L43.5307 286.633ZM43.7659 289.651C46.7081 291.58 49.7675 293.651 52.8789 295.853L38.3153 325.538L28.3822 303.593L43.7659 289.651Z"
        fill="white" />
    <path
        d="M37.8779 327.477V326.94L38.0003 326.687L53.6019 294.892L54.7503 295.713C61.955 300.851 68.6365 306.103 74.609 311.316L75.611 312.192L44.1595 341.347L37.8779 327.477Z"
        fill="#F3612F" />
    <path
        d="M53.1487 293.101L51.9056 295.631L36.9254 326.161L36.6809 326.66V327.214V327.73L36.894 328.205L42.3836 340.328L43.7546 343.354L46.192 341.094L75.4495 313.973L77.4002 312.164L75.3961 310.414C69.3925 305.173 62.6803 299.901 55.4455 294.738L53.1487 293.101ZM54.055 296.687C60.5729 301.337 67.3255 306.547 73.8216 312.215L44.5644 339.34L39.0748 327.217V327.214L54.055 296.687Z"
        fill="white" />
    <path
        d="M43.7389 340.41L74.875 311.545L75.6869 312.263C79.2997 315.46 82.6891 318.673 85.7612 321.815L86.3019 322.366L62.7525 382.41L43.7389 340.41Z"
        fill="#F3612F" />
    <path
        d="M74.8561 309.928L73.2659 311.405L43.5569 338.947L42.2933 340.12L43.0039 341.689L60.4922 380.321L62.8314 385.487L64.9022 380.209L87.1339 323.525L87.6985 322.086L86.6168 320.978C83.5262 317.815 80.1156 314.585 76.4802 311.368L74.8561 309.928ZM74.8937 313.159C78.3304 316.198 81.6939 319.368 84.9051 322.65L62.6735 379.333L45.1848 340.701L74.8937 313.159Z"
        fill="white" />
    <path
        d="M62.1951 381.18L85.5625 321.597L86.858 322.947C100.572 337.231 109.191 351.361 112.475 364.944L112.649 365.665L71.0403 400.722L62.1951 381.18Z"
        fill="#F3612F" />
    <path
        d="M85.1313 319.419L83.7654 322.899L61.2649 380.274L60.8962 381.214L61.3127 382.133L69.2975 399.771L70.6018 402.653L73.0211 400.615L112.854 367.057L113.986 366.103L113.638 364.663C110.304 350.872 101.584 336.557 87.7215 322.116L85.1313 319.419ZM85.9944 323.774C97.9802 336.26 107.714 350.345 111.312 365.224L71.4784 398.786L63.4936 381.145L85.9944 323.774Z"
        fill="white" />
    <path
        d="M70.6265 399.805L112.42 364.585L112.834 366.54C117.51 388.609 108.117 409.197 84.9148 427.74L83.712 428.701L70.6265 399.805Z"
        fill="#F3612F" />
    <path
        d="M113.176 362.383L110.12 364.957L70.5475 398.304L69.1625 399.474L69.9094 401.121L81.9864 427.795L83.2565 430.598L85.6624 428.677C109.247 409.826 118.783 388.838 114.005 366.291L113.176 362.383ZM111.663 366.786C115.751 386.079 109.376 406.66 84.1676 426.807L72.0902 400.137L111.663 366.786Z"
        fill="white" />
    <path
        d="M292.238 101.183C292.238 101.183 285.552 115.412 298.407 133.022C308.045 146.222 323.003 165.391 329.891 174.168C332.193 177.101 336.283 177.952 339.552 176.154C348.071 171.47 367.038 160.892 374.162 130.256C374.162 130.256 384.791 129.139 390.413 122.133C396.135 115.005 392.499 105.614 388.17 103.333C384.391 101.347 372.332 111.942 369.36 115.005C360.756 123.87 342.596 142.848 338.766 149.05C338.766 149.05 322.036 90.7453 292.238 101.183Z"
        fill="#C6C0E6" />
    <path d="M334.645 137.467L321.177 163.009L319.768 161.19L317.084 147.655L334.645 137.467Z" fill="#A3A4D9" />
    <path d="M304.789 98.3453C304.789 98.3453 327.2 113.097 335.739 136.304L314.119 159.296L300.518 117.217"
        fill="#F3612F" />
    <path
        d="M303.486 34.5743C303.486 34.5743 328.448 38.988 322.196 80.5026C321.273 86.6325 315.716 90.9914 309.543 90.4137C301.02 89.6205 290.333 83.4974 280.922 61.6889C267.249 30.0205 303.486 34.5743 303.486 34.5743Z"
        fill="#C6C0E6" />
    <path d="M284.225 68.6257V88.1505L304.789 98.3453L310.863 83.4872L284.225 68.6257Z" fill="#C6C0E6" />
    <path
        d="M289.26 267.74C288.579 290.773 248.156 312.202 236.128 318.075C233.997 319.115 231.757 319.904 229.439 320.424C221.005 322.315 197.997 327.173 175.971 329.135C163.804 330.219 152.9 331.928 146.733 334.602C126.564 343.357 115.947 366.441 115.947 366.441L109.844 369.098C104.533 336.725 129.216 305.682 129.216 305.682C129.216 305.682 141.693 313.378 144.344 313.641C146.176 313.826 158.338 310.352 169.895 304.701C175.107 302.154 179.982 298.892 184.156 295.867C193.579 289.033 222.643 299.778 222.643 299.778C240.557 274.506 254.479 200.752 254.479 200.752C254.479 200.752 290.053 240.677 289.26 267.74Z"
        fill="#C6C0E6" />
    <path
        d="M243.983 243.88L232.79 261.665L278.439 291.751C278.439 291.751 301.071 284.458 301.865 257.395C302.662 230.33 243.983 243.88 243.983 243.88Z"
        fill="#284686" />
    <path
        d="M415.857 388.995C408.959 409.692 365.434 416.855 365.434 416.855C365.434 416.855 362.51 399.607 361.187 391.915C361.146 391.682 361.094 391.453 361.033 391.221C359.538 385.487 351.884 380.38 342.511 369.097C342.511 369.097 333.048 357.986 329.86 352.909C314.563 328.533 325.845 315.494 325.845 315.494C224.989 247.839 254.479 200.752 254.479 200.752C254.479 200.752 274.13 194.513 298.811 210.164C323.496 225.821 348.181 287.908 351.365 296.397C354.549 304.886 352.955 318.684 352.955 318.684C353.981 328.499 359.429 344.468 364.818 358.414C370.468 373.036 376.046 385.426 376.378 386.157L376.395 386.195C386.213 390.708 413.207 384.482 413.207 384.482L415.857 388.995Z"
        fill="#C6C0E6" />
    <path
        d="M294.823 204.461C269.068 188.294 254.479 200.751 254.479 200.751C254.479 200.751 236.798 215.172 243.983 243.88C247.017 256.017 263.938 274.044 273.069 282.598L336.337 262.246C336.337 262.246 320.579 220.628 294.823 204.461Z"
        fill="#3F5CB3" />
    <path
        d="M304.789 98.3453C304.789 98.3453 325.124 116.998 323.202 138.909C321.276 160.817 312.915 186.41 314.057 198.992C315.203 211.573 317.59 223.069 304.789 220.683C295.289 218.913 261.349 210.351 249.192 207.768C245.519 206.989 243.316 203.23 244.421 199.646C248.275 187.145 264.766 163.412 261.175 148.885C256.401 129.58 255.142 73.7299 284.225 88.1505C304.789 98.3453 304.789 98.3453 304.789 98.3453Z"
        fill="#F3612F" />
    <path
        d="M288.305 182.147C286.886 187.214 282.026 194.267 276.722 193.426C267.177 191.908 263.343 178.602 263.343 178.602C261.479 178.397 259.653 178.147 257.868 177.856C231.213 173.508 213.652 159.986 207.229 152.581C204.599 149.552 204.569 145.06 207.138 141.979C214.811 132.752 231.6 112.687 243.31 99.5726C258.932 82.0786 275.419 85.8906 275.419 85.8906C293.131 114.862 235.57 145.631 235.57 145.631C240.601 147.419 253.367 154.851 264.554 161.634C266.414 162.762 268.23 163.87 269.957 164.937C273.114 166.868 275.976 168.65 278.302 170.103C282.201 172.537 289.543 177.723 288.305 182.147Z"
        fill="#C6C0E6" />
    <path
        d="M277.837 85.9897C277.837 85.9897 258.138 79.0393 233.402 104.421L254.411 133.169L279.619 123.508L285.07 96.147L277.837 85.9897Z"
        fill="#F3612F" />
    <path
        d="M269.961 164.933C269.961 164.933 279.095 167.101 285.07 164.933C291.045 162.769 288.866 171.877 277.515 173.323C266.165 174.769 269.961 164.933 269.961 164.933Z"
        fill="#C6C0E6" />
    <path
        d="M377.691 114.181C381.743 101.166 372.161 94.7659 371.689 104.506C371.381 110.872 369.36 115.005 369.36 115.005"
        fill="#C6C0E6" />
    <path
        d="M376.395 386.195L361.033 391.221C359.538 385.487 351.885 380.38 342.511 369.097L364.781 358.321L364.818 358.414L376.378 386.157L376.395 386.195Z"
        fill="white" />
    <path
        d="M175.97 329.135C163.804 330.219 152.9 331.928 146.733 334.602L144.344 313.641C146.176 313.826 158.338 310.352 169.895 304.701L175.97 329.135Z"
        fill="white" />
    <path
        d="M146.733 334.602C126.724 343.292 116.114 366.082 115.951 366.438L115.947 366.441L109.844 369.098C104.533 336.725 129.216 305.682 129.216 305.682C129.216 305.682 131.019 306.797 133.404 308.188C137.29 310.462 142.7 313.477 144.344 313.641L145.523 323.993L146.733 334.602Z"
        fill="#F3612F" />
    <path
        d="M133.404 308.188C133.404 308.188 115.087 321.207 109.844 369.098C104.533 336.725 129.216 305.682 129.216 305.682C129.216 305.682 131.019 306.797 133.404 308.188Z"
        fill="#F1AD1D" />
    <path
        d="M146.733 334.602C126.724 343.292 116.114 366.082 115.951 366.438L115.947 366.441C115.947 366.441 118.777 333.723 145.523 323.993L146.733 334.602Z"
        fill="#D54920" />
    <path
        d="M139.039 319.651C139.039 322.048 137.096 323.993 134.698 323.993C132.3 323.993 130.357 322.048 130.357 319.651C130.357 317.255 132.3 315.313 134.698 315.313C137.096 315.313 139.039 317.255 139.039 319.651Z"
        fill="#FEF7C7" />
    <path
        d="M415.857 388.995C408.959 409.692 365.434 416.855 365.434 416.855C365.434 416.855 365.15 415.186 364.719 412.653C363.769 407.046 362.096 397.214 361.187 391.915C361.146 391.682 361.094 391.453 361.033 391.221L367.835 388.995L376.395 386.195C386.213 390.708 413.207 384.482 413.207 384.482L415.857 388.995Z"
        fill="#F3612F" />
    <path
        d="M415.857 388.995C408.959 409.692 365.434 416.855 365.434 416.855C365.434 416.855 365.15 415.186 364.719 412.653C364.719 412.653 396.682 408.564 415.857 388.995Z"
        fill="#F1AD1D" />
    <path
        d="M413.207 384.482C391.976 401.928 367.835 388.995 367.835 388.995L376.395 386.195C386.213 390.708 413.207 384.482 413.207 384.482Z"
        fill="#D54920" />
    <path
        d="M375.718 400.67C375.718 402.903 373.905 404.715 371.669 404.715C369.432 404.715 367.623 402.903 367.623 400.67C367.623 398.434 369.432 396.622 371.669 396.622C373.905 396.622 375.718 398.434 375.718 400.67Z"
        fill="white" />
    <path
        d="M263.343 178.602C264.694 169.374 269.766 165.094 269.957 164.937C268.23 163.87 266.414 162.762 264.554 161.634C260.713 166.198 258.463 175.21 257.868 177.856L263.343 178.602Z"
        fill="#3F5CB3" />
    <path
        d="M267.868 169.367C267.71 169.973 267.512 170.677 267.276 171.405C267.191 171.675 267.098 171.949 267.003 172.222C266.811 172.766 266.599 173.309 266.37 173.826C266.045 174.571 265.679 175.248 265.279 175.781C264.075 177.395 261.791 176.068 260.334 174.937C259.961 174.646 259.643 174.369 259.407 174.161C259.144 173.918 258.986 173.757 258.986 173.757C258.956 173.73 258.928 173.706 258.901 173.675C258.179 172.94 258.08 171.077 258.463 169.152C258.532 168.797 258.617 168.448 258.72 168.096C258.853 167.634 259.014 167.179 259.205 166.749C259.937 165.063 261.062 163.74 262.458 163.709C263.21 163.692 263.901 163.853 264.53 164.113C265.033 164.321 265.498 164.595 265.908 164.899C266.247 165.142 266.555 165.405 266.828 165.665C266.917 165.747 266.999 165.836 267.078 165.925C267.885 166.868 268.182 168.15 267.868 169.367Z"
        fill="#284686" />
    <path
        d="M265.344 165.836L259.609 168.383C259.718 168.017 259.845 167.655 259.999 167.313L264.243 165.21C264.643 165.374 265.016 165.593 265.344 165.836Z"
        fill="white" />
    <path
        d="M266.216 171.675C266.062 172.109 265.895 172.544 265.71 172.954L260.898 173.839C260.601 173.607 260.348 173.388 260.159 173.22L266.216 171.675Z"
        fill="white" />
    <path
        d="M266.903 169.484C266.78 169.85 266.62 170.267 266.435 170.704L259.756 172.058C259.181 171.62 259.103 170.506 259.407 169.357L266.274 167.432C266.917 167.993 267.157 168.759 266.903 169.484Z"
        fill="white" />
    <path
        d="M378.293 107.398C378.293 107.398 371.617 112.879 376.248 117.795C380.875 122.711 386.805 122.567 386.805 122.567C386.805 122.567 371.231 118.838 378.293 107.398Z"
        fill="#A3A4D9" />
    <path d="M235.967 107.928L231.843 112.701L254.411 133.169L235.967 107.928Z" fill="#A3A4D9" />
    <path d="M336.338 262.246L288.36 286L281.298 279.952L336.338 262.246Z" fill="#A3A4D9" />
    <path d="M276.876 290.722L236.241 270.667L238.108 265.173L276.876 290.722Z" fill="#A3A4D9" />
    <path
        d="M308.106 90.2292C308.106 90.2292 295.412 87.5865 290.501 78.4856C290.501 78.4856 291.38 86.995 306.222 94.8412L308.106 90.2292Z"
        fill="#A3A4D9" />
    <path
        d="M319.642 49.0291C319.642 49.0291 322.521 57.3504 325.945 60.3863C329.522 63.5624 323.178 66.3043 323.178 66.3043C323.178 66.3043 324.45 69.9863 325.661 71.6239C325.938 71.9966 325.982 72.5026 325.798 72.9299C325.62 73.3436 324.72 73.5795 324.098 73.7983C324.098 73.7983 325.363 74.6667 325.11 76.1846C324.857 77.7026 323.523 77.012 322.419 78.9299C321.314 80.8479 299.563 70.6427 319.642 49.0291Z"
        fill="#C6C0E6" />
    <path
        d="M295.385 61.0359C295.385 61.0359 292.426 56.2633 288.446 59.2308C284.465 62.1949 290.323 70.147 294.591 69.641C294.591 69.641 293.815 75.2068 289.02 76.3658C289.02 76.3658 275.135 70.2188 274.845 53.012C274.554 35.8017 282.875 36.3829 282.875 36.3829C282.875 36.3829 284.537 24.1607 316.359 30.5265C316.359 30.5265 319.686 31.6684 321.711 29.4325C321.711 29.4325 324.857 39.5214 315.545 42.4C315.545 42.4 296.903 41.5145 293.722 43.6855C291.862 44.9539 294.502 46.5675 297.016 47.6855C298.917 48.5368 299.779 50.759 298.962 52.6735L295.385 61.0359Z"
        fill="#A3A4D9" />
    <path d="M56.0878 262.4C56.0878 262.4 33.6259 239.486 47.0329 232.211C60.4403 224.936 56.0878 262.4 56.0878 262.4Z"
        fill="#3F5CB3" />
    <path
        d="M52.1047 275.433C52.1047 275.433 30.2748 275.323 33.2939 263.433C36.313 251.542 52.1047 275.433 52.1047 275.433Z"
        fill="#3F5CB3" />
    <path
        d="M57.5464 298.906C57.5464 298.906 35.7165 298.796 38.7356 286.906C41.7547 275.015 57.5464 298.906 57.5464 298.906Z"
        fill="#3F5CB3" />
    <path
        d="M66.417 322.503C66.417 322.503 44.5871 322.393 47.6062 310.503C50.6253 298.612 66.417 322.503 66.417 322.503Z"
        fill="#3F5CB3" />
    <path
        d="M64.8089 272.759C64.8089 272.759 65.1837 246.715 75.113 250.164C85.0423 253.61 64.8089 272.759 64.8089 272.759Z"
        fill="#3F5CB3" />
    <path
        d="M70.2144 294.051C70.2144 294.051 70.5892 268.004 80.5185 271.453C90.4479 274.899 70.2144 294.051 70.2144 294.051Z"
        fill="#3F5CB3" />
    <path
        d="M73.5481 319.631C73.5481 319.631 73.9226 293.583 83.8522 297.033C93.7815 300.479 73.5481 319.631 73.5481 319.631Z"
        fill="#3F5CB3" />
    <path d="M70.791 345.891C70.791 345.891 48.9611 345.781 51.9802 333.891C54.9993 322 70.791 345.891 70.791 345.891Z"
        fill="#3F5CB3" />
    <path
        d="M76.2329 369.364C76.2329 369.364 54.4028 369.255 57.4219 357.364C60.441 345.473 76.2329 369.364 76.2329 369.364Z"
        fill="#3F5CB3" />
    <path
        d="M85.1032 392.964C85.1032 392.964 63.2734 392.855 66.2924 380.964C69.3112 369.07 85.1032 392.964 85.1032 392.964Z"
        fill="#3F5CB3" />
    <path
        d="M83.4951 343.217C83.4951 343.217 83.8699 317.173 93.7993 320.622C103.729 324.068 83.4951 343.217 83.4951 343.217Z"
        fill="#3F5CB3" />
    <path
        d="M88.9007 364.509C88.9007 364.509 89.2755 338.465 99.2048 341.911C109.134 345.361 88.9007 364.509 88.9007 364.509Z"
        fill="#3F5CB3" />
    <path
        d="M92.234 390.089C92.234 390.089 92.6088 364.041 102.539 367.491C112.468 370.937 92.234 390.089 92.234 390.089Z"
        fill="#3F5CB3" />
    <path d="M96.564 424.978L52.4854 249.251L53.6433 248.961L97.722 424.687L96.564 424.978Z" fill="#3F5CB3" />
    <path
        d="M61.6311 283.056L42.124 269.432L42.8237 268.465L61.0569 281.169L69.9938 259.675L71.1135 260.089L61.6311 283.056Z"
        fill="#3F5CB3" />
    <path
        d="M67.4107 305.822L47.1239 293.576L47.7607 292.568L66.7066 303.969L72.8323 284.325L73.9786 284.66L67.4107 305.822Z"
        fill="#3F5CB3" />
    <path
        d="M72.7194 326.697L57.4845 318.024L58.0659 316.981L71.8744 324.862L77.4525 307.07L78.6221 307.309L72.7194 326.697Z"
        fill="#3F5CB3" />
    <path
        d="M78.7658 351.672L60.2625 340.448L60.9037 339.439L78.4047 350.027L89.0977 332.195L90.1021 332.838L78.7658 351.672Z"
        fill="#3F5CB3" />
    <path
        d="M84.227 373.101L68.7096 366.369L69.1412 365.255L83.738 371.631L92.7521 356.927L93.7644 357.559L84.227 373.101Z"
        fill="#3F5CB3" />
    <path
        d="M90.3161 397.474L76.8287 388.185L77.5291 387.221L89.7765 395.61L93.7408 385.706L94.8495 386.147L90.3161 397.474Z"
        fill="#3F5CB3" />
    <path
        d="M470.599 435.778H54.3482C49.1211 435.778 44.884 431.542 44.884 426.318C44.884 421.091 49.1211 416.855 54.3482 416.855H470.599C475.828 416.855 480.066 421.091 480.066 426.318C480.066 431.542 475.828 435.778 470.599 435.778Z"
        fill="#F1AD1D" />
    <path
        d="M298.291 347.573C298.291 360.523 287.789 371.019 274.838 371.019C261.883 371.019 251.384 360.523 251.384 347.573C251.384 334.626 261.883 324.126 274.838 324.126C287.789 324.126 298.291 334.626 298.291 347.573Z"
        fill="#F1AD1D" />
    <path
        d="M74.9598 196.169H176.621C178.692 196.169 179.145 193.258 177.172 192.629L160.157 187.2C160.157 187.2 190.873 157.091 169.175 150.236C147.478 143.381 146.733 167.432 146.733 167.432C146.733 167.432 148.824 127.709 134.698 128.821C120.572 129.935 127.343 163.009 127.343 163.009C127.343 163.009 112.9 166.458 111.312 172.058C111.312 172.058 115.998 142.776 98.7571 150.236C81.5157 157.699 92.4474 184.595 92.4474 184.595L74.2228 192.697C72.4325 193.494 73.0009 196.169 74.9598 196.169Z"
        fill="#FCD573" />
    <path
        d="M372.635 274.174H441.433C442.834 274.174 443.142 272.201 441.809 271.777L430.293 268.102C430.293 268.102 451.079 247.729 436.393 243.09C421.711 238.45 421.207 254.724 421.207 254.724C421.207 254.724 422.622 227.843 413.065 228.596C403.503 229.349 408.085 251.733 408.085 251.733C408.085 251.733 398.311 254.068 397.237 257.856C397.237 257.856 400.407 238.039 388.739 243.09C377.071 248.14 384.469 266.342 384.469 266.342L372.134 271.825C370.925 272.362 371.312 274.174 372.635 274.174Z"
        fill="#FCD573" />
</svg>