<?xml version="1.0" encoding="UTF-8" standalone="no"?>
<svg xmlns:dc="http://purl.org/dc/elements/1.1/" xmlns:cc="http://creativecommons.org/ns#"
  xmlns:rdf="http://www.w3.org/1999/02/22-rdf-syntax-ns#" xmlns:svg="http://www.w3.org/2000/svg"
  xmlns="http://www.w3.org/2000/svg" viewBox="0 0 3029.3333 2496" xml:space="preserve"
  id="svg2" version="1.1">
  <metadata id="metadata8">
    <rdf:RDF>
      <cc:Work rdf:about="">
        <dc:format>image/svg+xml</dc:format>
        <dc:type rdf:resource="http://purl.org/dc/dcmitype/StillImage" />
      </cc:Work>
    </rdf:RDF>
  </metadata>
  <defs id="defs6" />
  <g transform="matrix(1.3333333,0,0,-1.3333333,0,2496)" id="g10">
    <g transform="scale(0.1)" id="g12">
      <path id="path14" style="fill:#fef7c7;fill-opacity:1;fill-rule:nonzero;stroke:none"
        d="m 9196.13,15033.8 c -92.9,-18 -189.54,-36.3 -254.56,-65.8 -116.88,-52.9 -100.7,-131.2 -7.07,-189.6 93.64,-58.4 250.47,-100.6 408.99,-137.9 919.21,-216.3 2048.41,-320.2 3151.41,-289.8 245,6.7 497.4,21 702.7,68.4 466.5,107.7 521.7,336.2 529.3,532.3 5.9,153.7 8.9,312.7 -163.3,454 -123.1,101.1 -450.5,285.9 -774.5,318.4 -353.2,35.5 -841,-90.7 -1135.5,-149 -843.1,-166.7 -1610.2,-376.6 -2457.47,-541" />
      <g transform="scale(1.12375)" id="g16">
        <path id="path18" style="fill:#fef7c7;fill-opacity:1;fill-rule:nonzero;stroke:none"
          d="m 6929.29,3553.18 c -842.88,-215.53 -1764.08,-108.39 -2535.02,294.73 -398.13,208.23 -786.06,544.15 -827.47,991.49 -45.98,496.82 349.07,922.89 759.29,1206.94 410.2,283.96 883.55,519.06 1144.55,944.33 155.17,252.73 219.13,549.68 272.94,841.36 46.08,249.76 86.32,509.34 22.94,755.27 -69.41,269.31 -254.46,490.98 -391.55,732.96 -385.57,680.54 -372.8,1568.94 32.17,2238.14 404.99,669.3 1186.03,1092.7 1967.83,1066.9 337.2,-11.2 666.39,-98.9 998.02,-160.9 1171.89,-219.3 2385.81,-116.8 3549.11,144.7 423.9,95.3 847.3,212.1 1281.8,225.5 739.4,22.9 1479.1,-268.5 2021.1,-772.1 542,-503.5 884.7,-1210.4 968.9,-1945.4 106.1,-925.97 -292.7,-1988.18 -1163.6,-2320.53 -343,-130.93 -781.5,-179.78 -937.7,-512.15 -128.8,-273.99 14.2,-591.94 151.5,-861.66 321,-630.84 625.3,-1280.8 754.6,-1976.68 72.7,-391.01 77.9,-829.9 -163.1,-1146.25 -141.6,-185.89 -353.3,-307.09 -572.4,-388.69 -675.4,-251.57 -1422.5,-163.21 -2140,-95.85 -1575.1,147.64 -3161.19,176.56 -4740.49,86.32 -218.53,-12.54 -445.95,-25.89 -648.13,57.93 -202.18,83.83 -369.12,297.49 -322.5,511.33" />
      </g>
      <path id="path20" style="fill:#fcd573;fill-opacity:1;fill-rule:nonzero;stroke:none"
        d="m 6106.28,3950.9 c 0,0 1705.92,1888.6 2752.78,1429.8 C 9905.92,4921.8 11619,3889.2 12500.9,4326.4 14172.5,5155.1 14224.2,4492 15997,3305.9 H 5957.41" />
      <g transform="scale(1.05169)" id="g22">
        <path id="path24" style="fill:#3f5cb3;fill-opacity:1;fill-rule:nonzero;stroke:none"
          d="m 15863.2,5627.62 25.7,18.07 c 195.9,136.92 336.7,218.22 338.2,219.08 l 72.9,42.03 -214.9,-570.23 -221.9,291.05" />
      </g>
      <g transform="scale(1.05542)" id="g26">
        <path id="path28" style="fill:#ffffff;fill-opacity:1;fill-rule:nonzero;stroke:none"
          d="m 16300,5953.72 -145.4,-83.66 c -5.7,-3.32 -142.8,-82.52 -339.1,-219.72 l -51.3,-35.91 37.9,-49.84 169.3,-222 65.8,-86.31 38.2,101.57 165.4,438.88 59.2,156.99 z m -115.4,-135.77 -165.4,-438.88 -169.3,222 c 196.4,137.29 334.7,216.88 334.7,216.88" />
      </g>
      <g transform="scale(1.03882)" id="g30">
        <path id="path32" style="fill:#3f5cb3;fill-opacity:1;fill-rule:nonzero;stroke:none"
          d="m 15899.3,5580.2 31.7,23.78 c 42.8,31.86 87.6,64.3 133.4,96.64 l 24.1,16.95 199.1,-260.88 12.4,-12.51 -6.8,-18.48 -46.1,-122.07 -347.8,276.57" />
      </g>
      <g transform="scale(1.0411)" id="g34">
        <path id="path36" style="fill:#ffffff;fill-opacity:1;fill-rule:nonzero;stroke:none"
          d="m 16059.7,5746.91 -48.1,-33.9 c -46,-32.37 -90.9,-65.03 -133.7,-96.92 l -63.4,-47.26 61.9,-49.27 283.4,-225.44 65.4,-52.06 29.6,78.28 31.1,82.71 14.1,37.26 -25.5,24.78 -179.3,235.14 -35.5,46.68 z m -12.9,-83.66 182,-238.69 h 0.1 l -31.2,-82.7 -283.4,225.34 c 46.2,34.38 90.5,66.46 132.5,96.05" />
      </g>
      <g transform="scale(1.03628)" id="g38">
        <path id="path40" style="fill:#3f5cb3;fill-opacity:1;fill-rule:nonzero;stroke:none"
          d="m 15768.9,5460.71 20.2,16.4 c 50.9,41.21 104.5,83.09 159.5,124.39 l 18.9,14.28 332.5,-264.5 -185.9,-493.02 -345.2,602.45" />
      </g>
      <g transform="scale(1.0386)" id="g42">
        <path id="path44" style="fill:#ffffff;fill-opacity:1;fill-rule:nonzero;stroke:none"
          d="m 15932.2,5641.82 -37.7,-28.4 c -55.1,-41.5 -108.9,-83.58 -160,-124.88 l -40.4,-32.74 25.9,-45.06 299.3,-522.34 64.5,-112.36 45.7,121.22 154.7,410.46 15.8,41.68 -34.9,27.64 -295.8,235.32 -37.1,29.46 z m -1,-77.22 295.9,-235.32 -154.7,-410.45 -299.5,522.24 c 54.1,43.71 107.1,84.92 158.3,123.53" />
      </g>
      <g transform="scale(1.02549)" id="g46">
        <path id="path48" style="fill:#3f5cb3;fill-opacity:1;fill-rule:nonzero;stroke:none"
          d="m 15562.6,5182.3 24.4,24.18 c 104.1,103.57 221,208.29 347.4,311.46 l 28.3,23.02 337.3,-588.4 -106.8,-283.28 -630.6,513.02" />
      </g>
      <g transform="scale(1.02763)" id="g50">
        <path id="path52" style="fill:#ffffff;fill-opacity:1;fill-rule:nonzero;stroke:none"
          d="m 15938.1,5576.41 -56.4,-46.03 c -126.8,-103.53 -244.3,-208.82 -348.9,-312.85 l -48.7,-48.36 53.3,-43.31 569.3,-463.2 66.5,-54.11 30.3,80.19 86.3,229.07 10.2,27.25 -14.4,25.2 -311.3,543 -36.2,63.15 z m -17.3,-93.9 311.2,-543 -86.3,-228.97 -569.4,463.2 c 112.5,111.91 230.2,215.64 344.5,308.77" />
      </g>
      <g transform="scale(1.01961)" id="g54">
        <path id="path56" style="fill:#3f5cb3;fill-opacity:1;fill-rule:nonzero;stroke:none"
          d="m 15469.7,5013.11 13,15.2 c 53,61.79 111.9,125.44 175.3,189.29 l 19.9,20.1 622.1,-506.27 -311.3,-825.81 -519,1107.49" />
      </g>
      <g transform="scale(1.02192)" id="g58">
        <path id="path60" style="fill:#ffffff;fill-opacity:1;fill-rule:nonzero;stroke:none"
          d="m 15640.2,5267.63 -39.7,-39.92 c -63.6,-64.2 -123,-128.29 -176.4,-190.53 l -26,-30.53 16.9,-36.3 478.2,-1020.14 62.4,-133.18 51.9,137.58 276.7,734.31 15.8,41.78 -34.7,28.28 -581.5,473.13 -43.6,35.52 z m 4.5,-83.66 581.4,-473.13 -276.7,-734.31 -478.1,1020.24 c 55.3,64.48 113.6,126.92 173.4,187.2" />
      </g>
      <g transform="scale(1.00124)" id="g62">
        <path id="path64" style="fill:#3f5cb3;fill-opacity:1;fill-rule:nonzero;stroke:none"
          d="m 15310.6,4251.33 3.4,19.28 c 45.6,261.57 191.3,539.93 433.4,827.27 l 31.8,37.86 520.8,-1110.83 -148.4,-394.01 -841,620.43" />
      </g>
      <g transform="scale(1.00335)" id="g66">
        <path id="path68" style="fill:#ffffff;fill-opacity:1;fill-rule:nonzero;stroke:none"
          d="m 15753.7,5183.14 -63.7,-75.65 c -245.1,-291.02 -392.9,-573.77 -439.4,-840.48 l -6.7,-38.48 31.5,-23.22 789.8,-582.64 67.3,-49.64 29.4,78.14 128.7,341.65 9.4,24.92 -11.3,24.22 -493,1051.68 -42,89.5 z m -15.3,-116.41 493,-1051.58 -128.6,-341.65 -789.9,582.74 c 49.5,284.35 215.4,561.12 425.5,810.49" />
      </g>
      <path id="path70" style="fill:#3f5cb3;fill-opacity:1;fill-rule:nonzero;stroke:none"
        d="m 15933.4,3115.5 c -463.5,323.7 -667.1,703.8 -605.3,1129.7 l 7.6,52.4 849.3,-626.6 -218.2,-578.9 -33.4,23.4" />
      <path id="path72" style="fill:#ffffff;fill-opacity:1;fill-rule:nonzero;stroke:none"
        d="m 15311.9,4354.6 -15.2,-104.8 c -63.7,-438.8 144.4,-829.2 618.5,-1160.3 l 66.9,-46.7 28.8,76.4 195.3,518.1 16.9,45 -38.6,28.5 -787.4,580.9 -85.2,62.9 z m 47.6,-114 787.3,-580.9 -195.3,-518.2 c -500.2,349.4 -645.6,730 -592,1099.1" />
      <g transform="scale(1.06012)" id="g74">
        <path id="path76" style="fill:#284686;fill-opacity:1;fill-rule:nonzero;stroke:none"
          d="m 16157.1,5864.42 26.9,-78.86 c 0.5,-1.51 51.8,-152.06 108.5,-384.49 l 7.5,-30.28 -356.1,-71.78 213.2,565.41" />
      </g>
      <g transform="scale(1.06249)" id="g78">
        <path id="path80" style="fill:#ffffff;fill-opacity:1;fill-rule:nonzero;stroke:none"
          d="m 16122.5,5939.82 -58.7,-155.68 -164.3,-435.95 -38,-100.9 105.7,21.37 271.8,54.68 61,12.33 -14.8,60.42 c -56.7,232.19 -108.5,384.76 -109,386.26 l -53.7,157.47 z m -2.8,-176.76 c 1.6,-4.71 51.9,-153.6 107.5,-381.18 l -271.9,-54.68 164.4,435.86" />
      </g>
      <g transform="scale(1.06287)" id="g82">
        <path id="path84" style="fill:#284686;fill-opacity:1;fill-rule:nonzero;stroke:none"
          d="m 15866.3,5188.49 50.8,134.83 332.7,66.98 6.6,-27.94 c 12.4,-51.27 24.3,-104.15 35.6,-157.12 l 8,-37.92 -433.7,21.17" />
      </g>
      <g transform="scale(1.0653)" id="g86">
        <path id="path88" style="fill:#ffffff;fill-opacity:1;fill-rule:nonzero;stroke:none"
          d="m 16234.9,5412.84 -56.2,-11.36 -287.7,-57.82 -32.3,-6.48 -11.6,-30.88 -30.5,-80.92 -28.8,-76.5 81.6,-3.95 353.4,-17.27 77.2,-3.75 -16,75.56 c -11.2,53.04 -23.2,106.08 -35.6,157.61 l -13.5,55.76 z m -44.4,-69.75 c 11.7,-48.81 23.6,-100.91 35.3,-155.92 l -353.5,17.28 30.5,80.82 287.7,57.82" />
      </g>
      <g transform="scale(1.06538)" id="g90">
        <path id="path92" style="fill:#284686;fill-opacity:1;fill-rule:nonzero;stroke:none"
          d="m 15841.7,5210.06 412.7,-20.18 4.7,-22.62 c 14,-67.58 26,-130.75 36.7,-193.26 l 4.2,-24.97 -639.1,-218.51 180.8,479.54" />
      </g>
      <g transform="scale(1.06758)" id="g94">
        <path id="path96" style="fill:#ffffff;fill-opacity:1;fill-rule:nonzero;stroke:none"
          d="m 15788.8,5230.07 -15.2,-40.56 -150.6,-399.22 -44.4,-118.03 119.3,40.85 554.2,189.4 47.9,16.39 -8.5,49.93 c -10.7,62.57 -22.7,125.98 -36.8,193.89 l -9.3,44.96 -46,2.25 -367.3,17.98 -43.3,2.16 z m 40.4,-61.45 367.3,-17.98 c 12.6,-61.08 25.1,-125.33 36.4,-191.84 l -554.2,-189.49 150.5,399.31" />
      </g>
      <g transform="scale(1.06902)" id="g98">
        <path id="path100" style="fill:#284686;fill-opacity:1;fill-rule:nonzero;stroke:none"
          d="m 15520.7,4483.99 99.1,263.24 8.4,10.38 8.2,2.9 602.3,205.79 5.7,-34.52 c 25.9,-154.62 43.8,-304.1 53.4,-444.33 l 2.2,-32.83 -779.3,29.37" />
      </g>
      <g transform="scale(1.07111)" id="g102">
        <path id="path104" style="fill:#ffffff;fill-opacity:1;fill-rule:nonzero;stroke:none"
          d="m 16230.5,4995.94 -66.1,-22.5 -568.1,-194.19 -13.3,-4.58 -9.9,-10.17 -8.6,-8.87 -4.5,-11.67 -82.8,-219.78 -28.9,-77.02 82.1,-3.08 703.8,-26.52 65.8,-2.52 -4.5,65.73 c -9.5,140.88 -27.5,291.1 -53.5,446.36 l -11.5,68.81 z m -46.8,-78.61 c 23.2,-139.39 42.5,-288.77 52.7,-440.57 l -703.7,26.51 82.8,219.87 h 0.1 l 568.1,194.19" />
      </g>
      <g transform="scale(1.06947)" id="g106">
        <path id="path108" style="fill:#284686;fill-opacity:1;fill-rule:nonzero;stroke:none"
          d="m 15527.1,4515.9 763.9,-28.8 1.6,-26.84 c 5.2,-85.46 7.4,-168.21 6.6,-246.01 l -0.2,-19.17 -1068.7,-466.68 296.8,787.5" />
      </g>
      <g transform="scale(1.07142)" id="g110">
        <path id="path112" style="fill:#ffffff;fill-opacity:1;fill-rule:nonzero;stroke:none"
          d="m 15478.6,4538.01 -15.1,-39.86 -263.9,-700.38 -49.5,-131.32 128.6,56.09 984.9,430.09 35,15.4 0.5,38.27 c 0.9,78.4 -1.3,161.75 -6.6,247.61 l -3.2,53.58 -53.6,2.05 -714.5,26.88 -42.6,1.59 z m 40.4,-60.76 714.5,-26.88 c 4.8,-80.92 7.3,-162.41 6.4,-243.42 l -984.9,-430.08 264,700.38" />
      </g>
      <g transform="scale(1.06944)" id="g114">
        <path id="path116" style="fill:#284686;fill-opacity:1;fill-rule:nonzero;stroke:none"
          d="m 15108.4,3404.3 139,368.79 1052.6,459.68 -0.9,-46.38 c -7.2,-351.58 -76.6,-637.43 -206.2,-849.6 l -9.6,-15.62 -974.9,83.13" />
      </g>
      <g transform="scale(1.07145)" id="g118">
        <path id="path120" style="fill:#ffffff;fill-opacity:1;fill-rule:nonzero;stroke:none"
          d="m 16300,4270.46 -84.8,-37.05 -996.8,-435.3 -22.9,-9.99 -8.8,-23.33 -120.5,-319.84 -27.7,-73.18 78.1,-6.72 915.7,-78.11 36.5,-3.08 19.2,31.26 c 132,216.25 202.8,506.6 210,862.85 l 2,92.49 z m -61.1,-91.28 c -6.3,-305.38 -60.7,-602.64 -201.5,-833.26 l -915.9,78.12 120.6,319.85 996.8,435.29" />
      </g>
      <g transform="scale(1.0566)" id="g122">
        <path id="path124" style="fill:#284686;fill-opacity:1;fill-rule:nonzero;stroke:none"
          d="m 15361.5,2914.16 c -71.3,0 -147,4.35 -224.9,13.06 l -38.3,4.26 206.3,547.79 995.4,-84.8 -27.3,-42.02 c -189.1,-290.84 -495.7,-438.29 -911.2,-438.29" />
      </g>
      <g transform="scale(1.06001)" id="g126">
        <path id="path128" style="fill:#ffffff;fill-opacity:1;fill-rule:nonzero;stroke:none"
          d="m 15235.5,3499.79 -16,-42.36 -184.1,-488.77 -27.2,-72.07 76.5,-8.49 c 78.8,-8.78 155.3,-13.3 227.5,-13.3 424.9,0 738.9,151.6 933.3,450.56 l 54.5,83.77 -99.6,8.49 -919.7,78.4 -45.2,3.77 z m 40.1,-63.49 919.7,-78.3 c -165.7,-254.81 -442.1,-423.3 -883.1,-423.3 -69.5,0 -142.9,4.15 -220.8,12.83 l 184.2,488.77" />
      </g>
      <g transform="scale(1.16843)" id="g130">
        <path id="path132" style="fill:#f3612f;fill-opacity:1;fill-rule:nonzero;stroke:none"
          d="m 15848.9,5059.35 c 0,0 -7.2,499.22 221.9,437.34 229.2,-61.87 -221.9,-437.34 -221.9,-437.34" />
      </g>
      <g transform="scale(1.12847)" id="g134">
        <path id="path136" style="fill:#f3612f;fill-opacity:1;fill-rule:nonzero;stroke:none"
          d="m 16218.7,5130.65 c 0,0 -253.4,243.87 -86,349.06 167.3,105.19 86,-349.06 86,-349.06" />
      </g>
      <g transform="scale(1.11481)" id="g138">
        <path id="path140" style="fill:#f3612f;fill-opacity:1;fill-rule:nonzero;stroke:none"
          d="m 16217.7,4855.09 c 0,0 -256.5,246.77 -87.1,353.33 169.4,106.48 87.1,-353.33 87.1,-353.33" />
      </g>
      <g transform="scale(1.10382)" id="g142">
        <path id="path144" style="fill:#f3612f;fill-opacity:1;fill-rule:nonzero;stroke:none"
          d="m 16216.9,4521.23 c 0,0 -259.1,249.22 -88,356.76 171.1,107.62 88,-356.76 88,-356.76" />
      </g>
      <g transform="scale(1.16623)" id="g146">
        <path id="path148" style="fill:#f3612f;fill-opacity:1;fill-rule:nonzero;stroke:none"
          d="m 15865.7,4858.21 c 0,0 284.3,289.99 359.3,144.31 75,-145.69 -359.3,-144.31 -359.3,-144.31" />
      </g>
      <g transform="scale(1.15422)" id="g150">
        <path id="path152" style="fill:#f3612f;fill-opacity:1;fill-rule:nonzero;stroke:none"
          d="m 15861.2,4607.09 c 0,0 287.2,293.1 363,145.9 75.8,-147.2 -363,-145.9 -363,-145.9" />
      </g>
      <g transform="scale(1.13723)" id="g154">
        <path id="path156" style="fill:#f3612f;fill-opacity:1;fill-rule:nonzero;stroke:none"
          d="m 15854.6,4343 c 0,0 291.5,297.47 368.5,148.08 76.9,-149.4 -368.5,-148.08 -368.5,-148.08" />
      </g>
      <g transform="scale(1.08936)" id="g158">
        <path id="path160" style="fill:#f3612f;fill-opacity:1;fill-rule:nonzero;stroke:none"
          d="m 16215.8,4248.2 c 0,0 -262.5,252.54 -89.2,361.59 173.4,108.96 89.2,-361.59 89.2,-361.59" />
      </g>
      <g transform="scale(1.07569)" id="g162">
        <path id="path164" style="fill:#f3612f;fill-opacity:1;fill-rule:nonzero;stroke:none"
          d="m 16214.7,3951.41 c 0,0 -265.9,255.74 -90.3,366.09 175.6,110.44 90.3,-366.09 90.3,-366.09" />
      </g>
      <g transform="scale(1.0647)" id="g166">
        <path id="path168" style="fill:#f3612f;fill-opacity:1;fill-rule:nonzero;stroke:none"
          d="m 16213.8,3595.95 c 0,0 -268.6,258.38 -91.2,369.87 177.4,111.48 91.2,-369.87 91.2,-369.87" />
      </g>
      <g transform="scale(1.12712)" id="g170">
        <path id="path172" style="fill:#f3612f;fill-opacity:1;fill-rule:nonzero;stroke:none"
          d="m 15850.6,3995.77 c 0,0 294.2,300.15 371.8,149.41 77.6,-150.74 -371.8,-149.41 -371.8,-149.41" />
      </g>
      <g transform="scale(1.1151)" id="g174">
        <path id="path176" style="fill:#f3612f;fill-opacity:1;fill-rule:nonzero;stroke:none"
          d="m 15845.8,3726.67 c 0,0 297.4,303.38 375.8,151.02 78.4,-152.37 -375.8,-151.02 -375.8,-151.02" />
      </g>
      <g transform="scale(1.09811)" id="g178">
        <path id="path180" style="fill:#f3612f;fill-opacity:1;fill-rule:nonzero;stroke:none"
          d="m 15838.8,3439.54 c 0,0 301.9,308.08 381.6,153.36 79.6,-154.72 -381.6,-153.36 -381.6,-153.36" />
      </g>
      <g transform="scale(1.14445)" id="g182">
        <path id="path184" style="fill:#f3612f;fill-opacity:1;fill-rule:nonzero;stroke:none"
          d="m 14864.9,2851.4 1418.6,2504.69 16.5,-9.35 -1418.6,-2504.68 -16.5,9.34" />
      </g>
      <g transform="scale(1.15)" id="g186">
        <path id="path188" style="fill:#f3612f;fill-opacity:1;fill-rule:nonzero;stroke:none"
          d="m 15941,4843.48 -74.7,368.69 18.6,3.4 70.1,-344.18 336.7,148.7 8.3,-16.96 -359,-159.65" />
      </g>
      <g transform="scale(1.13341)" id="g190">
        <path id="path192" style="fill:#f3612f;fill-opacity:1;fill-rule:nonzero;stroke:none"
          d="m 15989.5,4585.98 -100,366.68 18.5,4.68 93.9,-342.07 288.5,160.49 9.6,-16.59 -310.5,-173.19" />
      </g>
      <g transform="scale(1.11974)" id="g194">
        <path id="path196" style="fill:#f3612f;fill-opacity:1;fill-rule:nonzero;stroke:none"
          d="m 16013.4,4337.09 -81.9,272.57 18.5,5.71 74,-247.29 264.9,146.82 11.1,-15.9 -286.6,-161.91" />
      </g>
      <g transform="scale(1.10936)" id="g198">
        <path id="path200" style="fill:#f3612f;fill-opacity:1;fill-rule:nonzero;stroke:none"
          d="m 15952.6,4012.85 -92.7,342.36 19,4.68 88,-323.42 328.5,90.86 4.6,-19.02 -347.4,-95.46" />
      </g>
      <g transform="scale(1.0933)" id="g202">
        <path id="path204" style="fill:#f3612f;fill-opacity:1;fill-rule:nonzero;stroke:none"
          d="m 16006.9,3751.12 -109.5,259.03 17.9,8.42 102.6,-244.13 277.2,73.72 4.9,-19.29 -293.1,-77.75" />
      </g>
      <g transform="scale(1.07218)" id="g206">
        <path id="path208" style="fill:#f3612f;fill-opacity:1;fill-rule:nonzero;stroke:none"
          d="m 16111.9,3454.44 -57,271.79 20,3.63 52.2,-246.22 164.4,75.26 8.5,-18.37 -188.1,-86.09" />
      </g>
      <path id="path210" style="fill:#d54920;fill-opacity:1;fill-rule:nonzero;stroke:none"
        d="m 3885.7,7070.6 6.36,35.9 c 67.62,382.2 135.89,637.1 136.57,639.6 l 25.41,94.3 382.03,-844 -550.37,74.2" />
      <path id="path212" style="fill:#ffffff;fill-opacity:1;fill-rule:nonzero;stroke:none"
        d="m 4045.65,7943.9 -50.82,-188.6 c -2.79,-10.4 -69.34,-258.9 -137.24,-642.7 l -12.7,-71.8 72.28,-9.7 451.61,-61 125.23,-16.8 -52.11,115.1 -315.7,697.5 -80.55,178 z m 16.78,-206.9 315.7,-697.5 -451.61,60.9 c 68.14,385.1 135.91,636.6 135.91,636.6" />
      <path id="path214" style="fill:#d54920;fill-opacity:1;fill-rule:nonzero;stroke:none"
        d="m 3843.16,6804.2 c 12.3,84.6 26.31,172.4 41.64,261.1 l 5.75,33.2 510.1,-68.6 h 20.25 l 9.43,-20.6 78.41,-173.5 -672.11,-76.5 6.53,44.9" />
      <path id="path216" style="fill:#ffffff;fill-opacity:1;fill-rule:nonzero;stroke:none"
        d="m 3861.8,7137.7 -11.49,-66.5 c -15.4,-89.1 -29.46,-177.2 -41.78,-261.9 l -13.08,-90 90.27,10.3 579.27,66 95.42,10.9 -39.57,87.5 -58.62,129.7 -18.61,41.2 H 4403 l -474.37,63.8 -66.83,9 z m 57.49,-78.4 479.02,-64.4 h 0.13 l 58.62,-129.7 -579.26,-66 c 13.32,91.6 27.41,178.7 41.49,260.1" />
      <path id="path218" style="fill:#d54920;fill-opacity:1;fill-rule:nonzero;stroke:none"
        d="m 3794.31,6410.7 3.12,29.6 c 10.95,104 24.28,212.1 39.62,321.2 l 3.77,26.9 655.64,74.7 331.57,-732.8 -1033.72,280.4" />
      <path id="path220" style="fill:#ffffff;fill-opacity:1;fill-rule:nonzero;stroke:none"
        d="m 4517.83,6900.8 -50.68,-5.8 -603.37,-68.8 -53.85,-6.1 -7.54,-53.7 C 3787.01,6657 3773.63,6548.5 3762.63,6444 l -6.24,-59.3 57.53,-15.6 933.29,-253.2 143.31,-38.8 -61.21,135.3 -290.46,641.9 -21.02,46.5 z m -42.75,-75.4 290.46,-641.9 -933.3,253.2 c 11.68,110.9 25.13,217.9 39.46,320 l 603.38,68.7" />
      <path id="path222" style="fill:#d54920;fill-opacity:1;fill-rule:nonzero;stroke:none"
        d="m 3752.71,5660.8 c 0.7,232.5 14.25,480.6 40.27,737.5 l 4.16,41.1 1015.81,-275.5 187.24,-413.8 -1247.6,-128.2 0.12,38.9" />
      <path id="path224" style="fill:#ffffff;fill-opacity:1;fill-rule:nonzero;stroke:none"
        d="m 3766.47,6483.9 -8.31,-82.1 c -26.14,-258 -39.75,-507.3 -40.45,-740.9 l -0.24,-77.8 77.39,8 1160.56,119.3 96.69,9.9 -40.07,88.5 -160.4,354.5 -13.6,30 -31.85,8.7 -960.07,260.3 -79.65,21.6 z m 61.33,-89.1 960.07,-260.4 160.39,-354.4 -1160.55,-119.3 c 0.76,252.1 16.49,501.1 40.09,734.1" />
      <path id="path226" style="fill:#d54920;fill-opacity:1;fill-rule:nonzero;stroke:none"
        d="m 3770.01,5190.6 -1.72,22.5 c -9.81,127.7 -15.05,264.2 -15.58,405.6 l -0.13,31.7 1235.32,126.9 555.97,-1228.4 -1773.86,641.7" />
      <path id="path228" style="fill:#ffffff;fill-opacity:1;fill-rule:nonzero;stroke:none"
        d="m 5009.39,5814.7 -50.14,-5.2 -1178.7,-121 -63.08,-6.5 0.24,-63.4 c 0.53,-142.3 5.81,-279.6 15.68,-408.1 l 3.46,-45.1 42.52,-15.4 1674.6,-605.8 155.98,-56.4 -68.39,151.1 -511.38,1129.8 -20.79,46 z m -42.98,-74.8 511.37,-1129.9 -1674.6,605.8 c -10.27,133.9 -14.97,268.9 -15.47,403 l 1178.7,121.1" />
      <path id="path230" style="fill:#d54920;fill-opacity:1;fill-rule:nonzero;stroke:none"
        d="m 4200.66,3793.7 c -235.15,334.2 -379.41,796.3 -428.79,1373.4 l -4.67,54.6 1760.36,-636.7 258.78,-571.7 -1573.23,-237.3 -12.45,17.7" />
      <path id="path232" style="fill:#ffffff;fill-opacity:1;fill-rule:nonzero;stroke:none"
        d="m 3727.67,5273.2 9.32,-109 c 49.91,-583.4 196.29,-1051.3 435.05,-1390.7 l 24.9,-35.4 42.79,6.5 1506.09,227.2 91.47,13.8 -38.14,84.3 -233.61,516.1 -12.19,26.9 -27.78,10 -1695.03,613.1 -102.87,37.2 z m 79.07,-103.1 1695.03,-613 233.61,-516 -1506.09,-227.3 c -257.72,366.3 -379.41,852.1 -422.55,1356.3" />
      <path id="path234" style="fill:#d54920;fill-opacity:1;fill-rule:nonzero;stroke:none"
        d="m 5575.29,3136.4 c -587.05,0 -1040.12,208.1 -1346.64,618.6 l -34.96,46.9 1580.42,238.4 382.62,-845.4 -44.33,-7.9 c -189.25,-33.6 -369.96,-50.6 -537.11,-50.6" />
      <path id="path236" style="fill:#ffffff;fill-opacity:1;fill-rule:nonzero;stroke:none"
        d="m 5795.07,4078.8 -52.37,-7.9 -1496.45,-225.7 -115.57,-17.4 69.93,-93.7 c 313.48,-419.9 775.99,-632.7 1374.69,-632.7 169.2,0 351.96,17.2 543.22,51.1 l 88.66,15.8 -37.13,82 -353.14,780.3 -21.84,48.2 z m -41.93,-77.1 353.14,-780.2 c -191.67,-34.1 -368.33,-50.1 -530.98,-50.1 -625.75,0 -1044.66,237.7 -1318.6,604.6 l 1496.44,225.7" />
      <path id="path238" style="fill:#f3612f;fill-opacity:1;fill-rule:nonzero;stroke:none"
        d="m 4058.85,7842.3 87.54,-43 c 2.34,-1.2 237.57,-117.2 570.56,-319.4 l 31.18,-18.9 -307.44,-462.5 -381.84,843.8" />
      <path id="path240" style="fill:#ffffff;fill-opacity:1;fill-rule:nonzero;stroke:none"
        d="m 3986.77,7916.7 80.4,-177.7 315.58,-697.4 52.11,-115.1 69.96,105.2 252.27,379.6 40.37,60.7 -62.35,37.9 c -334.85,203.2 -570.95,319.7 -573.3,320.8 l -175.04,86 z m 144.18,-148.8 c 7.23,-3.6 238.81,-118.2 567.84,-317.9 l -252.26,-379.5 -315.58,697.4" />
      <path id="path242" style="fill:#f3612f;fill-opacity:1;fill-rule:nonzero;stroke:none"
        d="m 4426.82,7029 297.14,446.7 28.75,-17.5 c 73.9,-45.2 149.14,-92.7 223.64,-141.1 l 38.07,-24.8 -501.03,-454.4 -86.57,191.1" />
      <path id="path244" style="fill:#ffffff;fill-opacity:1;fill-rule:nonzero;stroke:none"
        d="m 4713.48,7523.2 -37.32,-56.1 -267.74,-402.5 -21.49,-32.3 16.01,-35.4 58.75,-129.7 39.64,-87.4 71.15,64.5 431.81,391.6 67.29,61 -76.15,49.5 c -74.67,48.6 -150.19,96.2 -224.46,141.6 l -57.49,35.2 z m 20.97,-94.9 c 70.55,-43.1 145.16,-90.1 222.82,-140.6 l -431.82,-391.6 -58.75,129.7 267.75,402.5" />
      <path id="path246" style="fill:#f3612f;fill-opacity:1;fill-rule:nonzero;stroke:none"
        d="m 4501.08,6865.2 488.78,443.2 22.65,-14.9 c 95.12,-62.4 182.62,-122 267.5,-182.2 l 24.31,-17.2 -471.66,-961.7 -331.58,732.8" />
      <path id="path248" style="fill:#ffffff;fill-opacity:1;fill-rule:nonzero;stroke:none"
        d="m 4986.43,7352.5 -40.14,-36.4 -449.83,-407.8 -37.78,-34.3 21.02,-46.4 290.46,-642 61.22,-135.3 65.4,133.3 425.85,868.4 26.24,53.5 -48.62,34.4 c -85.25,60.4 -173.09,120.2 -268.53,182.9 l -45.29,29.7 z m 6.88,-88.3 c 86.03,-56.4 175.49,-117 266.47,-181.4 l -425.85,-868.3 -290.45,641.9 449.83,407.8" />
      <path id="path250" style="fill:#f3612f;fill-opacity:1;fill-rule:nonzero;stroke:none"
        d="m 4821.14,6157.8 v 15.7 l 3.58,7.4 456.2,930 33.58,-24 c 210.67,-150.3 406.04,-303.9 580.68,-456.4 l 29.3,-25.6 -919.66,-852.8 -183.68,405.7" />
      <path id="path252" style="fill:#ffffff;fill-opacity:1;fill-rule:nonzero;stroke:none"
        d="m 5267.67,7163.3 -36.35,-74 -438.03,-893 -7.15,-14.6 v -16.2 -15.1 l 6.23,-13.9 160.52,-354.6 40.09,-88.5 71.27,66.1 855.51,793.3 57.04,52.9 -58.6,51.2 c -175.55,153.3 -371.82,307.5 -583.37,458.5 l -67.16,47.9 z m 26.5,-104.9 c 190.59,-136 388.04,-288.4 577.99,-454.2 l -855.5,-793.4 -160.52,354.6 v 0.1 l 438.03,892.9" />
      <path id="path254" style="fill:#f3612f;fill-opacity:1;fill-rule:nonzero;stroke:none"
        d="m 4992.52,5779.5 910.44,844.3 23.74,-21 c 105.64,-93.5 204.75,-187.5 294.58,-279.4 l 15.81,-16.1 -688.6,-1756.3 -555.97,1228.5" />
      <path id="path256" style="fill:#ffffff;fill-opacity:1;fill-rule:nonzero;stroke:none"
        d="m 5902.41,6671.1 -46.5,-43.2 -868.71,-805.6 -36.95,-34.3 20.78,-45.9 511.37,-1130 68.4,-151.1 60.55,154.4 650.07,1658 16.51,42.1 -31.63,32.4 c -90.37,92.5 -190.1,187 -296.4,281.1 l -47.49,42.1 z m 1.1,-94.5 C 6004,6487.7 6102.35,6395 6196.25,6299 l -650.07,-1658 -511.38,1130 868.71,805.6" />
      <path id="path258" style="fill:#f3612f;fill-opacity:1;fill-rule:nonzero;stroke:none"
        d="m 5532.19,4587 683.28,1742.8 37.88,-39.5 c 401.02,-417.8 653.03,-831.1 749.06,-1228.4 l 5.09,-21.1 L 5790.83,4015.4 5532.19,4587" />
      <path id="path260" style="fill:#ffffff;fill-opacity:1;fill-rule:nonzero;stroke:none"
        d="m 6202.86,6393.5 -39.94,-101.8 -657.93,-1678.2 -10.78,-27.5 12.18,-26.9 233.48,-515.9 38.14,-84.3 70.74,59.6 1164.75,981.6 33.1,27.9 -10.17,42.1 c -97.5,403.4 -352.47,822.1 -757.83,1244.5 l -75.74,78.9 z m 25.24,-127.4 c 350.47,-365.2 635.09,-777.2 740.29,-1212.4 L 5803.64,4072 5570.16,4588 6228.1,6266.1" />
      <path id="path262" style="fill:#f3612f;fill-opacity:1;fill-rule:nonzero;stroke:none"
        d="m 5778.73,4042.2 1222.07,1030.2 12.11,-57.2 C 7149.64,4369.7 6874.97,3767.5 6196.53,3225.1 l -35.17,-28.1 -382.63,845.2" />
      <path id="path264" style="fill:#ffffff;fill-opacity:1;fill-rule:nonzero;stroke:none"
        d="m 7022.92,5136.8 -89.37,-75.3 -1157.13,-975.4 -40.5,-34.2 21.84,-48.2 353.14,-780.2 37.14,-82 70.35,56.2 c 689.62,551.4 968.46,1165.3 828.76,1824.8 l -24.23,114.3 z M 6978.67,5008 C 7098.2,4443.7 6911.79,3841.7 6174.68,3252.4 l -353.15,780.1 1157.14,975.5" />
      <path id="path266" style="fill:#c6c0e6;fill-opacity:1;fill-rule:nonzero;stroke:none"
        d="m 12258.8,12776.9 c 0,0 -195.5,-416.2 180.4,-931.3 281.8,-386.1 719.2,-946.8 920.6,-1203.5 67.3,-85.8 186.9,-110.7 282.5,-58.1 249.1,137 803.7,446.4 1012,1342.5 0,0 310.8,32.7 475.2,237.6 167.3,208.5 61,483.2 -65.6,549.9 -110.5,58.1 -463.1,-251.8 -550,-341.4 -251.6,-259.3 -782.6,-814.4 -894.6,-995.8 0,0 -489.2,1705.4 -1360.5,1400.1" />
      <path id="path268" style="fill:#a3a4d9;fill-opacity:1;fill-rule:nonzero;stroke:none"
        d="m 13498.8,11715.6 -393.8,-747.1 -41.2,53.2 -78.5,395.9 513.5,298" />
      <path id="path270" style="fill:#f3612f;fill-opacity:1;fill-rule:nonzero;stroke:none"
        d="m 12625.8,12859.9 c 0,0 655.3,-431.5 905,-1110.3 l -632.2,-672.5 -397.7,1230.8" />
      <path id="path272" style="fill:#c6c0e6;fill-opacity:1;fill-rule:nonzero;stroke:none"
        d="m 12587.7,14725.2 c 0,0 729.9,-129.1 547.1,-1343.4 -27,-179.3 -189.5,-306.8 -370,-289.9 -249.2,23.2 -561.7,202.3 -836.9,840.2 -399.8,926.3 659.8,793.1 659.8,793.1" />
      <path id="path274" style="fill:#c6c0e6;fill-opacity:1;fill-rule:nonzero;stroke:none"
        d="m 12024.5,13729.2 v -571.1 l 601.3,-298.2 177.6,434.6 -778.9,434.7" />
      <path id="path276" style="fill:#c6c0e6;fill-opacity:1;fill-rule:nonzero;stroke:none"
        d="m 12171.7,7905.1 c -19.9,-673.7 -1201.9,-1300.5 -1553.6,-1472.3 -62.3,-30.4 -127.8,-53.5 -195.6,-68.7 -246.6,-55.3 -919.37,-197.4 -1563.44,-254.8 -355.75,-31.7 -674.61,-81.7 -854.92,-159.9 -589.75,-256.1 -900.21,-931.3 -900.21,-931.3 l -178.46,-77.7 c -155.29,946.9 566.45,1854.9 566.45,1854.9 0,0 364.84,-225.1 442.37,-232.8 53.55,-5.4 409.18,96.2 747.13,261.5 152.38,74.5 294.94,169.9 416.98,258.4 275.55,199.9 1125.4,-114.4 1125.4,-114.4 523.8,739.2 930.9,2896.51 930.9,2896.51 0,0 1040.2,-1167.81 1017,-1959.41" />
      <path id="path278" style="fill:#284686;fill-opacity:1;fill-rule:nonzero;stroke:none"
        d="m 10847.8,8603 -327.3,-520.2 1334.8,-880 c 0,0 661.8,213.3 685,1004.9 23.3,791.65 -1692.5,395.3 -1692.5,395.3" />
      <path id="path280" style="fill:#c6c0e6;fill-opacity:1;fill-rule:nonzero;stroke:none"
        d="m 15873.5,4358.4 c -201.7,-605.4 -1474.4,-814.9 -1474.4,-814.9 0,0 -85.5,504.5 -124.2,729.5 -1.2,6.8 -2.7,13.5 -4.5,20.3 -43.7,167.7 -267.5,317.1 -541.6,647.1 0,0 -276.7,325 -369.9,473.5 -447.3,713 -117.4,1094.4 -117.4,1094.4 -2949.1,1978.9 -2086.8,3356.21 -2086.8,3356.21 0,0 574.6,182.49 1296.3,-275.31 721.8,-457.97 1443.6,-2274 1536.7,-2522.3 93.1,-248.3 46.5,-651.9 46.5,-651.9 30,-287.1 189.3,-754.2 346.9,-1162.1 165.2,-427.7 328.3,-790.1 338,-811.5 l 0.5,-1.1 c 287.1,-132 1076.4,50.1 1076.4,50.1 l 77.5,-132" />
      <path id="path282" style="fill:#3f5cb3;fill-opacity:1;fill-rule:nonzero;stroke:none"
        d="m 12334.4,9756.02 c -753.1,472.88 -1179.7,108.52 -1179.7,108.52 0,0 -517,-421.81 -306.9,-1261.54 88.7,-355 583.5,-882.3 850.5,-1132.5 l 1850,595.3 c 0,0 -460.8,1217.32 -1213.9,1690.22" />
      <path id="path284" style="fill:#f3612f;fill-opacity:1;fill-rule:nonzero;stroke:none"
        d="m 12625.8,12859.9 c 0,0 594.6,-545.6 538.4,-1186.5 -56.3,-640.8 -300.8,-1389.4 -267.4,-1757.41 33.5,-367.99 103.3,-704.25 -271,-634.47 -277.8,51.79 -1270.2,302.22 -1625.7,377.76 -107.4,22.8 -171.8,132.73 -139.5,237.58 112.7,365.64 594.9,1059.84 489.9,1484.74 -139.6,564.7 -176.4,2198.3 674,1776.5 601.3,-298.2 601.3,-298.2 601.3,-298.2" />
      <path id="path286" style="fill:#c6c0e6;fill-opacity:1;fill-rule:nonzero;stroke:none"
        d="m 12143.8,10408.7 c -41.5,-148.2 -183.6,-354.5 -338.7,-329.9 -279.1,44.4 -391.2,433.6 -391.2,433.6 -54.5,6 -107.9,13.3 -160.1,21.8 -779.4,127.2 -1292.91,522.7 -1480.71,739.3 -76.9,88.6 -77.78,220 -2.67,310.1 224.35,269.9 715.28,856.8 1057.68,1240.4 456.8,511.7 938.9,400.2 938.9,400.2 517.9,-847.4 -1165.2,-1747.4 -1165.2,-1747.4 147.1,-52.3 520.4,-269.7 847.5,-468.1 54.4,-33 107.5,-65.4 158,-96.6 92.3,-56.5 176,-108.6 244,-151.1 114,-71.2 328.7,-222.9 292.5,-352.3" />
      <path id="path288" style="fill:#f3612f;fill-opacity:1;fill-rule:nonzero;stroke:none"
        d="m 11837.7,13221.3 c 0,0 -576,203.3 -1299.3,-539.1 l 614.3,-840.9 737.1,282.6 159.4,800.3 -211.5,297.1" />
      <path id="path290" style="fill:#c6c0e6;fill-opacity:1;fill-rule:nonzero;stroke:none"
        d="m 11607.4,10912.2 c 0,0 267.1,-63.4 441.8,0 174.7,63.3 111,-203.1 -220.9,-245.4 -331.9,-42.3 -220.9,245.4 -220.9,245.4" />
      <path id="path292" style="fill:#c6c0e6;fill-opacity:1;fill-rule:nonzero;stroke:none"
        d="m 14757.5,12396.7 c 118.5,380.7 -161.7,567.9 -175.5,283 -9,-186.2 -68.1,-307.1 -68.1,-307.1" />
      <path id="path294" style="fill:#ffffff;fill-opacity:1;fill-rule:nonzero;stroke:none"
        d="m 14719.6,4440.3 -449.2,-147 c -43.7,167.7 -267.5,317.1 -541.6,647.1 l 651.2,315.2 1.1,-2.7 338,-811.5 0.5,-1.1" />
      <path id="path296" style="fill:#ffffff;fill-opacity:1;fill-rule:nonzero;stroke:none"
        d="m 8859.06,6109.3 c -355.75,-31.7 -674.61,-81.7 -854.92,-159.9 l -69.85,613.1 c 53.55,-5.4 409.18,96.2 747.13,261.5 l 177.64,-714.7" />
      <path id="path298" style="fill:#f3612f;fill-opacity:1;fill-rule:nonzero;stroke:none"
        d="m 8004.14,5949.4 c -585.09,-254.2 -895.33,-920.8 -900.1,-931.2 l -0.11,-0.1 -178.46,-77.7 c -155.29,946.9 566.45,1854.9 566.45,1854.9 0,0 52.74,-32.6 122.47,-73.3 113.62,-66.5 271.82,-154.7 319.9,-159.5 l 34.46,-302.8 35.39,-310.3" />
      <path id="path300" style="fill:#f1ad1d;fill-opacity:1;fill-rule:nonzero;stroke:none"
        d="m 7614.39,6722 c 0,0 -535.61,-380.8 -688.92,-1781.6 -155.29,946.9 566.45,1854.9 566.45,1854.9 0,0 52.74,-32.6 122.47,-73.3" />
      <path id="path302" style="fill:#d54920;fill-opacity:1;fill-rule:nonzero;stroke:none"
        d="m 8004.14,5949.4 c -585.09,-254.2 -895.33,-920.8 -900.1,-931.2 l -0.11,-0.1 c 0,0 82.76,957 864.82,1241.6 l 35.39,-310.3" />
      <path id="path304" style="fill:#fef7c7;fill-opacity:1;fill-rule:nonzero;stroke:none"
        d="m 7779.17,6386.7 c 0,-70.1 -56.84,-127 -126.95,-127 -70.11,0 -126.94,56.9 -126.94,127 0,70.1 56.83,126.9 126.94,126.9 70.11,0 126.95,-56.8 126.95,-126.9" />
      <path id="path306" style="fill:#f3612f;fill-opacity:1;fill-rule:nonzero;stroke:none"
        d="m 15873.5,4358.4 c -201.7,-605.4 -1474.4,-814.9 -1474.4,-814.9 0,0 -8.3,48.8 -20.9,122.9 -27.8,164 -76.7,451.6 -103.3,606.6 -1.2,6.8 -2.7,13.5 -4.5,20.3 l 198.9,65.1 250.3,81.9 c 287.1,-132 1076.4,50.1 1076.4,50.1 l 77.5,-132" />
      <path id="path308" style="fill:#f1ad1d;fill-opacity:1;fill-rule:nonzero;stroke:none"
        d="m 15873.5,4358.4 c -201.7,-605.4 -1474.4,-814.9 -1474.4,-814.9 0,0 -8.3,48.8 -20.9,122.9 0,0 934.6,119.6 1495.3,692" />
      <path id="path310" style="fill:#d54920;fill-opacity:1;fill-rule:nonzero;stroke:none"
        d="m 15796,4490.4 c -620.8,-510.3 -1326.7,-132 -1326.7,-132 l 250.3,81.9 c 287.1,-132 1076.4,50.1 1076.4,50.1" />
      <path id="path312" style="fill:#ffffff;fill-opacity:1;fill-rule:nonzero;stroke:none"
        d="m 14699.8,4016.9 c 0,-65.3 -53,-118.3 -118.4,-118.3 -65.4,0 -118.3,53 -118.3,118.3 0,65.4 52.9,118.4 118.3,118.4 65.4,0 118.4,-53 118.4,-118.4" />
      <path id="path314" style="fill:#3f5cb3;fill-opacity:1;fill-rule:nonzero;stroke:none"
        d="m 11413.9,10512.4 c 39.5,269.9 187.8,395.1 193.4,399.7 -50.5,31.2 -103.6,63.6 -158,96.6 -112.3,-133.5 -178.1,-397.1 -195.5,-474.5 l 160.1,-21.8" />
      <path id="path316" style="fill:#284686;fill-opacity:1;fill-rule:nonzero;stroke:none"
        d="m 11546.2,10782.5 c -4.6,-17.7 -10.4,-38.3 -17.3,-59.6 -2.5,-7.9 -5.2,-15.9 -8,-23.9 -5.6,-15.9 -11.8,-31.8 -18.5,-46.9 -9.5,-21.8 -20.2,-41.6 -31.9,-57.2 -35.2,-47.2 -102,-8.4 -144.6,24.7 -10.9,8.5 -20.2,16.6 -27.1,22.7 -7.7,7.1 -12.3,11.8 -12.3,11.8 -0.9,0.8 -1.7,1.5 -2.5,2.4 -21.1,21.5 -24,76 -12.8,132.3 2,10.4 4.5,20.6 7.5,30.9 3.9,13.5 8.6,26.8 14.2,39.4 21.4,49.3 54.3,88 95.1,88.9 22,0.5 42.2,-4.2 60.6,-11.8 14.7,-6.1 28.3,-14.1 40.3,-23 9.9,-7.1 18.9,-14.8 26.9,-22.4 2.6,-2.4 5,-5 7.3,-7.6 23.6,-27.6 32.3,-65.1 23.1,-100.7" />
      <path id="path318" style="fill:#ffffff;fill-opacity:1;fill-rule:nonzero;stroke:none"
        d="m 11472.4,10885.8 -167.7,-74.5 c 3.2,10.7 6.9,21.3 11.4,31.3 l 124.1,61.5 c 11.7,-4.8 22.6,-11.2 32.2,-18.3" />
      <path id="path320" style="fill:#ffffff;fill-opacity:1;fill-rule:nonzero;stroke:none"
        d="m 11497.9,10715 c -4.5,-12.7 -9.4,-25.4 -14.8,-37.4 l -140.7,-25.9 c -8.7,6.8 -16.1,13.2 -21.6,18.1 l 177.1,45.2" />
      <path id="path322" style="fill:#ffffff;fill-opacity:1;fill-rule:nonzero;stroke:none"
        d="m 11518,10779.1 c -3.6,-10.7 -8.3,-22.9 -13.7,-35.7 l -195.3,-39.6 c -16.8,12.8 -19.1,45.4 -10.2,79 l 200.8,56.3 c 18.8,-16.4 25.8,-38.8 18.4,-60" />
      <path id="path324" style="fill:#a3a4d9;fill-opacity:1;fill-rule:nonzero;stroke:none"
        d="m 14775.1,12595.1 c 0,0 -195.2,-160.3 -59.8,-304.1 135.3,-143.8 308.7,-139.6 308.7,-139.6 0,0 -455.4,109.1 -248.9,443.7" />
      <path id="path326" style="fill:#a3a4d9;fill-opacity:1;fill-rule:nonzero;stroke:none"
        d="m 10613.4,12579.6 -120.6,-139.6 659.9,-598.7 z" />
      <path id="path328" style="fill:#a3a4d9;fill-opacity:1;fill-rule:nonzero;stroke:none"
        d="M 13548.3,8065.8 12145.4,7371 11938.9,7547.9 Z" />
      <path id="path330" style="fill:#a3a4d9;fill-opacity:1;fill-rule:nonzero;stroke:none"
        d="m 11809.6,7232.9 -1188.2,586.6 54.6,160.7 z" />
      <path id="path332" style="fill:#a3a4d9;fill-opacity:1;fill-rule:nonzero;stroke:none"
        d="m 12722.8,13097.3 c 0,0 -371.2,77.3 -514.8,343.5 0,0 25.7,-248.9 459.7,-478.4 l 55.1,134.9" />
      <path id="path334" style="fill:#c6c0e6;fill-opacity:1;fill-rule:nonzero;stroke:none"
        d="m 13060.1,14302.4 c 0,0 84.2,-243.4 184.3,-332.2 104.6,-92.9 -80.9,-173.1 -80.9,-173.1 0,0 37.2,-107.7 72.6,-155.6 8.1,-10.9 9.4,-25.7 4,-38.2 -5.2,-12.1 -31.5,-19 -49.7,-25.4 0,0 37,-25.4 29.6,-69.8 -7.4,-44.4 -46.4,-24.2 -78.7,-80.3 -32.3,-56.1 -668.3,242.4 -81.2,874.6" />
      <path id="path336" style="fill:#a3a4d9;fill-opacity:1;fill-rule:nonzero;stroke:none"
        d="m 12350.8,13951.2 c 0,0 -86.5,139.6 -202.9,52.8 -116.4,-86.7 54.9,-319.3 179.7,-304.5 0,0 -22.7,-162.8 -162.9,-196.7 0,0 -406,179.8 -414.5,683.1 -8.5,503.4 234.8,486.4 234.8,486.4 0,0 48.6,357.5 979.1,171.3 0,0 97.3,-33.4 156.5,32 0,0 92,-295.1 -180.3,-379.3 0,0 -545.1,25.9 -638.1,-37.6 -54.4,-37.1 22.8,-84.3 96.3,-117 55.6,-24.9 80.8,-89.9 56.9,-145.9 l -104.6,-244.6" />
      <path id="path338" style="fill:#3f5cb3;fill-opacity:1;fill-rule:nonzero;stroke:none"
        d="m 5353.61,8061.3 c 0,0 -656.8,670.22 -264.77,883.02 392.04,212.79 264.77,-883.02 264.77,-883.02" />
      <path id="path340" style="fill:#3f5cb3;fill-opacity:1;fill-rule:nonzero;stroke:none"
        d="m 5237.14,7680.1 c 0,0 -638.32,3.2 -550.04,351 88.28,347.8 550.04,-351 550.04,-351" />
      <path id="path342" style="fill:#3f5cb3;fill-opacity:1;fill-rule:nonzero;stroke:none"
        d="m 5396.26,6993.5 c 0,0 -638.32,3.2 -550.04,351 88.28,347.8 550.04,-351 550.04,-351" />
      <path id="path344" style="fill:#3f5cb3;fill-opacity:1;fill-rule:nonzero;stroke:none"
        d="m 5655.64,6303.3 c 0,0 -638.32,3.2 -550.04,351 88.28,347.8 550.04,-351 550.04,-351" />
      <path id="path346" style="fill:#3f5cb3;fill-opacity:1;fill-rule:nonzero;stroke:none"
        d="m 5608.62,7758.3 c 0,0 10.96,761.8 301.3,660.9 290.34,-100.8 -301.3,-660.9 -301.3,-660.9" />
      <path id="path348" style="fill:#3f5cb3;fill-opacity:1;fill-rule:nonzero;stroke:none"
        d="m 5766.68,7135.5 c 0,0 10.96,761.9 301.3,661 290.34,-100.8 -301.3,-661 -301.3,-661" />
      <path id="path350" style="fill:#3f5cb3;fill-opacity:1;fill-rule:nonzero;stroke:none"
        d="m 5864.16,6387.3 c 0,0 10.95,761.9 301.3,661 290.34,-100.8 -301.3,-661 -301.3,-661" />
      <path id="path352" style="fill:#3f5cb3;fill-opacity:1;fill-rule:nonzero;stroke:none"
        d="m 5783.54,5619.2 c 0,0 -638.32,3.2 -550.04,351 88.28,347.8 550.04,-351 550.04,-351" />
      <path id="path354" style="fill:#3f5cb3;fill-opacity:1;fill-rule:nonzero;stroke:none"
        d="m 5942.67,4932.6 c 0,0 -638.33,3.2 -550.05,351 88.28,347.8 550.05,-351 550.05,-351" />
      <path id="path356" style="fill:#3f5cb3;fill-opacity:1;fill-rule:nonzero;stroke:none"
        d="m 6202.04,4242.3 c 0,0 -638.32,3.2 -550.04,351 88.27,347.9 550.04,-351 550.04,-351" />
      <path id="path358" style="fill:#3f5cb3;fill-opacity:1;fill-rule:nonzero;stroke:none"
        d="m 6155.02,5697.4 c 0,0 10.96,761.8 301.3,660.9 290.34,-100.8 -301.3,-660.9 -301.3,-660.9" />
      <path id="path360" style="fill:#3f5cb3;fill-opacity:1;fill-rule:nonzero;stroke:none"
        d="m 6313.08,5074.6 c 0,0 10.96,761.8 301.3,661 290.34,-100.9 -301.3,-661 -301.3,-661" />
      <path id="path362" style="fill:#3f5cb3;fill-opacity:1;fill-rule:nonzero;stroke:none"
        d="m 6410.55,4326.4 c 0,0 10.96,761.9 301.31,661 290.34,-100.8 -301.31,-661 -301.31,-661" />
      <path id="path364" style="fill:#3f5cb3;fill-opacity:1;fill-rule:nonzero;stroke:none"
        d="m 6537.16,3305.9 -1288.89,5140 33.86,8.5 1288.89,-5140 -33.86,-8.5" />
      <path id="path366" style="fill:#3f5cb3;fill-opacity:1;fill-rule:nonzero;stroke:none"
        d="m 5515.7,7457.1 -570.4,398.5 20.46,28.3 533.15,-371.6 261.32,628.7 32.74,-12.1 -277.27,-671.8" />
      <path id="path368" style="fill:#3f5cb3;fill-opacity:1;fill-rule:nonzero;stroke:none"
        d="m 5684.7,6791.2 -593.2,358.2 18.62,29.5 553.99,-333.5 179.12,574.6 33.52,-9.8 -192.05,-619" />
      <path id="path370" style="fill:#3f5cb3;fill-opacity:1;fill-rule:nonzero;stroke:none"
        d="m 5839.93,6180.6 -445.48,253.7 17,30.5 403.77,-230.5 163.11,520.4 34.2,-7 -172.6,-567.1" />
      <path id="path372" style="fill:#3f5cb3;fill-opacity:1;fill-rule:nonzero;stroke:none"
        d="m 6016.73,5450.1 -541.05,328.3 18.75,29.5 511.74,-309.7 312.67,521.6 29.37,-18.8 -331.48,-550.9" />
      <path id="path374" style="fill:#3f5cb3;fill-opacity:1;fill-rule:nonzero;stroke:none"
        d="m 6176.42,4823.3 -453.74,196.9 12.62,32.6 426.82,-186.5 263.58,430.1 29.6,-18.5 -278.88,-454.6" />
      <path id="path376" style="fill:#3f5cb3;fill-opacity:1;fill-rule:nonzero;stroke:none"
        d="m 6354.47,4110.4 -394.38,271.7 20.48,28.2 358.12,-245.4 115.92,289.7 32.42,-12.9 -132.56,-331.3" />
      <g transform="scale(1.08902)" id="g378">
        <path id="path380" style="fill:#f1ad1d;fill-opacity:1;fill-rule:nonzero;stroke:none"
          d="M 16045.8,2745.58 H 4869.28 c -140.35,0 -254.12,113.77 -254.12,254.08 v 0 c 0,140.4 113.77,254.17 254.12,254.17 H 16045.8 c 140.4,0 254.2,-113.77 254.2,-254.17 v 0 c 0,-140.31 -113.8,-254.08 -254.2,-254.08" />
      </g>
      <path id="path382" style="fill:#f1ad1d;fill-opacity:1;fill-rule:nonzero;stroke:none"
        d="m 12435.8,5570 c 0,-378.8 -307.1,-685.8 -685.8,-685.8 -378.8,0 -685.8,307 -685.8,685.8 0,378.7 307,685.8 685.8,685.8 378.7,0 685.8,-307.1 685.8,-685.8" />
      <path id="path384" style="fill:#fcd573;fill-opacity:1;fill-rule:nonzero;stroke:none"
        d="m 5905.44,9998.55 h 2972.63 c 60.56,0 73.82,85.15 16.13,103.55 l -497.53,158.8 c 0,0 898.16,880.7 263.7,1081.2 -634.46,200.5 -656.23,-503 -656.23,-503 0,0 61.13,1161.9 -351.92,1129.4 -413.05,-32.6 -215.05,-1000 -215.05,-1000 0,0 -422.34,-100.9 -468.78,-264.7 0,0 137.04,856.5 -367.1,638.3 -504.15,-218.3 -184.5,-1005 -184.5,-1005 l -532.9,-237 c -52.35,-23.3 -35.73,-101.55 21.55,-101.55" />
      <g transform="scale(1.03702)" id="g386">
        <path id="path388" style="fill:#fcd573;fill-opacity:1;fill-rule:nonzero;stroke:none"
          d="M 14088.1,7441.43 H 16028 c 39.5,0 48.2,55.64 10.6,67.6 l -324.7,103.66 c 0,0 586.1,574.63 172,705.48 -414,130.88 -428.2,-328.15 -428.2,-328.15 0,0 39.9,758.22 -229.6,736.98 -269.6,-21.25 -140.4,-652.6 -140.4,-652.6 0,0 -275.6,-65.86 -305.9,-172.71 0,0 89.4,558.95 -239.6,416.48 -329,-142.43 -120.4,-655.82 -120.4,-655.82 L 14074,7507.68 c -34.1,-15.14 -23.2,-66.25 14.1,-66.25" />
      </g>
    </g>
  </g>
</svg>